<svg width="38" height="37" viewBox="0 0 38 37" xmlns="http://www.w3.org/2000/svg"><path d="m35.2111 13.9468-2.5949-8.6497C32.0245 3.3245 30.2439 2 28.1854 2H10.8146C8.7561 2 6.9754 3.3245 6.3838 5.2971l-2.595 8.6497C2.1503 14.6589 1 16.2895 1 18.1875v9.25C1 28.7146 2.0354 29.75 3.3125 29.75h.0001l-.0001 2.3124c0 1.2772 1.0353 2.3126 2.3125 2.3126h2.3126c1.2771 0 2.3125-1.0354 2.3125-2.3125l-.001-2.3125H28.75l-.0001 2.3124c0 1.2772 1.0353 2.3126 2.3125 2.3126h2.3126c1.2772 0 2.3125-1.0354 2.3125-2.3125v-2.3124l-.0008-.0001h.0008C36.9646 29.75 38 28.7146 38 27.4375v-9.25c0-1.898-1.1503-3.5286-2.7889-4.2407ZM10.8145 6.625h17.3709l2.0813 6.9375H8.7332l2.0813-6.9375Zm-.5646 17.3438c-1.2772 0-2.3125-1.0355-2.3125-2.3126 0-1.2772 1.0353-2.3124 2.3125-2.3124s2.3125 1.0352 2.3125 2.3124c0 1.2771-1.0353 2.3126-2.3125 2.3126Zm18.5 0c-1.2772 0-2.3125-1.0355-2.3125-2.3126 0-1.2772 1.0353-2.3124 2.3125-2.3124s2.3125 1.0352 2.3125 2.3124c0 1.2771-1.0353 2.3126-2.3125 2.3126Z"/></svg>