<svg width="37" height="37" viewBox="0 0 37 37" xmlns="http://www.w3.org/2000/svg"><path d="M8.188 28.3401c-2.9922-2.9389-4.8217-6.7473-5.2465-10.8555C1.3512 19.4949.489 21.9605.493 24.5482c.0027 1.6831.3815 3.3561 1.0993 4.869L.1121 33.7248c-.2545.7405-.0686 1.5445.4851 2.0983.3897.3896.9034.5972 1.4317.5972.2223 0 .4472-.0367.6665-.1121l4.3077-1.4802c1.513.7178 3.1859 1.0966 4.869 1.0993 2.6384.0035 5.1494-.8916 7.1804-2.5415-4.0839-.3695-7.8935-2.1277-10.8645-5.0457Z"/><path d="m36.8665 28.7496-2.149-6.2541c1.0359-2.1175 1.5833-4.4725 1.587-6.842.0064-4.1201-1.5877-8.0157-4.4886-10.9692C28.9145 1.73 25.0481.0673 20.9289.002c-4.2712-.0675-8.286 1.5571-11.3043 4.5754-3.0184 3.0183-4.6433 7.033-4.5757 11.3045.0653 4.1191 1.7281 7.9855 4.6821 10.887 2.9477 2.8953 6.8335 4.4889 10.9447 4.4887h.0246c2.3696-.0037 4.7246-.5511 6.8421-1.5869l6.2542 2.149c.2606.0895.5278.1332.7919.1332.6279 0 1.2384-.2466 1.7015-.7098.658-.6581.8789-1.6134.5765-2.4935Zm-14.6809-7.6974h-8.0702c-.6082 0-1.1011-.493-1.1011-1.1011 0-.6082.493-1.1012 1.1011-1.1012h8.0701c.6082 0 1.1012.493 1.1012 1.1012 0 .6081-.4929 1.1011-1.1011 1.1011Zm5.0505-4.5288H14.1155c-.6082 0-1.1012-.493-1.1012-1.1012 0-.6081.4931-1.1011 1.1012-1.1011h13.1206c.6082 0 1.1012.493 1.1012 1.1011 0 .6082-.493 1.1012-1.1012 1.1012Zm0-4.5289H14.1155c-.6082 0-1.1012-.4931-1.1012-1.1012 0-.6082.4931-1.1012 1.1012-1.1012h13.1206c.6082 0 1.1012.4931 1.1012 1.1012s-.493 1.1012-1.1012 1.1012Z"/></svg>