<svg width="37" height="37" viewBox="0 0 37 37" xmlns="http://www.w3.org/2000/svg"><path d="M12.9442 7.3226h9.93c.5484 0 .993-.4718.993-1.0538v-4.215c0-.582-.4446-1.0538-.993-1.0538h-9.93c-.5484 0-.993.4718-.993 1.0538v4.215c0 .582.4446 1.0538.993 1.0538ZM14.9297 15.7015v4.9689h1.986v-1.0538c0-.582.4446-1.0538.993-1.0538s.993.4718.993 1.0538v1.0538h1.986v-4.9689l-2.979-1.5807-2.979 1.5807Z"/><path d="M27.6878 31.6998h-3.2769c-.5483 0-.993-.4718-.993-1.0537v-3.4773c0-.2795.1046-.5476.291-.7452l7.1091-7.5441V5.2151c0-.582-.4446-1.0537-.993-1.0537h-3.972v2.1075c0 1.7431-1.3364 3.1613-2.979 3.1613h-9.93c-1.6426 0-2.979-1.4181-2.979-3.1613V4.1614H5.993c-.5484 0-.993.4718-.993 1.0537V35.915c0 .5819.4446 1.0538.993 1.0538h23.832c.5484 0 .993-.4719.993-1.0538v-7.1004l-2.428 2.5766c-.1863.1977-.4388.3087-.7022.3087Zm-7.1309 0h-5.296c-.5484 0-.993-.4718-.993-1.0537 0-.582.4446-1.0538.993-1.0538h5.296c.5484 0 .993.4718.993 1.0538 0 .5819-.4446 1.0537-.993 1.0537Zm0-4.215h-5.296c-.5484 0-.993-.4719-.993-1.0538 0-.582.4446-1.0538.993-1.0538h5.296c.5484 0 .993.4718.993 1.0538 0 .5819-.4446 1.0538-.993 1.0538Zm2.317-10.7387v4.9781c0 .5819-.4446 1.0537-.993 1.0537h-7.944c-.5484 0-.993-.4718-.993-1.0537v-4.9787c-.4658.1755-.9924-.0403-1.2191-.5214-.2453-.5206-.0465-1.1536.4441-1.4138l5.2959-2.8101a.9422.9422 0 0 1 .8882 0l5.296 2.8101c.4905.2602.6893.8932.444 1.4138-.2248.4772-.7488.6992-1.2191.522Z"/><path d="M25.4033 29.5924h1.8725l6.6905-7.1-1.8723-1.987-6.6907 7.1v1.987Z"/></svg>