<svg width="37" height="37" viewBox="0 0 37 37" xmlns="http://www.w3.org/2000/svg"><path d="M.6348 8.744h8.0367V.635L.6348 8.744ZM28.2559 19.584c-4.7816 0-8.6719 3.8903-8.6719 8.6719 0 4.7816 3.8903 8.7441 8.6719 8.7441C33.0375 37 37 33.0375 37 28.2559c0-4.7816-3.9625-8.6719-8.7441-8.6719Zm4.0183 8.3543-4.3359 4.3359c-.4235.4234-1.1095.4234-1.5329 0l-2.1679-2.168c-.4234-.4234-.4234-1.1094 0-1.5328s1.1094-.4234 1.5328 0l1.4016 1.4016 3.5695-3.5696c.4234-.4234 1.1095-.4234 1.5329 0s.4234 1.1094-.0001 1.5329Z"/><path d="M5.42 23.9199h12.9149c1.6774-3.8215 5.4874-6.5039 9.921-6.5039V3.252c0-1.7932-1.4588-3.252-3.252-3.252H10.8398v9.8281c0 .5992-.4848 1.084-1.084 1.084H0v22.7637C0 35.469 1.4587 37 3.252 37h18.567c-2.102-1.5651-3.642-3.9178-4.1839-6.5762H5.4199a1.0833 1.0833 0 0 1-1.084-1.084c0-.5991.4849-1.0839 1.084-1.0839H17.416c0-.7424.0763-1.4672.2191-2.168H5.4199a1.0833 1.0833 0 0 1-1.084-1.084c0-.5991.4849-1.084 1.084-1.084Zm8.6718-17.3437h8.7441c.5992 0 1.084.4848 1.084 1.084 0 .5991-.4848 1.084-1.084 1.084h-8.7441a1.0833 1.0833 0 0 1-1.084-1.084c0-.5992.4848-1.084 1.084-1.084Zm0 4.3359h8.7441c.5992 0 1.084.4848 1.084 1.084 0 .5991-.4848 1.084-1.084 1.084h-8.7441a1.0834 1.0834 0 0 1-1.084-1.084c0-.5992.4848-1.084 1.084-1.084ZM5.4199 15.248h17.416c.5992 0 1.084.4849 1.084 1.084 0 .5992-.4848 1.084-1.084 1.084H5.4199a1.0833 1.0833 0 0 1-1.084-1.084c0-.5991.4849-1.084 1.084-1.084Zm0 4.336h13.4866c.5991 0 1.084.4848 1.084 1.084 0 .5991-.4849 1.084-1.084 1.084H5.4199a1.0834 1.0834 0 0 1-1.084-1.084c0-.5992.4849-1.084 1.084-1.084Z"/></svg>