<svg width="37" height="37" viewBox="0 0 37 37" xmlns="http://www.w3.org/2000/svg"><path d="M13.7591 2.7642h6.3359c.0785-1.46-.9749-2.7725-2.4843-2.7642h-4.8636a4.6041 4.6041 0 0 1 .7134 2.4656c0 .1647.1339.2986.2986.2986ZM22.5423 2.765h6.3173c.1328-1.459-.9775-2.7729-2.4656-2.764h-4.8637a4.6041 4.6041 0 0 1 .7134 2.4655.299.299 0 0 0 .2986.2986ZM21.9731 16.0938c-2.6022 0-4.7192 2.117-4.7192 4.7191.2373 6.2522 9.2021 6.2504 9.4385 0-.0001-2.6021-2.1171-4.7191-4.7193-4.7191ZM6.8096 30.2154h8.4438c-1.7091-1.2305-3.0695-2.9162-3.9009-4.8787h-4.543v4.8787Z"/><path d="M21.9732 32.3828H5.7257c-.5984 0-1.0835-.4851-1.0835-1.0835v-7.0457c0-.5984.4851-1.0835 1.0835-1.0835h4.9529c-.16-.7841-.2433-1.6057-.2322-2.4339H5.7257c-.5984 0-1.0835-.4851-1.0835-1.0835 0-.5984.4851-1.0835 1.0835-1.0835h4.9471c1.5037-8.1177 11.5909-12.0542 18.1867-6.955V4.9316H13.7594c-1.3617 0-2.4656-1.1039-2.4656-2.4655 0-1.3617-1.1038-2.4656-2.4655-2.4656H2.4655C1.104.0005 0 1.1043 0 2.466v32.0521c0 1.3617 1.1039 2.4655 2.4655 2.4655H26.394c1.0465 0 1.9401-.6523 2.298-1.5723l-3.4898-3.4897a11.5338 11.5338 0 0 1-3.2289.4611ZM9.2073 16.094H5.7257c-1.4348-.0527-1.4361-2.1138 0-2.167h3.4816c1.4348.0526 1.4361 2.1137 0 2.167Zm2.3211-4.6422H5.7257c-1.4341-.0524-1.4367-2.1136 0-2.167h5.8027c.5983 0 1.0835.4851 1.0835 1.0835 0 .5984-.4852 1.0835-1.0835 1.0835Z"/><path d="m35.9856 30.0107-5.427-5.4268c2.7295-6.0267-1.9619-13.1923-8.586-13.0911-5.1617-.0001-9.3612 4.1994-9.3612 9.3613-.102 6.6492 7.1176 11.3427 13.1487 8.5611l5.4106 5.4106c3.3077 3.072 7.8866-1.5083 4.8149-4.8151Zm-14.0128-2.2705c-3.7971 0-6.8862-3.0891-6.8862-6.8861.3462-9.123 13.4276-9.1204 13.7725 0-.0001 3.797-3.0892 6.8861-6.8863 6.8861Z"/></svg>