<svg width="37" height="37" viewBox="0 0 37 37" xmlns="http://www.w3.org/2000/svg"><path d="M7.2263.6348.6348 7.2263h6.5915V.6348ZM10.8398 18.0664h3.6133v7.9492h-3.6133v-7.9492ZM8.6719 29.2676c0 .5977.4862 1.084 1.084 1.084h5.7812c.5977 0 1.084-.4863 1.084-1.084 0-.5977-.4863-1.084-1.084-1.084H9.7559c-.5978 0-1.084.4863-1.084 1.084ZM15.5371 13.7305H9.7559c-.5978 0-1.084.4862-1.084 1.084 0 .5977.4862 1.0839 1.084 1.0839h5.7812c.5977 0 1.084-.4862 1.084-1.0839 0-.5978-.4863-1.084-1.084-1.084ZM35.374 20.415H16.6211v3.252H35.374c.898 0 1.626-.728 1.626-1.626 0-.898-.728-1.626-1.626-1.626Z"/><path d="M16.6211 26.2021c1.2617.4474 2.168 1.6523 2.168 3.0655 0 1.7931-1.4589 3.2519-3.252 3.2519H9.7559c-1.7932 0-3.252-1.4588-3.252-3.2519 0-1.4132.9063-2.6181 2.168-3.0655V17.88c-1.2617-.4475-2.168-1.6524-2.168-3.0655 0-1.7932 1.4588-3.252 3.252-3.252h5.7812c1.7931 0 3.252 1.4588 3.252 3.252 0 1.4131-.9063 2.618-2.168 3.0655v.3671h10.1172V3.252c0-1.7932-1.4588-3.252-3.252-3.252H9.3945v8.3105c0 .5987-.4853 1.084-1.084 1.084H0V33.748C0 35.5412 1.4588 37 3.252 37h20.2343c1.7932 0 3.252-1.4588 3.252-3.252v-7.913H16.6211v.3671ZM12.6465 4.3359h8.6719c.5986 0 1.0839.4854 1.0839 1.084 0 .5987-.4853 1.084-1.0839 1.084h-8.6719c-.5987 0-1.084-.4853-1.084-1.084 0-.5986.4853-1.084 1.084-1.084Z"/></svg>