<svg width="37" height="37" viewBox="0 0 37 37" xmlns="http://www.w3.org/2000/svg"><path d="M32.2447 4.1885h-1.0818v26.5793c0 1.7658-1.4374 3.2031-3.2031 3.2031H8.2812v.9853c0 1.1282.9158 2.0439 2.044 2.0439h21.9157c1.1282 0 2.0439-.9157 2.0439-2.0439V6.2324c0-1.1282-.9118-2.044-2.0401-2.044Z"/><path d="M16.9979 32.8116h10.9578c1.1283 0 2.044-.9157 2.044-2.0439V2.044C29.9997.9157 29.084 0 27.9557 0H13.3543v.6762c.0077.0695.0116.143.0116.2163v5.5987c0 1.588-1.2905 2.8786-2.8785 2.8786H4.8887c-.058 0-.1198-.0039-.1778-.0077H4v21.4056c0 1.1282.9157 2.0439 2.044 2.0439H16.9979Zm.4135-6.9471h-7.1443c-.5332 0-.966-.4328-.966-.966 0-.5332.4328-.9659.966-.9659h7.1481c.5332 0 .966.4327.966.9659s-.4366.966-.9698.966Zm7.148-4.9302H10.2671c-.5332 0-.966-.4328-.966-.966 0-.5332.4328-.9659.966-.9659h14.2923c.5332 0 .966.4327.966.9659s-.4328.966-.966.966Zm-14.2923-7.1675h14.2923c.5332 0 .966.4328.966.966 0 .5332-.4328.9659-.966.9659H10.2671c-.5332 0-.966-.4327-.966-.9659s.4328-.966.966-.966Z"/><path d="M4.8891 8.2107h5.6141c.9351-.0077 1.6924-.765 1.7001-1.7V.8925c0-.5177-.425-.8616-.8654-.8616-.2125 0-.4251.0773-.6028.255L4.2786 6.7425c-.541.541-.1584 1.4682.6105 1.4682Z"/></svg>