<svg width="38" height="37" viewBox="0 0 38 37" xmlns="http://www.w3.org/2000/svg"><path d="M19.4974 9.25c2.5539 0 4.6243-2.0707 4.6243-4.625S22.0513 0 19.4974 0c-2.554 0-4.6244 2.0707-4.6244 4.625s2.0704 4.625 4.6244 4.625ZM26.4242 21.8208l-1.0497-8.177a2.3035 2.3035 0 0 0-2.2983-2.0813h-1.2671c-.3075 0-.6012.1226-.8185.3376l-1.4937 1.4939-1.4936-1.4939a1.1646 1.1646 0 0 0-.8185-.3376H15.92c-1.1931 0-2.1827.8949-2.2983 2.0512l-1.052 8.2094a1.153 1.153 0 0 0 .2798.9088 1.153 1.153 0 0 0 .867.3931h1.2486l.9665 11.7938C16.0472 36.1028 17.0391 37 18.2322 37h2.5318c1.1931 0 2.1827-.8972 2.3029-2.102l.9642-11.773h1.2462c.333 0 .6475-.1434.8671-.3931a1.139 1.139 0 0 0 .2798-.9111ZM31.0579 9.25c2.554 0 4.6243-2.0707 4.6243-4.625S33.6119 0 31.0579 0c-2.5539 0-4.6243 2.0707-4.6243 4.625S28.504 9.25 31.0579 9.25ZM7.9359 0C5.3855 0 3.3115 2.0743 3.3115 4.625S5.3855 9.25 7.9358 9.25c2.5481 0 4.6244-2.0743 4.6244-4.625S10.4839 0 7.9359 0ZM37.9855 21.8208l-1.0498-8.1747c-.1179-1.1887-1.1052-2.0836-2.2982-2.0836h-1.2671c-.3075 0-.6012.1226-.8185.3376l-1.4937 1.4939-1.4936-1.4939a1.1633 1.1633 0 0 0-.8162-.3376h-1.2671c-.1433 0-.2728.0509-.4092.0763.2982.5273.5318 1.0985.6011 1.739l1.0474 8.1493c.1295.992-.1803 1.991-.8462 2.7426-.3145.3608-.7168.6151-1.1469.814l.7677 7.5226c.1179 1.1863 1.1075 2.0812 2.3006 2.0812h2.5318c1.1931 0 2.1827-.8972 2.3029-2.102l.9619-9.4605h1.2462c.333 0 .6474-.1434.8671-.3931a1.1392 1.1392 0 0 0 .2798-.9111ZM11.1134 24.2581c-.6567-.7423-.9619-1.739-.837-2.7264l1.052-8.2117c.0601-.6151.2867-1.1701.5757-1.6835-.1294-.0231-.252-.074-.3884-.074h-1.2671c-.3075 0-.6011.1226-.8185.3376L7.9365 13.394l-1.4937-1.4939a1.1632 1.1632 0 0 0-.8162-.3376H4.3595c-1.1931 0-2.1827.8949-2.2983 2.0512l-1.052 8.2094a1.1533 1.1533 0 0 0 .2797.9088c.2197.2497.5364.3931.867.3931h1.2486l.9665 9.4813c.1156 1.184 1.1076 2.0812 2.3006 2.0812h2.5319c1.193 0 2.1826-.8972 2.3029-2.102l.7676-7.5041c-.4323-.2012-.8369-.4579-1.1606-.8233Z"/></svg>