<svg width="38" height="37" viewBox="0 0 38 37" xmlns="http://www.w3.org/2000/svg"><path d="M38 12.0167c0 10.0554-18.5005 23.4106-18.5005 23.4106S1 22.5535 1 12.0167C1 4.4425 5.581 1 11.2302 1c2.6155 0 4.9944 1.0649 6.8006 2.805l-4.7114 7.3655c-.1177.184-.1611.412-.1201.6313.0409.2187.1626.4116.3374.5324l7.0115 4.852-3.2268 4.194c-.1623.2109-.217.4945-.1459.7575l1.8053 6.7054c.0967.36.4026.5961.736.5961a.745.745 0 0 0 .1806-.0232c.399-.1033.6513-.5266.5738-.9603l-1.0966-6.1011 4.6025-4.9809c.1549-.1676.2353-.399.2218-.6341-.0134-.2364-.1203-.4546-.2938-.6l-6.0626-5.0901 6.5893-8.5219c.1338-.1734.1958-.3989.1718-.623a.8672.8672 0 0 0-.1009-.3233C25.5278 1.2072 26.6244 1 27.7679 1 33.419 1 38 5.9332 38 12.0167Z"/></svg>