<svg width="38" height="37" viewBox="0 0 38 37" xmlns="http://www.w3.org/2000/svg"><path d="m37.3789 16.5699-5.6075-5.6075V4.4847c0-1.1712-.9491-2.1204-2.1221-2.1204-1.1703 0-2.1194.9492-2.1194 2.1204V6.721l-4.1752-4.1754c-2.0643-2.0631-5.6534-2.0595-7.713.0038L1.6207 16.5699c-.8276.8293-.8276 2.1712 0 2.9993.8281.8291 2.1727.8291 3.0004 0l14.0196-14.021c.4567-.4543 1.2617-.4543 1.716-.0013l14.022 14.0223a2.1163 2.1163 0 0 0 1.4998.6208c.543 0 1.086-.2064 1.5005-.6208.828-.828.828-2.1699-.0001-2.9993Z"/><path d="M20.237 9.5734c-.4074-.4071-1.0669-.4071-1.4731 0L6.4311 21.9026a1.0439 1.0439 0 0 0-.3051.7377v8.9924c0 2.1102 1.711 3.821 3.821 3.821h6.106v-9.4561h6.8936v9.4561h6.106c2.11 0 3.821-1.7108 3.821-3.8209v-8.9925c0-.2773-.1095-.5431-.3051-.7377L20.237 9.5734Z"/></svg>