<svg width="37" height="38" viewBox="0 0 37 38" xmlns="http://www.w3.org/2000/svg"><path d="M10.8014 37.9999c-.8525 0-1.5416-.6891-1.5416-1.5416V22.9687c0-.8526.689-1.5417 1.5416-1.5417.8526 0 1.5417.6891 1.5417 1.5417v13.4896c0 .8525-.6891 1.5416-1.5417 1.5416ZM20.0508 10.25c-2.5499 0-4.625-2.075-4.625-4.625S17.5009 1 20.0508 1s4.625 2.075 4.625 4.625-2.0751 4.625-4.625 4.625Z"/><path d="M25.1692 38.0001h-5.1276c-.851 0-1.5417-.6907-1.5417-1.5417V20.6563l-3.0155 2.2678a4.1035 4.1035 0 0 1-2.1537 1.0021l-2.3834.3453c-.8094.1187-1.6342-.1248-2.254-.6629a2.8476 2.8476 0 0 1-.9804-2.1521c0-1.0808.5982-2.0551 1.5602-2.5392l4.292-2.166a1.8034 1.8034 0 0 0 .6952-.6182l.7801-1.1779a7.064 7.064 0 0 1 5.8892-3.1635h1.7251c1.0715 0 2.0813.3993 2.8382 1.1239 2.4759 2.3603 3.6846 6.3563 3.8018 12.5754.0324 1.7421-.4656 3.4395-1.4415 4.9133l-.4764.7184a6.3282 6.3282 0 0 0-1.0529 3.4934v2.2293c.0015.6367-.5165 1.1547-1.1547 1.1547Z"/></svg>