<svg width="37" height="37" viewBox="0 0 37 37" xmlns="http://www.w3.org/2000/svg"><path d="M35.4033 5.1492a1.2027 1.2027 0 0 0-.8688-.9928L19.7471.044a1.2019 1.2019 0 0 0-.6445 0L4.3152 4.1564a1.2024 1.2024 0 0 0-.8688.9928C3.3606 5.766 1.404 20.338 6.4227 27.5871c5.0127 7.2405 12.4075 9.0959 12.7198 9.1715a1.2026 1.2026 0 0 0 .5647 0c.3124-.0756 7.7073-1.931 12.7198-9.1715 5.0187-7.249 3.0621-21.821 2.9763-22.4379Zm-6.4424 8.5073L18.8743 23.7431a1.1988 1.1988 0 0 1-.8501.3522 1.1984 1.1984 0 0 1-.8502-.3522l-6.2364-6.2365a1.2015 1.2015 0 0 1-.3522-.8501c0-.3189.1268-.6248.3522-.8502l1.2383-1.2382c.4695-.4694 1.2309-.4696 1.7003 0l4.148 4.148 7.9981-7.9983a1.2017 1.2017 0 0 1 1.7003 0l1.2383 1.2383c.4695.4695.4695 1.2309 0 1.7004Z"/></svg>