<svg width="37" height="37" viewBox="0 0 37 37" xmlns="http://www.w3.org/2000/svg"><path d="M33.5106 11.5404c.8633-.7593 1.4096-1.8709 1.4096-3.1083 0-2.283-1.8574-4.1405-4.1404-4.1405-1.5193 0-2.8494.8232-3.5697 2.0463l-6.327-1.504V3.4236C20.8831 2.0851 19.798 1 18.4595 1s-2.4236 1.0851-2.4236 2.4236v1.4138L9.7866 6.3327C9.0655 5.1125 7.737 4.2917 6.22 4.2917c-2.2831 0-4.1405 1.8574-4.1405 4.1405 0 1.2373.5463 2.3489 1.4096 3.1083C.3661 18.4575-.0002 19.0057 0 19.5733c.0014 3.4153 2.8007 6.1885 6.22 6.1885s6.2023-2.7732 6.2199-6.1885c.0109-.3923-.3539-1.0877-3.489-8.033.8028-.7063 1.3307-1.7173 1.4007-2.8509l5.6843-1.3601v24.7744h-3.1508c-.6693 0-1.2118.5425-1.2118 1.2118 0 .5167.324.9568.7796 1.131h-1.3048c-.6692 0-1.2118.5426-1.2118 1.2118 0 .6693.5426 1.2118 1.2118 1.2118h14.6228c.6692 0 1.2118-.5425 1.2118-1.2118 0-.6692-.5426-1.2118-1.2118-1.2118h-1.3048c.4555-.1742.7796-.6143.7796-1.131 0-.6693-.5425-1.2118-1.2118-1.2118h-3.1508V7.3252l5.7655 1.3705c.0715 1.131.5989 2.1398 1.4003 2.8447-3.0438 6.7433-3.4997 7.6537-3.4891 8.0331.0176 3.4152 2.8006 6.1884 6.22 6.1884 3.4193 0 6.2023-2.7732 6.2199-6.1884.0114-.4117-.322-1.0214-3.4891-8.0331ZM9.3531 18.3292H3.0868l2.611-5.7908c.1712.0217.3452.0341.522.0341.177 0 .351-.0124.5222-.0341l2.6111 5.7908Zm18.2934 0 2.6111-5.7908a4.147 4.147 0 0 0 .5221.0341 4.147 4.147 0 0 0 .5221-.0341l2.611 5.7908h-6.2663Z"/></svg>