<svg width="54" height="17" viewBox="0 0 54 17" fill="none" xmlns="http://www.w3.org/2000/svg"><path d="M24.6397 14.128c0-1.1873.9625-2.1497 2.1498-2.1497 1.1872 0 2.1497.9624 2.1497 2.1497s-.9625 2.1498-2.1497 2.1498c-1.1873 0-2.1498-.9625-2.1498-2.1498ZM36.8077 14.1458c0-1.1872.9625-2.1497 2.1498-2.1497 1.1872 0 2.1497.9625 2.1497 2.1497 0 1.1873-.9625 2.1498-2.1497 2.1498-1.1873 0-2.1498-.9625-2.1498-2.1498ZM48.8077 14.1458c0-1.1872.9625-2.1497 2.1498-2.1497 1.1872 0 2.1497.9625 2.1497 2.1497 0 1.1873-.9625 2.1498-2.1497 2.1498-1.1873 0-2.1498-.9625-2.1498-2.1498Z" fill="#B40439"/><path d="M24.6397 14.128c0-1.1873.9625-2.1497 2.1498-2.1497 1.1872 0 2.1497.9624 2.1497 2.1497s-.9625 2.1498-2.1497 2.1498c-1.1873 0-2.1498-.9625-2.1498-2.1498ZM36.8077 14.1458c0-1.1872.9625-2.1497 2.1498-2.1497 1.1872 0 2.1497.9625 2.1497 2.1497 0 1.1873-.9625 2.1498-2.1497 2.1498-1.1873 0-2.1498-.9625-2.1498-2.1498ZM48.8077 14.1458c0-1.1872.9625-2.1497 2.1498-2.1497 1.1872 0 2.1497.9625 2.1497 2.1497 0 1.1873-.9625 2.1498-2.1497 2.1498-1.1873 0-2.1498-.9625-2.1498-2.1498ZM24.6397 2.1498C24.6397.9625 25.6022 0 26.7895 0c1.1872 0 2.1497.9625 2.1497 2.1498 0 1.1872-.9625 2.1497-2.1497 2.1497-1.1873 0-2.1498-.9625-2.1498-2.1498ZM36.8077 2.1676c0-1.1873.9625-2.1498 2.1498-2.1498 1.1872 0 2.1497.9625 2.1497 2.1498 0 1.1872-.9625 2.1497-2.1497 2.1497-1.1873 0-2.1498-.9625-2.1498-2.1497ZM48.8077 2.1676c0-1.1873.9625-2.1498 2.1498-2.1498 1.1872 0 2.1497.9625 2.1497 2.1498 0 1.1872-.9625 2.1497-2.1497 2.1497-1.1873 0-2.1498-.9625-2.1498-2.1497ZM12.7305 14.1281c0-1.1872.9625-2.1497 2.1498-2.1497 1.1872 0 2.1497.9625 2.1497 2.1497 0 1.1873-.9625 2.1498-2.1497 2.1498-1.1873 0-2.1498-.9625-2.1498-2.1498Z" fill="#B40439"/><path d="M12.7305 14.1281c0-1.1872.9625-2.1497 2.1498-2.1497 1.1872 0 2.1497.9625 2.1497 2.1497 0 1.1873-.9625 2.1498-2.1497 2.1498-1.1873 0-2.1498-.9625-2.1498-2.1498ZM12.7305 2.1498C12.7305.9625 13.693 0 14.8803 0 16.0675 0 17.03.9625 17.03 2.1498c0 1.1872-.9625 2.1497-2.1497 2.1497-1.1873 0-2.1498-.9625-2.1498-2.1497ZM.8213 14.1281c0-1.1872.9625-2.1497 2.1497-2.1497 1.1873 0 2.1498.9625 2.1498 2.1497 0 1.1873-.9625 2.1498-2.1498 2.1498-1.1872 0-2.1497-.9625-2.1497-2.1498Z" fill="#B40439"/><path d="M.8213 14.1281c0-1.1872.9625-2.1497 2.1497-2.1497 1.1873 0 2.1498.9625 2.1498 2.1497 0 1.1873-.9625 2.1498-2.1498 2.1498-1.1872 0-2.1497-.9625-2.1497-2.1498ZM.8213 2.1498C.8213.9625 1.7838 0 2.971 0c1.1873 0 2.1498.9625 2.1498 2.1498 0 1.1872-.9625 2.1497-2.1498 2.1497-1.1872 0-2.1497-.9625-2.1497-2.1497Z" fill="#B40439"/></svg>