<svg width="543" height="520" viewBox="0 0 543 520" fill="none" xmlns="http://www.w3.org/2000/svg"><path d="M224.542 163.287c-.318.001-.624-.124-.852-.346a1.219 1.219 0 0 1-.369-.843l-.131-4.332a1.7915 1.7915 0 0 1 0-.293l28.472-136.2987a8.147 8.147 0 0 1 2.734-4.5305 8.1453 8.1453 0 0 1 10.004-.351 8.1463 8.1463 0 0 1 3.045 4.3277l27.966 100.8065c.045.154.058.316.039.475-.018.159-.068.313-.147.452-.079.14-.185.262-.312.36-.127.098-.272.17-.426.212-.314.085-.648.045-.931-.114a1.235 1.235 0 0 1-.584-.733L265.099 21.3535a5.6994 5.6994 0 0 0-2.133-3.0223 5.7027 5.7027 0 0 0-3.54-1.0759 5.6998 5.6998 0 0 0-3.455 1.3235 5.706 5.706 0 0 0-1.915 3.1656L225.634 157.831l.13 4.186c.009.326-.111.642-.334.879-.222.238-.53.379-.855.391h-.033Z" fill="#B40439"/><path d="M226.971 4.691 235.033 0l13.454 5.5705-8.079 4.691-13.437-5.5705Z" fill="#7E96A1"/><path d="m240.408 10.2778 8.144-4.7072a41.2486 41.2486 0 0 0 12.607 11.988 17.9161 17.9161 0 0 0 11.597 2.7852c5.081-.8307 10.978.5864 17.037 4.072l-8.144 4.691c-6.043-3.4857-11.939-4.8864-17.037-4.072a17.9156 17.9156 0 0 1-11.597-2.7853 41.3795 41.3795 0 0 1-12.607-11.9717Z" fill="#768992"/><path d="m281.649 29.1067 8.079-4.6909 65.054 37.5602-8.079 4.691-65.054-37.5603Z" fill="#7E96A1"/><path d="M346.703 66.6669v16.8744l-65.087-43.5379a18.2395 18.2395 0 0 0-11.89-2.8341c-5.065.8307-10.913-.6678-16.728-4.0232a59.6104 59.6104 0 0 1-18.21-17.3305L226.97 4.6909l13.438 5.5868a41.3795 41.3795 0 0 0 12.607 11.9717 17.9156 17.9156 0 0 0 11.597 2.7853c5.098-.8307 10.994.5863 17.037 4.072l65.054 37.5602Z" fill="#637B87"/><path d="M211.936 153.482c0 19.871 21.077 35.996 47.105 35.996 26.028 0 47.105-16.125 47.105-35.996h-94.21Z" fill="#C8436B"/><path d="M208.173 147.13h101.914v4.349c0 16.386-22.803 29.677-50.949 29.677-28.145 0-50.965-13.291-50.965-29.677v-4.349Z" fill="#E19BB0"/><path d="M259.139 177.018c28.147 0 50.965-13.287 50.965-29.677s-22.818-29.676-50.965-29.676c-28.148 0-50.966 13.286-50.966 29.676s22.818 29.677 50.966 29.677Z" fill="#E19BB0"/><path d="M259.139 174.641c25.763 0 46.649-12.164 46.649-27.169s-20.886-27.168-46.649-27.168c-25.764 0-46.649 12.163-46.649 27.168 0 15.005 20.885 27.169 46.649 27.169Z" fill="#C46380"/><path d="M288.994 148.221a.7994.7994 0 0 1-.766-.554 6.512 6.512 0 0 0-1.84-2.101.849.849 0 0 1-.2-.25.8323.8323 0 0 1-.088-.308.8146.8146 0 0 1 .035-.318.8272.8272 0 0 1 .155-.28.8182.8182 0 0 1 .558-.289.8241.8241 0 0 1 .599.191 7.7979 7.7979 0 0 1 2.312 2.834c.036.1.051.207.045.313a.7983.7983 0 0 1-.08.307.7991.7991 0 0 1-.194.25c-.08.07-.174.123-.275.156a.7322.7322 0 0 1-.261.049Zm-6.141-5.163a.874.874 0 0 1-.391-.098c-.931-.505-1.888-.961-2.866-1.368a.8317.8317 0 0 1-.268-.178.813.813 0 0 1-.177-.268.8106.8106 0 0 1 .005-.629.828.828 0 0 1 .452-.43.829.829 0 0 1 .623.006c1.042.44 2.069.929 2.997 1.434.096.049.181.118.25.2.069.083.121.179.153.282.031.103.042.211.032.319a.8062.8062 0 0 1-.093.306.7996.7996 0 0 1-.717.489v-.065Zm-7.541-2.981a.516.516 0 0 1-.228 0c-1.01-.293-2.052-.57-3.111-.798a.8382.8382 0 0 1-.298-.131.8224.8224 0 0 1-.225-.234.842.842 0 0 1-.119-.303.832.832 0 0 1 .007-.326.8362.8362 0 0 1 .13-.298c.063-.09.143-.166.235-.225a.846.846 0 0 1 .303-.119.827.827 0 0 1 .325.007c1.092.244 2.167.521 3.258.831.103.03.198.08.282.146.083.067.153.15.204.244.051.094.084.197.095.303.012.106.003.214-.027.317a.8355.8355 0 0 1-.315.435.8341.8341 0 0 1-.516.151Zm-7.965-1.629h-.179c-1.026-.13-2.085-.244-3.258-.326a.8062.8062 0 0 1-.307-.086.8148.8148 0 0 1-.25-.198.8042.8042 0 0 1-.156-.278.8292.8292 0 0 1-.036-.317.8665.8665 0 0 1 .296-.544c.163-.138.37-.211.584-.205 1.124.097 2.231.211 3.257.342.212.032.403.145.534.315.13.17.19.384.167.597a.8313.8313 0 0 1-.652.7Zm-8.144-.521h-.081a.8145.8145 0 0 1-.576-.239.8127.8127 0 0 1 0-1.151c.153-.153.36-.239.576-.239.22 0 .433.084.593.235.161.152.257.359.27.579 0 .205-.08.401-.223.548a.7812.7812 0 0 1-.543.234l-.016.033Z" fill="#B40439"/><path d="M259.139 126.07c-24.106 0-43.978 10.636-46.388 24.285-.177-.951-.265-1.916-.261-2.883 0-15.001 20.881-27.168 46.649-27.168s46.649 12.167 46.649 27.168a15.491 15.491 0 0 1-.277 2.883c-2.508-13.649-22.282-24.285-46.372-24.285Z" fill="#D5879F"/><path d="M224.82 163.32a1.221 1.221 0 0 1-.797-.361c-.213-.214-.338-.5-.352-.801-.014-.301.084-.597.275-.831.191-.233.462-.388.76-.434l1.091-.098c.54-.066 1.047-.294 1.454-.655.407-.361.695-.836.826-1.364l.228-.88c.039-.156.107-.303.202-.433.096-.13.216-.24.353-.323a1.2293 1.2293 0 0 1 .928-.14c.314.085.582.289.746.569.165.281.213.615.133.93l-.228.879a5.1432 5.1432 0 0 1-4.495 3.844l-1.092.098h-.032Z" fill="#B40439"/><path d="M220.796 156.365a4.798 4.798 0 0 0-.212 1.515v6.629l7.232 4.186.261 2.329 1.84-1.156v-6.662c-.08-1.632-.548-3.222-1.363-4.638a10.3024 10.3024 0 0 0-3.328-3.506 3.4464 3.4464 0 0 0-1.502-.594 3.4482 3.4482 0 0 0-1.609.154 1.847 1.847 0 0 0-.488.293l-1.629.945.798.505Zm2.492 1.254 1.205.603 2.476 3.795.326 2.524c-.322.158-.681.223-1.038.188a1.9358 1.9358 0 0 1-.982-.383 6.2129 6.2129 0 0 1-2.012-2.101 6.2112 6.2112 0 0 1-.838-2.785 1.905 1.905 0 0 1 .863-1.922v.081Z" fill="#CE718D"/><path d="M218.745 158.955v6.629l9.333 5.44v-6.645a10.3483 10.3483 0 0 0-1.369-4.635 10.3493 10.3493 0 0 0-3.322-3.509c-2.541-1.499-4.642-.261-4.642 2.72Zm1.857 1.629c0-1.808 1.27-2.525 2.834-1.629a6.2632 6.2632 0 0 1 2.007 2.104c.496.848.784 1.802.843 2.782 0 1.792-1.27 2.525-2.85 1.629a6.2722 6.2722 0 0 1-2.013-2.135 6.2606 6.2606 0 0 1-.821-2.816v.065Z" fill="#C8436B"/><path d="M224.542 163.288c-.318 0-.624-.124-.852-.346a1.2229 1.2229 0 0 1-.369-.843l-.131-4.333a1.7915 1.7915 0 0 1 0-.293l28.472-136.2983a7.9383 7.9383 0 0 1 1.704-3.5289 7.9443 7.9443 0 0 1 3.182-2.286 8.4045 8.4045 0 0 1 7.721.7493c.27.1793.457.4584.522.7761a1.2239 1.2239 0 0 1-.516 1.256 1.2222 1.2222 0 0 1-1.358.0039 5.88 5.88 0 0 0-5.457-.5212 5.4517 5.4517 0 0 0-2.194 1.6305 5.4422 5.4422 0 0 0-1.128 2.4903L225.634 157.831l.13 4.186c.009.326-.111.642-.334.88-.222.238-.53.378-.855.391h-.033Z" fill="#B40439"/><path d="M290.72 117.876c-.157.49-.234 1.001-.228 1.515v6.629l7.248 4.186.375 2.379 1.824-1.141v-6.645a10.3598 10.3598 0 0 0-1.368-4.635 10.3618 10.3618 0 0 0-3.323-3.509 3.4328 3.4328 0 0 0-1.504-.588 3.4414 3.4414 0 0 0-1.607.164c-.18.082-.35.186-.505.31l-1.547.928.635.407Zm2.476 1.238 1.205.619 2.476 3.779.326 2.541c-.323.154-.681.217-1.037.182a1.9712 1.9712 0 0 1-.983-.377 6.2916 6.2916 0 0 1-2.006-2.105 6.2827 6.2827 0 0 1-.844-2.782c-.035-.362.03-.726.188-1.054a1.99 1.99 0 0 1 .708-.803h-.033Z" fill="#CE718D"/><path d="M288.669 120.531v6.646l9.447 5.407v-6.629a10.35 10.35 0 0 0-1.367-4.636 10.352 10.352 0 0 0-3.324-3.508c-2.655-1.45-4.756-.244-4.756 2.72Zm1.84 1.629c0-1.808 1.271-2.541 2.851-1.629a6.2997 6.2997 0 0 1 1.997 2.107c.492.849.778 1.8.837 2.78 0 1.807-1.271 2.524-2.834 1.628a6.263 6.263 0 0 1-2.008-2.103 6.2727 6.2727 0 0 1-.843-2.783Z" fill="#C8436B"/><path d="M291.926 123.594a5.9767 5.9767 0 0 1-4.202-1.743l-1.629-1.629a1.2172 1.2172 0 0 1-.327-.854c.005-.316.133-.618.357-.842.224-.224.526-.352.842-.358.317-.005.623.112.855.328l1.629 1.629a3.5004 3.5004 0 0 0 3.615.83c.156-.064.323-.096.492-.092.168.003.334.041.487.111.153.07.289.172.401.297.112.126.197.274.249.434a1.2023 1.2023 0 0 1-.011.981c-.071.154-.173.291-.3.402-.127.112-.276.195-.438.245-.652.207-1.336.295-2.02.261Z" fill="#B40439"/><path d="m363.447 52.8872 3.746-2.2478 21.728 37.6254-3.746 2.2314-21.728-37.609Z" fill="#980330"/><path d="m363.447 52.887 21.728 37.609-21.858 12.444-21.728-37.609 21.858-12.444Z" fill="#B40439"/><path d="m348.267 67.1392 13.389-7.6065 16.825 29.1393-13.372 7.6228-16.842-29.1556Z" fill="#637B87"/><path d="m348.267 67.1394 1.221-.7004 16.826 29.1555-1.205.7004-16.842-29.1555Z" fill="#263238"/><path d="M428.421 281.148c-.316 0-.619-.122-.847-.341a1.2212 1.2212 0 0 1-.375-.832l-.146-4.333a1.7915 1.7915 0 0 1 0-.293l28.455-136.233a8.1394 8.1394 0 0 1 2.729-4.534 8.1456 8.1456 0 0 1 4.94-1.899 8.1401 8.1401 0 0 1 5.064 1.538 8.1442 8.1442 0 0 1 3.05 4.325l28.048 100.888a1.2259 1.2259 0 0 1-.855 1.507c-.313.086-.648.045-.931-.116-.282-.16-.49-.426-.576-.739l-27.95-100.872a5.7017 5.7017 0 0 0-2.138-3.02 5.6992 5.6992 0 0 0-3.542-1.071 5.6984 5.6984 0 0 0-3.453 1.329 5.6925 5.6925 0 0 0-1.91 3.169l-28.423 136.087.13 4.186c.005.16-.023.32-.08.47-.058.149-.144.287-.254.403-.111.117-.243.21-.39.275-.146.066-.304.102-.465.106h-.081Z" fill="#B40439"/><path d="M359.619 36.5667a9.5451 9.5451 0 0 0-6.749 2.7956 9.545 9.545 0 0 0-2.796 6.7491v29.2045c0 3.0621 4.268 5.5542 9.545 5.5542 5.278 0 9.529-2.4921 9.529-5.5542V46.1114a9.53 9.53 0 0 0-.721-3.6514 9.5303 9.5303 0 0 0-2.064-3.0968 9.5335 9.5335 0 0 0-3.094-2.0697 9.5236 9.5236 0 0 0-3.65-.7268Z" fill="#637B87"/><path d="M396.431 309.131h-73.638v5.228c0 11.841 16.483 21.435 36.827 21.435 20.344 0 36.811-9.594 36.811-21.435v-5.228Z" fill="#980330"/><path d="M359.62 330.712c20.339 0 36.827-9.597 36.827-21.435s-16.488-21.435-36.827-21.435-36.827 9.597-36.827 21.435 16.488 21.435 36.827 21.435Z" fill="#7E96A1"/><path d="M371.754 287.418h-24.269s-12.135 18.927-12.135 18.992c0 7.802 10.864 14.122 24.269 14.122 13.405 0 24.253-6.32 24.253-14.122 0-.065-12.118-18.992-12.118-18.992Z" fill="#637B87"/><path d="M347.485 287.468c0 3.909 5.44 7.069 12.134 7.069 6.695 0 12.135-3.16 12.135-7.069 0-3.91-5.44-7.053-12.135-7.053-6.694 0-12.134 3.16-12.134 7.053Z" fill="#B40439"/><path d="M369.148 90.0403h-19.057V286.751c0 3.062 4.267 5.538 9.528 5.538s9.529-2.476 9.529-5.538V90.0403Z" fill="#637B87"/><path d="M479.922 139.198c-3.713.977-8.144 0-12.607-2.574a40.162 40.162 0 0 1-11.581-10.587 58.7937 58.7937 0 0 0-16.988-15.588l-69.485-40.1172-8.144 4.6909 69.485 40.1173a59.2736 59.2736 0 0 1 17.005 15.588 39.9121 39.9121 0 0 0 11.564 10.587c4.447 2.557 8.894 3.551 12.623 2.574l13.454 9.952 8.063-4.691-13.389-9.952Z" fill="#728A96"/><path d="m471.859 143.888 13.454 9.952 8.063-4.69-13.454-9.952-8.063 4.69ZM455.734 126.037a58.7937 58.7937 0 0 0-16.988-15.588l-69.485-40.1172-8.144 4.6909 69.485 40.1173a59.2736 59.2736 0 0 1 17.005 15.588l8.127-4.691Z" fill="#7E96A1"/><path d="M430.667 115.14a59.2736 59.2736 0 0 1 17.005 15.588 39.8994 39.8994 0 0 0 11.564 10.587c4.447 2.557 8.893 3.551 12.623 2.573l13.454 9.952-7.883 2.069c-5.375 1.417-11.809 0-18.243-3.73a57.8183 57.8183 0 0 1-16.695-15.262 41.2995 41.2995 0 0 0-11.858-10.88l-69.501-34.2051V74.9575l69.534 40.1825Z" fill="#637B87"/><path d="M356.899 48.3918c2.537 0 4.594-2.0565 4.594-4.5933 0-2.5367-2.057-4.5932-4.594-4.5932-2.536 0-4.593 2.0565-4.593 4.5932 0 2.5368 2.057 4.5933 4.593 4.5933Z" fill="#7E96A1"/><path d="M415.861 271.359c0 19.871 21.077 35.98 47.105 35.98 26.028 0 47.105-16.109 47.105-35.98h-94.21Z" fill="#C8436B"/><path d="M412.132 265.007h101.914v4.349c0 16.386-22.803 29.677-50.949 29.677-28.145 0-50.965-13.291-50.965-29.677v-4.349Z" fill="#E19BB0"/><path d="M463.065 294.895c28.148 0 50.966-13.286 50.966-29.676s-22.818-29.677-50.966-29.677c-28.147 0-50.965 13.287-50.965 29.677s22.818 29.676 50.965 29.676Z" fill="#E19BB0"/><path d="M463.065 292.517c25.764 0 46.649-12.163 46.649-27.168 0-15.005-20.885-27.169-46.649-27.169-25.763 0-46.649 12.164-46.649 27.169s20.886 27.168 46.649 27.168Z" fill="#C46380"/><path d="M492.921 266.163a.8054.8054 0 0 1-.474-.151.8044.8044 0 0 1-.292-.403 6.51 6.51 0 0 0-1.84-2.117.8269.8269 0 0 1-.197-.25.8144.8144 0 0 1-.086-.306.8225.8225 0 0 1 .038-.315.8138.8138 0 0 1 .155-.277c.07-.082.155-.148.25-.197a.8144.8144 0 0 1 .306-.086c.106-.008.214.005.315.038.102.033.196.086.278.155a7.6695 7.6695 0 0 1 2.312 2.834.811.811 0 0 1-.042.617.8083.8083 0 0 1-.463.409.7228.7228 0 0 1-.26.049ZM486.78 261a.861.861 0 0 1-.391-.098c-.895-.488-1.873-.945-2.866-1.384-.1-.04-.19-.098-.267-.173a.8015.8015 0 0 1-.177-.264.7876.7876 0 0 1-.061-.311c0-.107.023-.213.065-.311a.8301.8301 0 0 1 .448-.439.8345.8345 0 0 1 .627-.001c1.042.456 2.052.929 2.997 1.45a.8015.8015 0 0 1 .401.473c.032.102.043.209.033.315a.7905.7905 0 0 1-.092.303.8166.8166 0 0 1-.297.32.8187.8187 0 0 1-.42.12Zm-7.541-3.046h-.228c-.994-.293-2.02-.554-3.111-.814a.771.771 0 0 1-.29-.124.7735.7735 0 0 1-.218-.227.786.786 0 0 1-.095-.61.7946.7946 0 0 1 .123-.292.8057.8057 0 0 1 .522-.336.8008.8008 0 0 1 .316.009c1.124.244 2.199.537 3.258.83.207.061.382.201.486.391.104.189.128.412.068.619-.06.17-.173.316-.323.416-.15.1-.328.148-.508.138Zm-7.965-1.629h-.098c-1.042-.13-2.101-.244-3.257-.326a.8144.8144 0 0 1-.557-.284.8116.8116 0 0 1-.192-.595.8164.8164 0 0 1 .284-.557.816.816 0 0 1 .595-.192c1.124.081 2.231.195 3.258.342.216.015.417.115.559.279a.815.815 0 0 1 .198.592.8133.8133 0 0 1-.279.559.8157.8157 0 0 1-.592.199l.081-.017Zm-8.144-.537h-.098a.8145.8145 0 0 1-.576-.239.8177.8177 0 0 1-.238-.576c0-.216.086-.423.238-.576.153-.152.36-.238.576-.238.22.003.43.089.59.24.16.15.257.355.274.574a.78.78 0 0 1-.223.516.7826.7826 0 0 1-.51.234l-.033.065Z" fill="#B40439"/><path d="M463.065 243.93c-24.106 0-43.978 10.636-46.388 24.286-.176-.946-.264-1.906-.261-2.867 0-15.001 20.881-27.169 46.649-27.169s46.649 12.168 46.649 27.169c-.002.962-.095 1.922-.277 2.867-2.459-13.65-22.282-24.286-46.372-24.286Z" fill="#D5879F"/><path d="M428.665 281.197c-.305.001-.6-.112-.826-.317a1.2244 1.2244 0 0 1-.396-.791c-.023-.322.079-.641.286-.89.206-.249.5-.408.822-.445l1.091-.098a2.6693 2.6693 0 0 0 1.501-.624c.423-.36.724-.841.861-1.379l.228-.896c.097-.294.302-.54.573-.689.271-.149.589-.189.889-.112.3.076.56.264.726.524.167.261.229.575.174.879l-.228.896a5.118 5.118 0 0 1-1.636 2.638 5.1137 5.1137 0 0 1-2.86 1.206l-1.091.098h-.114Z" fill="#B40439"/><path d="M424.723 274.16a4.7735 4.7735 0 0 0-.212 1.515v6.629l7.232 4.186.309 2.378 1.841-1.14v-6.645a10.3737 10.3737 0 0 0-1.369-4.635 10.3493 10.3493 0 0 0-3.322-3.509 3.4376 3.4376 0 0 0-1.504-.588 3.4414 3.4414 0 0 0-1.607.164c-.178.078-.343.182-.489.31l-1.547.928.668.407Zm2.492 1.238 1.205.603 2.476 3.795.326 2.541c-.323.154-.682.217-1.037.182a1.9712 1.9712 0 0 1-.983-.377 6.2404 6.2404 0 0 1-2.011-2.102 6.2339 6.2339 0 0 1-.839-2.785 1.945 1.945 0 0 1 .169-1.05c.152-.328.392-.607.694-.807Z" fill="#E16F91"/><path d="M422.67 276.896v6.516l9.382 5.407v-6.629c-.083-1.631-.552-3.22-1.367-4.635a10.3557 10.3557 0 0 0-3.324-3.509c-2.59-1.401-4.691-.195-4.691 2.85Zm1.857 1.629c0-1.808 1.27-2.541 2.834-1.629a6.2821 6.2821 0 0 1 2.007 2.104c.495.849.784 1.802.843 2.783 0 1.808-1.27 2.525-2.85 1.629a6.2897 6.2897 0 0 1-2.026-2.165c-.493-.873-.77-1.85-.808-2.852v.13Z" fill="#C8436B"/><path d="M428.421 281.148c-.316 0-.619-.122-.847-.341a1.2193 1.2193 0 0 1-.375-.832l-.146-4.333a1.7915 1.7915 0 0 1 0-.293l28.455-136.233c.264-1.3.85-2.513 1.703-3.529a7.965 7.965 0 0 1 3.183-2.286 8.3671 8.3671 0 0 1 3.952-.573c1.345.13 2.638.584 3.769 1.323.133.088.248.203.338.336.089.133.152.282.184.44.031.157.032.319.001.476-.031.158-.093.308-.181.442-.089.133-.203.248-.336.338a1.225 1.225 0 0 1-.44.183c-.158.032-.32.033-.477.002a1.229 1.229 0 0 1-.441-.181 5.8774 5.8774 0 0 0-2.664-.936 5.889 5.889 0 0 0-2.793.414c-.854.338-1.609.888-2.193 1.597a5.4309 5.4309 0 0 0-1.146 2.459l-28.406 136.087.13 4.186a1.2183 1.2183 0 0 1-.724 1.148c-.146.066-.304.102-.465.106h-.081Z" fill="#B40439"/><path d="M494.647 235.753c-.158.483-.235.99-.228 1.498v6.646l7.248 4.186.31 2.378 1.824-1.157v-6.613c-.083-1.631-.552-3.22-1.367-4.635a10.3365 10.3365 0 0 0-3.324-3.509 3.5034 3.5034 0 0 0-1.503-.59 3.4835 3.4835 0 0 0-1.608.151c-.177.081-.346.18-.505.293l-1.547.945.7.407Zm2.476 1.238 1.205.602 2.476 3.795.326 2.541a2.019 2.019 0 0 1-1.036.175 2.028 2.028 0 0 1-.984-.37 6.305 6.305 0 0 1-2.002-2.107c-.495-.848-.786-1.8-.848-2.779-.039-.359.022-.722.174-1.049.152-.327.39-.606.689-.808Z" fill="#E16F91"/><path d="M492.595 238.408v6.629l9.382 5.424v-6.646a10.335 10.335 0 0 0-1.365-4.636 10.3302 10.3302 0 0 0-3.326-3.508c-2.59-1.433-4.691-.244-4.691 2.737Zm1.841 1.629c0-1.792 1.27-2.525 2.85-1.629.824.534 1.51 1.255 2.002 2.104.492.849.778 1.802.832 2.782 0 1.808-1.27 2.525-2.834 1.629a6.23 6.23 0 0 1-2.027-2.129 6.2251 6.2251 0 0 1-.823-2.823v.066Z" fill="#C8436B"/><path d="M495.869 241.454a5.963 5.963 0 0 1-4.218-1.726l-1.629-1.629c-.229-.229-.357-.54-.357-.864 0-.323.128-.634.357-.863a1.19 1.19 0 0 1 .395-.269 1.2023 1.2023 0 0 1 .937 0c.148.062.282.154.394.269l1.629 1.629c.466.46 1.052.781 1.692.925.639.144 1.306.106 1.924-.111.156-.062.323-.091.49-.087.168.005.333.043.485.113.153.07.289.17.401.295.113.124.199.27.253.429.064.155.096.322.093.491-.003.168-.041.334-.112.487-.07.153-.171.289-.297.401-.126.112-.273.197-.433.249a5.694 5.694 0 0 1-2.004.261Z" fill="#B40439"/><path d="m355.515 57.5618 3.746-2.2315 21.712 37.6091-3.746 2.2315-21.712-37.6091Z" fill="#980330"/><path d="m355.515 57.562 21.712 37.6091-21.859 12.4599-21.728-37.6249 21.875-12.4441Z" fill="#B40439"/><path d="m340.334 71.8303 13.373-7.6228 16.825 29.1556-13.356 7.6229-16.842-29.1557Z" fill="#D53465"/><path d="m340.334 71.8302 1.206-.7167 16.841 29.1555-1.205.717-16.842-29.1558Z" fill="#980330"/><path d="M192.96 340.909v24.839a5.3773 5.3773 0 0 0 2.861 4.758 5.3787 5.3787 0 0 0 5.543-.311l71.945-54.793v-44.271a3.6014 3.6014 0 0 0-1.924-3.182 3.603 3.603 0 0 0-1.886-.408c-.654.039-1.286.255-1.826.625l-61.406 47.512a30.6175 30.6175 0 0 0-9.773 10.97 30.6158 30.6158 0 0 0-3.534 14.261Z" fill="#7E96A1"/><path d="M192.96 365.748v-24.839c.003-4.97 1.216-9.864 3.535-14.26a30.5972 30.5972 0 0 1 9.772-10.97l61.406-47.512a3.53 3.53 0 0 1 1.71-.621c.614-.055 1.232.053 1.792.311l-127.796-73.882a3.5855 3.5855 0 0 0-1.806-.319c-.619.051-1.215.262-1.728.612L78.4388 241.78a30.6056 30.6056 0 0 0-13.3073 25.23v24.856a5.325 5.325 0 0 0 .9607 3.074 5.3212 5.3212 0 0 0 2.5575 1.959l127.3723 73.752a5.2863 5.2863 0 0 1-2.259-1.996 5.2908 5.2908 0 0 1-.803-2.907Z" fill="#BAC5CB"/><path d="m210.943 363.647 2.883-1.906-.668 3.127-2.215-1.221Z" fill="#37474F"/><path d="M214.949 358.972v-22.298c0-7.248 4.414-17.428 11.793-22.478l50.851-46.258c.45-.311.974-.501 1.519-.549a3.158 3.158 0 0 1 1.592.272l-1.987-1.254a3.158 3.158 0 0 0-1.592-.272 3.152 3.152 0 0 0-1.519.549l-50.786 46.258c-7.362 5.05-11.776 15.23-11.776 22.478v29.09l-2.004-.912-1.629 1.222 5.652 3.257 2.59-4.854a4.6914 4.6914 0 0 1-1.971-1.731 4.6942 4.6942 0 0 1-.733-2.52Z" fill="#455964"/><path d="M214.949 336.674v31.322l58.035-31.762a22.0614 22.0614 0 0 0 7.049-7.918 22.0618 22.0618 0 0 0 2.544-10.292v-47.447a3.2508 3.2508 0 0 0-.496-1.61c-.304-.484-.73-.879-1.235-1.147a3.2566 3.2566 0 0 0-1.642-.376c-.571.021-1.127.191-1.611.494l-50.851 46.259c-7.379 5.049-11.793 15.229-11.793 22.477Z" fill="#37474F"/><path d="M189.491 335.957v26.94L70.0832 293.755l-.2769-.114a1.8637 1.8637 0 0 1-.9043-.689 1.8551 1.8551 0 0 1-.3336-1.087V267.01l120.9226 68.947Z" fill="#BAC5CB"/><path d="m73.4386 293.609-.2769-.098a1.872 1.872 0 0 1-1.2379-1.792V266.88a27.0407 27.0407 0 0 1 3.1214-12.645 27.0294 27.0294 0 0 1 8.6711-9.718l61.4057-47.431 1.629-.961-1.629-.896-3.371 1.857-61.4226 47.561a27.052 27.052 0 0 0-11.7925 22.363v24.856c-.0052.388.1115.768.3335 1.087.2221.318.5383.559.9044.688l.2769.114 119.4403 69.143v-2.085L73.4386 293.609Z" fill="#637B87"/><path d="m235.977 280.822 17.705-13.698-110.759-64.566-18.193 14.073c-.547.369-.992.872-1.291 1.46-.3.588-.445 1.242-.423 1.902.023.659.213 1.302.553 1.868.339.566.817 1.036 1.389 1.367l99.585 58.067a10.701 10.701 0 0 0 5.785 1.42c2.024-.083 3.983-.74 5.649-1.893ZM80.5566 282.483v15.229l97.5654 56.65v-15.424l-97.5654-56.455Z" fill="#263238"/><g style="mix-blend-mode:multiply"><path d="M82.9835 296.703v-12.395l-2.4269-1.401v14.806l97.5654 56.65v-2.427l-95.1385-55.233Z" fill="#9D9EB3"/></g><path d="M201.251 278.2c-.743.466-1.593.733-2.469.776a5.1283 5.1283 0 0 1-2.532-.532l-8.144-4.674c-.348-.083-.66-.278-.886-.555a1.6342 1.6342 0 0 1-.367-.98c-.011-.358.096-.709.305-1 .209-.291.508-.505.85-.609a5.1184 5.1184 0 0 1 2.469-.776c.875-.043 1.747.14 2.532.532l8.144 4.674c.312.122.581.333.774.607.193.274.302.598.312.933.011.335-.078.665-.253.95-.176.285-.432.513-.735.654ZM217.262 287.386a5.1166 5.1166 0 0 1-5.001.245l-8.144-4.675c-.31-.127-.576-.341-.767-.617-.19-.276-.296-.601-.305-.936-.008-.335.081-.666.257-.951.175-.285.431-.513.734-.656a5.1044 5.1044 0 0 1 2.47-.767c.876-.04 1.747.145 2.53.539l8.144 4.658c.31.127.577.342.767.618.19.276.296.601.305.936.009.335-.08.665-.256.95-.176.286-.431.514-.734.656Z" fill="#263238"/><path d="m201.168 274.03-8.144-4.658a5.1093 5.1093 0 0 0-2.53-.54c-.875.04-1.726.304-2.47.768a1.715 1.715 0 0 0-.731.66 1.725 1.725 0 0 0-.252.952c.011.335.118.659.31.934s.46.488.771.614l8.144 4.674c.784.392 1.656.575 2.532.532a5.118 5.118 0 0 0 2.468-.776c.303-.144.557-.373.731-.66.175-.286.262-.617.252-.952a1.732 1.732 0 0 0-.31-.935c-.192-.274-.46-.488-.771-.613Z" fill="#B40439"/><path d="m217.164 283.217-8.144-4.675a5.1237 5.1237 0 0 0-2.532-.532 5.118 5.118 0 0 0-2.468.776c-.303.143-.558.371-.734.656-.176.286-.265.616-.257.951.009.335.115.66.305.936.191.276.457.49.767.617l8.144 4.659a5.1187 5.1187 0 0 0 5.001-.228 1.7253 1.7253 0 0 0 .99-1.607c-.008-.335-.114-.66-.305-.936-.19-.276-.456-.49-.767-.617Z" fill="#838191"/><path d="M217.261 285.693c-.742.465-1.592.733-2.468.775-.876.043-1.747-.14-2.532-.531l-8.144-4.675c-.25-.124-.471-.3-.648-.517a1.959 1.959 0 0 1-.378-.737c-.074.392-.013.797.174 1.149.186.352.487.63.852.789l8.144 4.659c.783.393 1.654.579 2.53.539a5.115 5.115 0 0 0 2.47-.767c.333-.185.601-.466.77-.806.168-.34.229-.724.175-1.1a2.199 2.199 0 0 1-.945 1.222Z" fill="#455964"/><path d="M201.251 276.506a5.118 5.118 0 0 1-2.468.776 5.112 5.112 0 0 1-2.532-.531l-8.144-4.675a1.9658 1.9658 0 0 1-.659-.513c-.18-.217-.311-.469-.384-.741-.076.393-.013.801.177 1.154.19.353.495.63.866.784l8.144 4.675a5.112 5.112 0 0 0 2.532.531 5.118 5.118 0 0 0 2.468-.776c.337-.179.609-.459.779-.801.169-.341.227-.728.166-1.104-.157.508-.493.942-.945 1.221Z" fill="#B40439"/><path d="M48.8593 311.981v6.287l-2.6386-1.612v-6.288l2.6386 1.613Z" fill="#BAC5CB"/><path d="M48.8434 311.981v6.287l33.8791-19.741v-6.271l-33.8791 19.725Z" fill="#7E96A1"/><path d="m82.722 292.256-33.8791 19.725-2.6223-1.613 33.9116-19.741 2.5898 1.629Z" fill="#E1E6E8"/><path d="M133.77 373.876v3.143l-94.6012-53.587v-3.128l94.6012 53.572Z" fill="#BAC5CB"/><path d="M133.753 373.876v3.143l43.782-25.523v-3.111l-43.782 25.491Z" fill="#7E96A1"/><path d="m177.536 348.385-43.782 25.491-94.5849-53.572 43.8149-25.523 94.552 53.604Z" fill="#E1E6E8"/><path d="M144.65 367.393v6.287l-2.655-1.612v-6.287l2.655 1.612Z" fill="#BAC5CB"/><path d="M144.618 367.393v6.287l33.895-19.758v-6.27l-33.895 19.741Z" fill="#7E96A1"/><path d="m178.513 347.652-33.895 19.741-2.623-1.613 33.912-19.757 2.606 1.629Z" fill="#E1E6E8"/><path d="M247.64 220.508v49.874l-109.635-62.074v-49.874l109.635 62.074Z" fill="#BAC5CB"/><path d="M247.607 220.508v49.874l2.98-1.58V218.96l-2.98 1.548Z" fill="#7E96A1"/><path d="m250.588 218.96-2.981 1.548-109.602-62.074 3.03-1.596 109.553 62.122Z" fill="#E1E6E8"/><path d="M239.479 227.022v43.701l-94.731-53.653v-43.7l94.731 53.652Z" fill="#fff"/><path d="M89.547 397.379.0442 345.697l86.0823-51.307 89.5025 51.682-86.082 51.307Z" fill="#DCE4E8"/><path d="M89.7429 395.148.2401 343.482l85.8706-49.238 89.5023 51.682-85.8701 49.222Z" fill="#fff"/><path d="m128.849 325.615-1.628.928 3.257 1.873 1.629-.928-3.258-1.873Zm-16.89-3.877 21.549 12.428 1.629-.929-21.566-12.362-1.612.863Zm6.271 5.75-1.629.928 9.154 5.261 1.629-.928-9.154-5.261Zm-9.936.114 16.386 9.43 1.628-.928-16.385-9.447-1.629.945Zm42.251 10.522-17.053-9.773-1.629.928 17.053 9.773 1.629-.928Zm-8.795 2.964-13.031-7.541-1.629.945 13.031 7.525 1.629-.929Zm-46.3725-28.96 15.1965 8.747 1.629-.929-15.1967-8.811-1.6288.993Zm11.5315 14.659 1.629-.928-7.15-4.154-1.629.929 7.15 4.153Zm1.157-11.287 17.786 10.261 1.629-.928-17.786-10.245-1.629.912Zm8.779 11.19-14.903-8.649-1.629.928 14.903 8.649 1.629-.928Zm-16.288-9.447-16.2879-9.399-1.6288.929 16.2066 9.398 1.7101-.928Zm-4.8863-6.841-7.802-4.545-1.6288.929 7.802 4.544 1.6288-.928Zm54.7283 29.448 5.765 3.258 1.629-.928-5.766-3.258-1.628.928Zm-70.8697-28.944 18.8452 10.93 1.6285-.945-18.8449-10.913-1.6288.928Zm55.3797 24.058 17.737 10.229 1.629-.945-17.738-10.213-1.628.929Zm6.678 7.851 7.606 4.365 1.629-.928-7.607-4.366-1.628.929Zm-14.497-4.365 18.618 10.717 1.628-.928-18.617-10.718-1.629.929ZM111.487 335.305l-1.629.929 3.258 1.873 1.628-.928-3.257-1.874Zm-16.8909-3.876 21.5489 12.428 1.629-.929-21.6305-12.427-1.5474.928Zm6.2709 5.733-1.6288.929 9.1538 5.261 1.629-.929-9.154-5.261Zm-9.9357.098 16.3857 9.447 1.629-.928-16.3859-9.447-1.6288.928Zm42.2507 10.538-17.069-9.772-1.629.944 17.07 9.773 1.628-.945Zm-8.73 2.949-13.03-7.526-1.629.945 13.03 7.525 1.629-.944Zm-46.4371-28.928 15.1967 8.828 1.6288-.928-15.213-8.845-1.6125.945Zm-6.5152 8.144 22.0865 12.786 1.6288-.928-22.0865-12.786-1.6288.928Zm23.5199 13.715 16.3854 9.447 1.629-.929-16.4019-9.496-1.6125.978Zm-5.3913-7.2 1.6288-.928-7.1505-4.154-1.6288.929 7.1505 4.153Zm1.1564-11.287 17.7863 10.245 1.629-.929-17.7865-10.245-1.6288.929Zm8.7792 11.19-14.9035-8.649-1.6288.928 14.9035 8.649 1.6288-.928Zm-16.288-9.448-16.288-9.316-1.6288.928 16.1903 9.398 1.7265-1.01Zm-4.8864-6.841-7.802-4.544-1.6288.929 7.6391 4.544 1.7917-.929Zm54.7275 29.449 5.766 3.339 1.629-.928-5.929-3.388-1.466.977Zm-63.0344-20.295 1.6288-.944-11.6785-6.776-1.6288.928 11.6785 6.792Zm-7.9811-8.649 18.8452 10.913 1.6288-.928-18.8452-10.913-1.6288.928Zm50.6395 33.293 12.118 6.971 1.629-.928-12.118-6.988-1.629.945Zm4.74-9.235 17.754 10.212 1.629-.928-17.706-10.261-1.677.977Zm6.678 7.851 7.606 4.365 1.629-.929-7.606-4.365-1.629.929Zm-14.464-4.366 18.617 10.718 1.629-.928-18.617-10.718-1.629.928Zm-19.2523-4.984-1.6289.929 9.1539 5.261 1.6288-.929-9.1538-5.261Zm-9.952.098 16.402 9.447 1.6288-.928-16.402-9.447-1.6288.928Zm33.5693 13.454-13.03-7.525-1.6289 1.01 13.0309 7.525 1.628-1.01Zm-34.905-14.285 1.6288-.928-7.1341-4.17-1.6288.929 7.1341 4.169Zm9.9357-.114-14.9035-8.632-1.6288.928 14.9035 8.633 1.6288-.929Zm-16.288-9.447-16.1903-9.382-1.6288.929 16.1577 9.496 1.6614-1.043Zm-21.0116-6.319 18.829 10.913 1.6288-.929-18.829-10.913-1.6288.929Zm62.0579 31.892 7.59 4.365 1.629-.929-7.591-4.365-1.628.929Zm-14.4479-4.317 18.5359 10.734 1.629-.928-18.536-10.734-1.6289.928Z" fill="#7E96A1"/><path d="m44.2333 336.609-1.6288.928 5.7986 3.339 1.6288-.928-5.7986-3.339Zm-8.8932.717 13.0304 7.525 1.6288-.929-13.0304-7.525-1.6288.929Zm29.1067 10.961-13.0304-7.525-1.6288.929 13.0304 7.525 1.6288-.929Zm-15.5388 2.981-13.6982-7.916-1.6288.929 13.6982 7.916 1.6288-.929Zm15.4085-1.254 3.5671 2.069 1.6288-.929-3.5671-2.068-1.6288.928Zm-14.4638-4.365 14.5778 8.421 1.6288-.929-14.5778-8.421-1.6288.929Z" fill="#B40439"/><path d="M79.2681 225.981a.848.848 0 0 1-.3634-.088.839.839 0 0 1-.2882-.238.815.815 0 0 1-.1547-.604.812.812 0 0 1 .3176-.536l1.7754-1.369a.8283.8283 0 0 1 .5995-.155.8278.8278 0 0 1 .5407.302c.0671.084.1167.18.1458.283a.7983.7983 0 0 1-.2924.857l-1.7917 1.368a.7862.7862 0 0 1-.4886.18Zm5.6682-4.349a.7874.7874 0 0 1-.3636-.076.7728.7728 0 0 1-.2879-.234.7999.7999 0 0 1-.1458-.283.7992.7992 0 0 1 .0796-.62.8047.8047 0 0 1 .2128-.237l2.5898-1.922a.8107.8107 0 0 1 .6154-.198.8153.8153 0 0 1 .5657.313.8153.8153 0 0 1 .1595.626.815.815 0 0 1-.3471.546l-2.5898 1.971a.8054.8054 0 0 1-.4886.114Zm6.5152-4.887a.778.778 0 0 1-.3546-.079.7706.7706 0 0 1-.2806-.23.796.796 0 0 1-.1458-.284.7966.7966 0 0 1 .2924-.856l2.5898-1.988a.8177.8177 0 0 1 .6003-.162.8179.8179 0 0 1 .5398.309.8143.8143 0 0 1-.1466 1.14l-2.5898 1.987a.8137.8137 0 0 1-.57.049l.0651.114Zm6.5152-4.886a.8025.8025 0 0 1-.3537-.081.7896.7896 0 0 1-.2815-.229.8296.8296 0 0 1-.1636-.608.831.831 0 0 1 .3102-.548l2.5899-1.971a.8078.8078 0 0 1 .29-.183.8146.8146 0 0 1 .669.048.8169.8169 0 0 1 .405.534c.026.113.027.23.005.343a.823.823 0 0 1-.137.315.8251.8251 0 0 1-.255.23l-2.5734 1.987a.8164.8164 0 0 1-.6189.049l.114.114Zm6.5153-4.887a.8625.8625 0 0 1-.36-.083.8706.8706 0 0 1-.292-.226.8465.8465 0 0 1-.149-.611c.03-.215.142-.411.312-.546l2.59-1.97c.171-.132.387-.19.6-.163.214.028.408.139.54.309.126.174.179.391.148.603a.824.824 0 0 1-.311.537l-2.573 1.987a.81.81 0 0 1-.345.104.8026.8026 0 0 1-.356-.055l.196.114Zm6.515-4.886a.8143.8143 0 0 1-.772-.557.806.806 0 0 1-.005-.5.817.817 0 0 1 .289-.409l2.573-1.971a.817.817 0 0 1 .287-.162.8299.8299 0 0 1 .328-.036c.111.011.218.044.316.098.097.054.182.127.25.215s.117.189.145.297c.027.108.032.22.015.33a.837.837 0 0 1-.117.308.812.812 0 0 1-.23.237l-2.59 1.987a.76.76 0 0 1-.354.033.7598.7598 0 0 1-.33-.131l.195.261Zm6.515-4.886a.8477.8477 0 0 1-.363-.088.8402.8402 0 0 1-.288-.238.8293.8293 0 0 1-.138-.287.825.825 0 0 1-.017-.317.8042.8042 0 0 1 .106-.3.797.797 0 0 1 .212-.236l2.573-1.971a.8283.8283 0 0 1 .287-.163.816.816 0 0 1 .644.063c.097.054.182.127.25.215a.81.81 0 0 1 .145.296c.027.108.032.22.015.33a.8351.8351 0 0 1-.117.309.8244.8244 0 0 1-.23.237l-2.59 1.987a.764.764 0 0 1-.362.001.7596.7596 0 0 1-.322-.164l.195.326Zm6.516-4.887a.814.814 0 0 1-.483-.146.8183.8183 0 0 1-.304-.403.8115.8115 0 0 1-.008-.504c.05-.165.152-.309.29-.413l.163-.114v-2.264a.8282.8282 0 0 1 .243-.571.8282.8282 0 0 1 .571-.243c.216 0 .423.086.576.238.153.153.238.36.238.576v3.062l-.798.619a.87.87 0 0 1-.427-.014.8663.8663 0 0 1-.371-.214l.31.391Zm.472-7.916a.8177.8177 0 0 1-.576-.238.8135.8135 0 0 1-.238-.576v-3.258a.8282.8282 0 0 1 .243-.571.8282.8282 0 0 1 .571-.243c.216 0 .423.086.576.238.153.153.238.36.238.576v3.258a.8035.8035 0 0 1-.175.293.8298.8298 0 0 1-.28.196.8261.8261 0 0 1-.336.063.819.819 0 0 1-.333-.08l.31.342Z" fill="#838191"/><path d="M239.869 519.198a31.536 31.536 0 0 1-3.258-.359.803.803 0 0 1-.299-.108.8013.8013 0 0 1-.235-.214.812.812 0 0 1-.136-.288.8305.8305 0 0 1-.014-.318.8332.8332 0 0 1 .326-.53.8307.8307 0 0 1 .603-.154c1.042.163 2.101.277 3.159.358.108.004.214.03.312.076.097.046.184.111.256.192.071.081.126.175.16.277a.8.8 0 0 1 .038.318.8131.8131 0 0 1-.089.316.8216.8216 0 0 1-.206.255.826.826 0 0 1-.29.153.8402.8402 0 0 1-.327.026Zm4.886 0a.8145.8145 0 0 1-.576-.239.8177.8177 0 0 1-.238-.576c0-.216.086-.423.238-.576.153-.152.36-.238.576-.238 1.075-.082 2.134-.212 3.16-.391a.8207.8207 0 0 1 .32.007c.105.024.204.068.292.13s.162.141.219.232a.807.807 0 0 1 .114.299.8293.8293 0 0 1-.143.607.8233.8233 0 0 1-.525.337c-1.075.18-2.199.326-3.258.408h-.179Zm-12.884-1.417a.5475.5475 0 0 1-.228 0 30.3863 30.3863 0 0 1-3.159-1.108.8104.8104 0 0 1-.499-.431.794.794 0 0 1-.078-.328.8175.8175 0 0 1 .061-.331c.043-.105.108-.2.19-.278.082-.078.18-.139.287-.177.107-.039.22-.055.334-.046.113.008.223.039.323.092.978.391 1.988.75 2.997 1.043.105.03.202.08.287.148.085.068.155.153.207.248.051.096.083.201.094.309.01.108-.001.217-.034.321a.8322.8322 0 0 1-.782.538Zm20.833-.212a.8323.8323 0 0 1-.568-.178.8276.8276 0 0 1-.303-.512.8284.8284 0 0 1 .117-.584.825.825 0 0 1 .477-.355 25.791 25.791 0 0 0 2.899-1.238.8136.8136 0 0 1 1.011.384c.092.177.117.381.069.575a.814.814 0 0 1-.331.474c-1.001.516-2.035.968-3.094 1.352a.777.777 0 0 1-.277.082Zm-28.276-3.062a.9245.9245 0 0 1-.407-.098l-2.818-1.629a.8092.8092 0 0 1-.318-.491.8081.8081 0 0 1 .093-.577.8106.8106 0 0 1 .455-.366c.192-.062.4-.05.584.033l2.818 1.629a.8129.8129 0 0 1 .309 1.108.8195.8195 0 0 1-.307.289.8224.8224 0 0 1-.409.102Zm35.524-.652a.8226.8226 0 0 1-.491-.17.8161.8161 0 0 1 .084-1.345l2.834-1.628a.8182.8182 0 0 1 .614-.082c.207.055.385.19.494.375a.8484.8484 0 0 1-.31 1.124l-2.834 1.628a.8103.8103 0 0 1-.391.098Zm-42.561-3.42a.7.7 0 0 1-.407-.114l-2.834-1.629a.8138.8138 0 0 1-.374-.494.8133.8133 0 0 1 .081-.614.8146.8146 0 0 1 .493-.374.8127.8127 0 0 1 .614.081l2.835 1.629c.152.091.271.229.338.393.067.165.079.347.033.519a.8249.8249 0 0 1-.288.432.8171.8171 0 0 1-.491.171Zm49.63-.619a.8576.8576 0 0 1-.411-.111.8432.8432 0 0 1-.306-.296.8375.8375 0 0 1-.068-.617.8309.8309 0 0 1 .378-.491l2.834-1.629a.8183.8183 0 0 1 .601-.048c.199.062.366.197.469.379a.812.812 0 0 1 .08.597.8105.8105 0 0 1-.352.489l-2.818 1.629a.9278.9278 0 0 1-.407.098Zm7.069-4.023a.8004.8004 0 0 1-.409-.116.7907.7907 0 0 1-.291-.308.795.795 0 0 1-.107-.299.8074.8074 0 0 1 .019-.317c.027-.103.075-.2.14-.284a.8147.8147 0 0 1 .241-.208l2.834-1.628c.188-.106.41-.132.618-.074.207.058.383.195.49.383.055.092.091.193.106.299a.788.788 0 0 1-.019.317c-.027.103-.075.2-.14.285a.8135.8135 0 0 1-.241.207l-2.834 1.629a.9046.9046 0 0 1-.407.114Zm7.069-4.04a.8164.8164 0 0 1-.404-.11.8183.8183 0 0 1-.296-.297.8267.8267 0 0 1-.076-.625c.058-.211.196-.39.385-.499l2.818-1.629a.8456.8456 0 0 1 .624-.069c.209.057.388.193.5.379.105.188.132.41.074.617a.8128.8128 0 0 1-.384.49l-2.834 1.629a.731.731 0 0 1-.407.114Zm7.085-4.039a.8297.8297 0 0 1-.412-.109.82.82 0 0 1-.304-.298.8134.8134 0 0 1 .309-1.108l2.834-1.629c.189-.101.41-.125.616-.068a.83.83 0 0 1 .492.378c.054.092.09.195.103.301.014.107.007.215-.022.318a.7996.7996 0 0 1-.391.488l-2.817 1.629a.766.766 0 0 1-.408.098Zm7.069-4.04a.8132.8132 0 0 1-.778-.603.8147.8147 0 0 1 .371-.912l2.834-1.628a.8012.8012 0 0 1 .299-.107.8063.8063 0 0 1 .317.019c.103.027.2.075.285.141.084.065.155.147.207.24.107.188.137.411.082.622-.054.21-.189.39-.375.502l-2.834 1.629a.931.931 0 0 1-.408.097Zm7.069-4.039a.8193.8193 0 0 1-.404-.11.8183.8183 0 0 1-.296-.297.8133.8133 0 0 1-.081-.614.8138.8138 0 0 1 .374-.494l2.834-1.629a.7995.7995 0 0 1 .299-.106.806.806 0 0 1 .317.018c.103.028.2.076.285.141.084.066.155.147.207.24.107.189.137.412.082.622-.054.21-.189.39-.375.502l-2.834 1.629a.8893.8893 0 0 1-.408.098Zm7.086-4.023a.8056.8056 0 0 1-.418-.111.7964.7964 0 0 1-.299-.313.8126.8126 0 0 1-.074-.618.8157.8157 0 0 1 .383-.489l2.818-1.629a.8519.8519 0 0 1 .624-.07.851.851 0 0 1 .5.379c.101.189.126.41.068.616a.8322.8322 0 0 1-.377.492l-2.834 1.629a.8545.8545 0 0 1-.343.114h-.048Z" fill="#D67592"/><path d="M121.178 171.578c.063 1.175.403 2.319.992 3.337a7.4666 7.4666 0 0 0 2.396 2.527c.442.272.946.429 1.466.456 1.058 0 1.726-.88 1.726-2.264a7.4815 7.4815 0 0 0-1.001-3.339 7.491 7.491 0 0 0-2.403-2.525 3.0385 3.0385 0 0 0-1.466-.456c-1.059.081-1.71.88-1.71 2.264Z" fill="#838191"/><path d="M206.397 505.434c0 1.482 2.069 2.688 4.61 2.688 2.541 0 4.609-1.206 4.609-2.688 0-1.482-2.052-2.671-4.609-2.671-2.558 0-4.61 1.189-4.61 2.671Z" fill="#D67592"/><path d="M43.2561 394.399c0 1.498 2.0686 2.687 4.6095 2.687 2.541 0 4.6095-1.189 4.6095-2.687 0-1.499-2.0523-2.671-4.6095-2.671s-4.6095 1.189-4.6095 2.671Z" fill="#B40439"/><path d="M324.941 342.244c0 1.483 2.069 2.688 4.61 2.688 2.541 0 4.609-1.205 4.609-2.688 0-1.482-2.052-2.687-4.609-2.687s-4.61 1.205-4.61 2.687Z" fill="#838191"/><path d="m310.835 479.715 5.799 3.877 3.876-6.581-9.675 2.704Z" fill="#D67592"/><path d="m395.062 336.674 5.798 3.876 3.877-6.58-9.675 2.704ZM81.7288 227.251l-5.7986-3.86-3.8765 6.58 9.6751-2.72Z" fill="#838191"/><path d="m117.382 437.855 5.799-3.876 3.876 6.58-9.675-2.704Z" fill="#B40439"/><path d="M120.25 437.041a.932.932 0 0 1-.408-.098l-2.817-1.629a.8256.8256 0 0 1-.376-.502.8307.8307 0 0 1 .082-.621.8025.8025 0 0 1 .208-.241.7946.7946 0 0 1 .284-.14.788.788 0 0 1 .317-.019c.106.015.207.051.299.106l2.818 1.629c.187.106.325.282.383.49.058.208.032.43-.074.618a.82.82 0 0 1-.304.298.8297.8297 0 0 1-.412.109Zm-7.053-4.072a.7675.7675 0 0 1-.407-.114l-2.818-1.629a.7904.7904 0 0 1-.242-.211.8085.8085 0 0 1-.142-.288.8092.8092 0 0 1-.02-.321c.015-.107.051-.21.107-.303a.8021.8021 0 0 1 .215-.238.7986.7986 0 0 1 .29-.137.8075.8075 0 0 1 .321-.014.829.829 0 0 1 .301.111l2.818 1.629c.154.092.274.231.341.397.066.167.076.35.028.523a.8178.8178 0 0 1-.295.432.816.816 0 0 1-.497.163Zm-7.037-4.072a.7333.7333 0 0 1-.407-.114l-2.818-1.629a.8148.8148 0 0 1-.383-.49.8106.8106 0 0 1 .074-.617.8258.8258 0 0 1 .498-.385.833.833 0 0 1 .626.075l2.818 1.629c.152.091.271.229.338.393.067.165.079.347.033.519a.8249.8249 0 0 1-.288.432.8171.8171 0 0 1-.491.171v.016Zm-7.0523-4.072a.8957.8957 0 0 1-.4072-.114l-2.8179-1.629a.8468.8468 0 0 1-.3094-1.124.8266.8266 0 0 1 .5021-.375.828.828 0 0 1 .6217.082l2.8179 1.629a.8308.8308 0 0 1 .2932 1.124.8199.8199 0 0 1-.296.297.8202.8202 0 0 1-.4044.11Zm-7.0527-4.088a.7694.7694 0 0 1-.4072-.114l-2.8179-1.629a.8174.8174 0 0 1-.3179-.491.8132.8132 0 0 1 .0929-.577.813.813 0 0 1 .4557-.366c.192-.062.4-.05.5837.033l2.8179 1.629a.8178.8178 0 0 1 .3388.393.816.816 0 0 1 .0321.519.8163.8163 0 0 1-.7781.603Zm-7.0528-4.072a.77.77 0 0 1-.4072-.114l-2.8178-1.629a.817.817 0 0 1-.3179-.491.8137.8137 0 0 1 .5486-.943c.192-.062.4-.05.5837.033l2.8178 1.629a.8134.8134 0 0 1 .3837.49.813.813 0 0 1-.0742.617.8396.8396 0 0 1-.3055.297.8586.8586 0 0 1-.4112.111Zm-7.0527-4.072a.9827.9827 0 0 1-.4072-.114l-2.8178-1.629a.8163.8163 0 0 1-.3818-.496.8172.8172 0 0 1 .5759-1.002.8198.8198 0 0 1 .6203.081l2.8178 1.629a.846.846 0 0 1 .3095 1.123.8233.8233 0 0 1-.3043.299.8287.8287 0 0 1-.4124.109Zm-7.0527-4.089a.928.928 0 0 1-.4072-.097l-2.8178-1.629a.8306.8306 0 0 1-.2932-1.124.7933.7933 0 0 1 .2072-.24.7844.7844 0 0 1 .2845-.141.806.806 0 0 1 .3168-.019.8004.8004 0 0 1 .2991.107l2.8341 1.629a.8133.8133 0 0 1 .3688.919.8111.8111 0 0 1-.2952.432.8103.8103 0 0 1-.4971.163Zm-7.0364-4.072a.7328.7328 0 0 1-.4072-.114l-2.8342-1.629a.8136.8136 0 0 1-.2422-.21.8143.8143 0 0 1-.1418-.289.8103.8103 0 0 1-.0194-.32.8182.8182 0 0 1 .1062-.304.8051.8051 0 0 1 .2151-.238.8075.8075 0 0 1 .2906-.137.826.826 0 0 1 .3209-.014.8149.8149 0 0 1 .3013.112l2.8179 1.628a.8156.8156 0 0 1 .3709.912.815.815 0 0 1-.2877.433.814.814 0 0 1-.4904.17Zm-7.0528-4.072a.733.733 0 0 1-.4072-.114l-2.8178-1.629a.8167.8167 0 0 1-.3013-1.115.819.819 0 0 1 .4954-.382.8149.8149 0 0 1 .6203.08l2.8178 1.629a.8306.8306 0 0 1 .2932 1.124.812.812 0 0 1-.7004.407Zm-7.0527-4.088a.8746.8746 0 0 1-.4072-.098l-.5538-.326a.8084.8084 0 0 1-.2401-.209.8172.8172 0 0 1-.0612-.906.8102.8102 0 0 1 .2098-.24.8095.8095 0 0 1 .2856-.142.8133.8133 0 0 1 .3182-.021.8097.8097 0 0 1 .3021.101l.5538.326a.8153.8153 0 0 1 .371.912.8093.8093 0 0 1-.2877.432.8152.8152 0 0 1-.4905.171ZM473.098 111.215c0-1.483-2.069-2.688-4.61-2.688-2.541 0-4.626 1.205-4.626 2.688 0 1.482 2.069 2.687 4.626 2.687 2.557 0 4.61-1.205 4.61-2.687ZM408.303 73.3776l-5.815 3.8766-3.876-6.5804 9.691 2.7038Z" fill="#B40439"/><path d="M464.726 109.895a.8178.8178 0 0 1-.391-.097l-2.834-1.629a.8114.8114 0 0 1-.241-.207.8073.8073 0 0 1-.159-.602.7841.7841 0 0 1 .107-.299.8331.8331 0 0 1 .491-.377.83.83 0 0 1 .616.068l2.818 1.629c.153.09.272.228.339.393s.078.347.032.518a.8122.8122 0 0 1-.288.433.8047.8047 0 0 1-.49.17Zm-6.988-4.023a.8873.8873 0 0 1-.407-.097l-2.818-1.629a.8218.8218 0 0 1-.259-.202.814.814 0 0 1-.159-.288.8223.8223 0 0 1-.031-.327c.011-.11.045-.217.1-.313a.8036.8036 0 0 1 .216-.248.814.814 0 0 1 .296-.143.824.824 0 0 1 .328-.014c.109.018.214.058.307.118l2.834 1.628a.815.815 0 0 1 .339.394.808.808 0 0 1 .032.518.8161.8161 0 0 1-.287.433.8161.8161 0 0 1-.491.17Zm-7.069-4.055a.9452.9452 0 0 1-.407-.098l-2.818-1.629a.8317.8317 0 0 1-.24-.2098.827.827 0 0 1-.142-.2857.8127.8127 0 0 1-.021-.3181.8123.8123 0 0 1 .102-.3022.8118.8118 0 0 1 .21-.2401.8194.8194 0 0 1 .285-.1416.8172.8172 0 0 1 .318-.0215c.107.0138.21.0484.303.1019l2.817 1.6291c.188.106.326.282.384.49.058.207.031.429-.074.617a.825.825 0 0 1-.338.298.8293.8293 0 0 1-.444.077l.065.033Zm-7.118-4.0888a.7333.7333 0 0 1-.407-.114l-2.818-1.6288a.8158.8158 0 0 1-.383-.4898.8123.8123 0 0 1 .074-.6178.7976.7976 0 0 1 1.107-.3095l2.835 1.6288a.8173.8173 0 0 1 .338.3936.8153.8153 0 0 1 .033.5183.8226.8226 0 0 1-.288.4323.816.816 0 0 1-.491.1706v.0163Zm-6.987-4.0557a.763.763 0 0 1-.407-.114l-2.818-1.6288a.8323.8323 0 0 1-.376-.5022.8284.8284 0 0 1 .083-.6217.7868.7868 0 0 1 .207-.2404.798.798 0 0 1 .9-.0528l2.818 1.6288a.793.793 0 0 1 .245.2042.8007.8007 0 0 1 .145.2838.7942.7942 0 0 1-.081.6196.8237.8237 0 0 1-.301.308.8304.8304 0 0 1-.415.1155Zm-7.134-4.0883a.7365.7365 0 0 1-.408-.114l-2.817-1.6288a.8313.8313 0 0 1-.31-1.1239.8147.8147 0 0 1 1.108-.2932l2.834 1.6288a.8268.8268 0 0 1 .375.5022.828.828 0 0 1-.082.6217.8135.8135 0 0 1-.7.4072Zm-7.069-4.0557a.77.77 0 0 1-.408-.1141l-2.817-1.6288a.8166.8166 0 0 1-.273-.2001.8164.8164 0 0 1-.168-.2937.8326.8326 0 0 1-.034-.3364.8302.8302 0 0 1 .106-.3212.8156.8156 0 0 1 .536-.3876.814.814 0 0 1 .647.1383l2.818 1.6288a.8515.8515 0 0 1 .379.5002.8507.8507 0 0 1-.07.6237.8227.8227 0 0 1-.301.3079.8304.8304 0 0 1-.415.1155v-.0325Zm-6.972-4.0883a.8968.8968 0 0 1-.407-.114l-2.85-1.5148a.8182.8182 0 0 1-.273-.2002.8.8 0 0 1-.167-.2936c-.035-.1086-.047-.2232-.035-.3365a.8307.8307 0 0 1 .106-.3212.8162.8162 0 0 1 .536-.3876.814.814 0 0 1 .647.1383l2.834 1.6288c.185.1088.32.2861.375.4935a.8182.8182 0 0 1-.082.6141.7922.7922 0 0 1-.305.2312.8007.8007 0 0 1-.379.062Zm-7.069-4.0558a.9634.9634 0 0 1-.407-.114l-2.818-1.6288a.7933.7933 0 0 1-.24-.2072.8176.8176 0 0 1-.141-.2845.8057.8057 0 0 1-.018-.3168.7987.7987 0 0 1 .106-.2991.815.815 0 0 1 1.108-.3094l2.818 1.6288c.184.109.319.2852.377.4916a.8304.8304 0 0 1-.068.616.8144.8144 0 0 1-.798.4886l.081-.0652Z" fill="#B40439"/><path d="M533.248 452.971c0-1.482-2.068-2.688-4.609-2.688s-4.61 1.206-4.61 2.688c0 1.482 2.069 2.687 4.61 2.687 2.541 0 4.609-1.221 4.609-2.687ZM488.767 426.975l-5.815 3.877-3.86-6.581 9.675 2.704Z" fill="#838191"/><path d="M524.079 451.179a.9278.9278 0 0 1-.407-.098l-2.818-1.629a.8105.8105 0 0 1-.352-.489.8127.8127 0 0 1 .549-.975.8132.8132 0 0 1 .601.047l2.834 1.629a.83.83 0 0 1 .378.492c.057.206.033.427-.068.616a.8407.8407 0 0 1-.305.299.8337.8337 0 0 1-.412.108Zm-7.069-4.023a.892.892 0 0 1-.407-.114l-2.834-1.629a.7992.7992 0 0 1-.241-.207.799.799 0 0 1-.14-.285.788.788 0 0 1-.019-.317.8057.8057 0 0 1 .106-.299.8352.8352 0 0 1 .492-.377.8306.8306 0 0 1 .616.068l2.834 1.629c.093.052.175.123.241.207a.791.791 0 0 1 .14.285c.027.103.034.211.019.316a.795.795 0 0 1-.107.299.7957.7957 0 0 1-.7.44v-.016Zm-7.069-4.04a.723.723 0 0 1-.407-.114l-2.834-1.628a.833.833 0 0 1-.378-.492.8354.8354 0 0 1 .068-.616.8471.8471 0 0 1 .5-.379.8464.8464 0 0 1 .624.07l2.818 1.628c.189.11.327.289.385.499.058.21.031.435-.076.625a.8121.8121 0 0 1-.293.306.8122.8122 0 0 1-.407.118v-.017Zm-7.085-4.039a.8075.8075 0 0 1-.391-.098l-2.834-1.629a.8117.8117 0 0 1-.26-.201.8133.8133 0 0 1-.158-.288.8081.8081 0 0 1-.032-.328c.012-.11.046-.216.1-.313.055-.096.128-.18.216-.248a.8196.8196 0 0 1 .296-.142.8109.8109 0 0 1 .329-.014c.109.018.213.058.307.117l2.834 1.629a.817.817 0 0 1 .245.204c.067.084.116.181.145.284a.7955.7955 0 0 1-.081.62.819.819 0 0 1-.3.31.803.803 0 0 1-.416.113v-.016Zm-7.069-4.039a.946.946 0 0 1-.408-.098l-2.817-1.629a.8286.8286 0 0 1-.385-.499.831.831 0 0 1 .075-.625.7954.7954 0 0 1 .207-.24.8095.8095 0 0 1 .285-.141.806.806 0 0 1 .317-.018c.106.015.207.051.299.106l2.834 1.629c.187.106.325.282.383.49.058.207.032.429-.074.617a.8438.8438 0 0 1-.302.306.8544.8544 0 0 1-.414.118v-.016Zm-7.102-4.024a.872.872 0 0 1-.407-.097l-2.834-1.629a.8114.8114 0 0 1-.241-.207.8073.8073 0 0 1-.14-.285.788.788 0 0 1-.019-.317.7841.7841 0 0 1 .107-.299.8157.8157 0 0 1 .489-.383c.208-.058.43-.032.618.074l2.834 1.629a.8127.8127 0 0 1 .371.911.8161.8161 0 0 1-.287.433.8097.8097 0 0 1-.491.17ZM359.016 348.678c-1.092 0-2.199 0-3.258-.098a.8031.8031 0 0 1-.308-.08.8124.8124 0 0 1-.254-.192.8298.8298 0 0 1-.161-.275.8286.8286 0 0 1-.043-.316c.005-.106.03-.211.075-.307a.7967.7967 0 0 1 .46-.415c.1-.035.206-.05.312-.044 1.086 0 2.172.033 3.258.098.216 0 .423.086.576.239.153.152.238.36.238.576a.8251.8251 0 0 1-.073.328.8363.8363 0 0 1-.198.273.843.843 0 0 1-.29.171.8251.8251 0 0 1-.334.042Zm4.886 0a.8517.8517 0 0 1-.562-.241.8519.8519 0 0 1-.252-.557.7986.7986 0 0 1 .055-.313c.039-.1.097-.191.172-.268a.8146.8146 0 0 1 .26-.182.8316.8316 0 0 1 .311-.068c1.075 0 2.15-.114 3.257-.195.218-.014.432.059.597.202a.833.833 0 0 1 .283.563.8156.8156 0 0 1-.198.585.8137.8137 0 0 1-.551.279c-1.092.081-2.183.146-3.258.195h-.114Zm-13.03-.391h-.098c-1.091-.098-2.166-.228-3.258-.374a.817.817 0 0 1-.538-.312.8106.8106 0 0 1-.162-.601.794.794 0 0 1 .098-.303.8057.8057 0 0 1 .209-.241.808.808 0 0 1 .287-.14.8116.8116 0 0 1 .318-.016c1.075.147 2.15.261 3.258.375.107.01.211.041.306.092.095.05.179.119.247.203a.814.814 0 0 1 .18.6.8001.8001 0 0 1-.831.652l-.016.065Zm21.174-.293a.8265.8265 0 0 1-.316-.04.8212.8212 0 0 1-.277-.158.8162.8162 0 0 1-.278-.559.8173.8173 0 0 1 .198-.593.8173.8173 0 0 1 .559-.279c1.075-.13 2.134-.293 3.258-.472.216-.037.437.014.616.14.179.127.3.32.336.536a.8227.8227 0 0 1-.14.616c-.127.179-.319.3-.535.337-1.075.179-2.167.342-3.258.472h-.163Zm-29.188-.88h-.163c-1.075-.211-2.15-.439-3.258-.7a.8374.8374 0 0 1-.521-.371.8422.8422 0 0 1-.106-.631c.05-.216.183-.403.371-.521a.8422.8422 0 0 1 .631-.106c1.042.245 2.085.473 3.144.668.107.01.211.04.306.09.095.05.179.118.248.2a.824.824 0 0 1 .153.28c.032.103.043.211.034.318a.8388.8388 0 0 1-.09.306.8165.8165 0 0 1-.201.248.8058.8058 0 0 1-.28.153.8281.8281 0 0 1-.317.034l.049.032Zm37.202-.537a.8195.8195 0 0 1-.904-.725.8195.8195 0 0 1 .725-.904l3.127-.782a.843.843 0 0 1 .638.089c.192.113.332.298.388.514a.843.843 0 0 1-.089.638.8423.8423 0 0 1-.514.388c-1.058.293-2.117.554-3.257.798l-.114-.016Zm-45.118-1.417h-.228c-1.086-.304-2.128-.646-3.127-1.026a.8096.8096 0 0 1-.301-.149.8038.8038 0 0 1-.215-.256.7936.7936 0 0 1-.094-.322.8162.8162 0 0 1 .043-.332.8286.8286 0 0 1 .174-.287.8336.8336 0 0 1 .274-.192.8265.8265 0 0 1 .329-.066c.113.002.224.026.327.073 1.01.358 2.02.684 3.062 1.009.205.064.376.206.476.395.101.189.123.41.062.615a.799.799 0 0 1-.33.369.8055.8055 0 0 1-.485.104l.033.065Zm52.936-.815a.8236.8236 0 0 1-.614-.146.8275.8275 0 0 1-.331-.538.8242.8242 0 0 1 .147-.614.8201.8201 0 0 1 .537-.33c1.027-.359 2.02-.733 3.014-1.141.201-.075.424-.07.621.015a.829.829 0 0 1 .437.442c.04.099.06.205.058.312a.8105.8105 0 0 1-.066.311.794.794 0 0 1-.181.262.788.788 0 0 1-.267.173c-1.009.407-2.036.798-3.094 1.157a.6816.6816 0 0 1-.294.032l.033.065Zm7.509-3.143a.811.811 0 0 1-.509-.176.8164.8164 0 0 1-.288-.455.8101.8101 0 0 1 .059-.535.812.812 0 0 1 .379-.382c.961-.472 1.906-.977 2.818-1.514a.8132.8132 0 0 1 .302-.102.817.817 0 0 1 .319.021c.103.028.2.076.285.142.085.065.157.147.21.24a.8132.8132 0 0 1 .08.62.8228.8228 0 0 1-.141.286.8323.8323 0 0 1-.24.21c-.945.537-1.906 1.058-2.916 1.629a.897.897 0 0 1-.391-.049l.033.065Z" fill="#838191"/><path d="M481.649 401.63H400.73v4.186c0 13.031 18.129 23.585 40.492 23.585 22.364 0 40.509-10.554 40.509-23.585v-.325l-.082-3.861Z" fill="#BAC5CB"/><path d="M441.14 425.378c22.373 0 40.509-10.559 40.509-23.585 0-13.025-18.136-23.585-40.509-23.585-22.372 0-40.508 10.56-40.508 23.585 0 13.026 18.136 23.585 40.508 23.585Z" fill="#E1E6E8"/><path d="M479.369 390.424h-76.293v10.262c0 12.265 17.086 22.217 38.146 22.217 21.061 0 38.147-9.952 38.147-22.217v-10.262Z" fill="#BAC5CB"/><path d="M441.222 412.804c21.068 0 38.147-9.947 38.147-22.217s-17.079-22.217-38.147-22.217c-21.068 0-38.146 9.947-38.146 22.217s17.078 22.217 38.146 22.217Z" fill="#E1E6E8"/><path d="M421.742 388.127c-1.271 6.727 7.052 13.943 18.601 16.142 11.548 2.199 21.94-1.499 23.21-8.144 1.271-6.646-7.053-13.943-18.601-16.125-11.548-2.183-21.94 1.401-23.21 8.127Z" fill="#BAC5CB"/><g style="mix-blend-mode:multiply" opacity=".2"><g style="mix-blend-mode:multiply" opacity=".2"><path d="m467.837 403.846 7.883-4.594 63.523 36.697a15.7751 15.7751 0 0 1-7.899 2.12c-2.774 0-5.499-.731-7.9-2.12l-55.607-32.103Z" fill="#E1E6E8"/></g></g><path d="M538.804 421.241a8.7817 8.7817 0 0 1 2.862 4.218c.515 1.658.528 3.432.035 5.097a8.7747 8.7747 0 0 1-2.802 4.258 8.7728 8.7728 0 0 1-4.695 1.983 8.7714 8.7714 0 0 1-5.006-.959 8.7828 8.7828 0 0 1-3.629-3.579 8.7746 8.7746 0 0 1-1.029-4.992c.158-1.73.825-3.373 1.918-4.723a8.7944 8.7944 0 0 1 5.904-3.201c2.314-.245 4.63.438 6.442 1.898Z" fill="#6C0222"/><path d="m491.942 380.977-13.6 16.777 46.323 37.365c2.687 2.182 7.932.195 11.678-4.431 3.747-4.626 4.626-10.164 1.922-12.346l-46.323-37.365Z" fill="#B40439"/><path d="M491.942 381.01c2.704 2.182 1.841 7.72-1.922 12.346-3.762 4.626-8.974 6.613-11.678 4.43-2.704-2.182-1.841-7.72 1.922-12.346 3.762-4.626 8.974-6.613 11.678-4.43Z" fill="#C3345F"/><path d="m475.069 372.996-8.144 9.984 13.16 10.669c1.629 1.319 4.724.147 6.955-2.622 2.232-2.769 2.753-6.043 1.141-7.346l-13.112-10.685Z" fill="#6C0222"/><path d="m465.149 395.522-32.576-26.061-3.909 4.887-.114.13c-4.186 5.229-.293 15.295 8.698 22.494s19.659 8.779 23.845 3.534l.098-.13 3.958-4.854Z" fill="#7E96A1"/><path d="M465.085 395.55c4.186-5.233.297-15.302-8.687-22.49-8.984-7.187-19.661-8.771-23.848-3.538-4.187 5.233-.297 15.302 8.687 22.49 8.984 7.187 19.661 8.771 23.848 3.538Z" fill="#BAC5CB"/><path d="m465.035 388.274-25.328-20.278-3.046 3.811-.081.098c-3.258 4.072-.228 11.923 6.759 17.51 6.988 5.586 15.311 6.841 18.568 2.769l.082-.114 3.046-3.796Z" fill="#637B87"/><path d="M439.659 368.11c-3.258 4.088-.228 11.923 6.776 17.526s15.31 6.825 18.568 2.753c3.258-4.072.228-11.907-6.776-17.51-7.004-5.603-15.294-6.906-18.568-2.769Z" fill="#D06283"/><path d="M446.451 385.538c-6.923-5.538-9.952-13.275-6.857-17.38l-.114.131c-3.258 4.072-.228 11.906 6.759 17.509 6.988 5.603 15.311 6.825 18.568 2.753l.098-.13c-3.323 3.909-11.532 2.655-18.454-2.883Z" fill="#fff"/><path d="m483.49 368.321-28.374-22.705-3.404 4.267-13.389 16.728c-3.648 4.577-.26 13.356 7.574 19.546 7.835 6.189 17.152 7.639 20.8 3.078l.081-.114 16.712-20.8Z" fill="#7E96A1"/><path d="M455.084 345.681c-3.665 4.561-.261 13.34 7.574 19.546 7.834 6.206 17.135 7.655 20.799 3.078 3.665-4.577.245-13.34-7.59-19.545-7.834-6.206-17.135-7.64-20.783-3.079Z" fill="#BAC5CB"/><path d="m485.803 362.327-25.328-20.278-3.046 3.811-.082.098c-3.257 4.072-.244 11.923 6.76 17.509 7.004 5.587 15.311 6.841 18.568 2.769l.082-.114 3.046-3.795Z" fill="#637B87"/><path d="M460.426 342.049c-3.258 4.088-.228 11.923 6.759 17.526 6.988 5.603 15.311 6.825 18.569 2.753 3.257-4.072.244-11.907-6.76-17.51-7.004-5.603-15.31-6.792-18.568-2.769Z" fill="#D06283"/><path d="M467.218 359.591c-6.923-5.538-9.952-13.275-6.874-17.379l-.098.13c-3.257 4.072-.244 11.907 6.76 17.51 7.004 5.603 15.311 6.825 18.568 2.753l.098-.131c-3.339 3.909-11.532 2.655-18.454-2.883Z" fill="#fff"/><path d="m494.273 359.135-32.576-26.061-3.909 4.886-.115.131c-4.186 5.244-.293 15.31 8.698 22.493 8.991 7.183 19.66 8.78 23.846 3.551l.098-.13 3.958-4.87Z" fill="#7E96A1"/><path d="M494.216 359.15c4.187-5.233.297-15.302-8.687-22.49-8.984-7.187-19.661-8.771-23.848-3.538-4.186 5.233-.297 15.302 8.687 22.489 8.984 7.188 19.662 8.772 23.848 3.539Z" fill="#BAC5CB"/><path opacity=".2" d="m230.959 504.652-80.968-47.235c-5.228-3.013-4.576-8.291 1.45-11.776l122.16-70.511c6.043-3.486 15.165-3.877 20.393-.847l80.984 47.235c5.229 3.03 4.577 8.291-1.466 11.776l-122.16 70.527c-6.027 3.47-15.132 3.844-20.393.831Z" fill="#DCE4E8"/><path d="M361.769 407.608c0-1.515-1.255-3.078-3.388-4.381l-9.952-6.108 2.117-.766c4.691-1.743 5.261-5.342.945-8.144-2.518-1.41-5.292-2.3-8.16-2.619-2.867-.319-5.77-.06-8.535.762l-2.395.896-9.952-6.092a21.3542 21.3542 0 0 0-8.144-2.655 20.9013 20.9013 0 0 0-9.528.766l-8.731 3.258 53.051 32.478 8.714-3.258c2.589-.879 4.006-2.41 3.958-4.137Zm-22.527-14.952c-2.019-1.254-1.922-2.9.228-3.698a9.9025 9.9025 0 0 1 3.869-.353c1.3.14 2.56.537 3.705 1.168 2.02 1.238 1.922 2.883-.228 3.681a9.8574 9.8574 0 0 1-7.574-.798Z" fill="#BAC5CB"/><path d="m231.53 502.991-81.017-47.235c-5.196-2.997-4.544-8.242 1.45-11.712l121.9-70.348c5.994-3.469 15.082-3.844 20.278-.83l81.017 47.235c5.212 3.013 4.544 8.242-1.45 11.711L251.825 502.16c-6.01 3.453-15.099 3.828-20.295.831Z" fill="#263238"/><path d="m231.53 501.33-81.017-47.236c-5.196-2.997-4.544-8.241 1.45-11.711l121.9-70.348c5.994-3.469 15.082-3.844 20.278-.847l81.017 47.236c5.212 2.997 4.544 8.241-1.45 11.711l-121.883 70.348c-6.01 3.469-15.099 3.844-20.295.847Z" fill="#455964"/><path d="m373.708 429.223-121.883 70.348c-6.01 3.469-15.099 3.844-20.295.847l-81.017-47.236a6.2053 6.2053 0 0 1-3.485-4.658c-.212 2.085.928 4.088 3.485 5.57l81.017 47.236c5.196 2.997 14.285 2.622 20.295-.847l121.883-70.348c3.486-2.02 5.147-4.626 4.887-7.053-.179 2.166-1.841 4.381-4.887 6.141Z" fill="#637B87"/><g style="mix-blend-mode:multiply"><path d="m239.673 494.391-83.379-56.406 130.728-63.556 83.379 56.406-130.728 63.556Z" fill="#E1E6E8"/></g><path d="m241.254 492.648-83.379-56.389 130.728-63.556 83.379 56.389-130.728 63.556Z" fill="#F0F8FF"/><g style="mix-blend-mode:multiply"><path d="m240.325 496.248-88.053-50.835 127.161-73.427 88.053 50.851-127.161 73.411Z" fill="#E1E6E8"/></g><path d="m241.726 494.211-87.174-50.346 125.874-72.677 87.174 50.346-125.874 72.677Z" fill="#fff"/><g style="mix-blend-mode:multiply"><path d="M361.28 406.598a6.2343 6.2343 0 0 0-1.201-2.732 6.2443 6.2443 0 0 0-2.333-1.861l-9.936-5.749 1.971-1.141c4.381-2.524 4.691-6.694.358-9.284a17.6076 17.6076 0 0 0-8.048-2.011c-2.805-.02-5.574.63-8.077 1.897l-2.231 1.287-9.952-5.733a17.1771 17.1771 0 0 0-7.949-2.053c-3.15-.152-6.284.546-9.072 2.02l-8.144 3.828 52.985 30.605 8.144-3.844c2.394-1.368 3.665-3.274 3.485-5.229Zm-22.575-14.333c-2.036-1.173-2.036-3.062 0-4.219a8.1479 8.1479 0 0 1 3.657-.867c1.27 0 2.522.297 3.656.867 2.02 1.173 2.036 3.046 0 4.219-1.134.57-2.386.867-3.656.867s-2.522-.297-3.657-.867Z" fill="#E1E6E8"/></g><path d="M360.694 404.839c-.177-.993-.59-1.93-1.205-2.729a6.2779 6.2779 0 0 0-2.33-1.864l-9.936-5.733 1.971-1.141c4.382-2.54 4.691-6.694.359-9.284a17.578 17.578 0 0 0-16.109-.114l-2.248 1.287-9.936-5.75a17.3007 17.3007 0 0 0-7.965-2.036c-3.15-.152-6.284.546-9.072 2.02l-8.144 4.74 53.001 30.589 8.144-4.74c2.378-1.384 3.649-3.29 3.47-5.245Zm-22.576-14.317c-2.019-1.173-2.036-3.062 0-4.219a8.1479 8.1479 0 0 1 3.657-.867c1.27 0 2.522.297 3.657.867 2.019 1.173 2.036 3.063 0 4.219-1.135.57-2.387.867-3.657.867s-2.522-.297-3.657-.867Z" fill="#BAC5CB"/><path d="M345.351 385.489a8.1479 8.1479 0 0 0-3.657-.867c-1.27 0-2.522.297-3.656.867-.483.2-.886.555-1.145 1.009-.26.454-.361.981-.289 1.499.117-.354.304-.68.551-.96.246-.28.546-.508.883-.669a8.1406 8.1406 0 0 1 3.656-.867c1.27 0 2.522.297 3.657.867.347.173.655.413.907.706.252.294.442.636.559 1.005.26-.945-.212-1.89-1.466-2.59ZM349.195 392.542l-1.971 1.14.701.407 1.27-.733c2.476-1.433 3.649-3.371 3.421-5.261a6.097 6.097 0 0 1-1.168 2.641 6.0887 6.0887 0 0 1-2.253 1.806Z" fill="#A4B2B9"/><path d="m357.225 409.27-8.144 4.74-52.301-30.182-.701.407 53.002 30.589 8.144-4.74c2.378-1.384 3.648-3.257 3.469-5.245a6.2667 6.2667 0 0 1-1.21 2.627 6.2696 6.2696 0 0 1-2.259 1.804Z" fill="#7E96A1"/><path d="m351.068 408.911-46.47-26.826 2.004-1.14 46.453 26.826-1.987 1.14Z" fill="#7E96A1"/><path d="m350.596 409.498-46.454-26.827 1.988-1.14 46.453 26.827-1.987 1.14Z" fill="#7E96A1"/><path d="m303.361 407.315 2.134-1.238-4.316-2.492-2.15 1.238 4.332 2.492Zm17.917 2.606-24.204-13.975-2.134 1.238 24.351 13.975 1.987-1.238Zm-41.502-16.19 17.347 10.017 2.15-1.238-17.282-9.968-2.215 1.189Zm58.393 25.93-15.034-8.681-2.15 1.238 15.034 8.681 2.15-1.238Zm-11.695-1.433-19.122-11.027-2.15 1.238 19.203 11.092 2.069-1.303Zm11.402 3.746 4.495 2.59 2.15-1.238-4.495-2.59-2.15 1.238Zm-57.676-30.54-7.688-4.447-2.134 1.238 7.672 4.447 2.15-1.238Zm15.164 3.437-18.308-10.473-2.15 1.238 18.243 10.538 2.215-1.303Z" fill="#B40439"/><path d="m301.13 413.325-1.629.945 3.258 1.873 1.628-.944-3.257-1.874Zm-16.875-3.876 21.549 12.411 1.629-.928-21.549-12.428-1.629.945Zm6.271 5.75-1.629.928 9.138 5.277 1.629-.944-9.138-5.261Zm-9.952.114 16.402 9.447 1.629-.945-16.402-9.431-1.629.929Zm42.251 10.522-17.053-9.773-1.629.928 17.054 9.773 1.628-.928Zm-8.73 2.964-13.03-7.525-1.629.928 13.03 7.526 1.629-.929Zm-46.421-28.96 15.181 8.812 1.628-.929-15.196-8.811-1.613.928Zm-6.515 8.225 22.087 12.787 1.628-.929-22.07-12.721-1.645.863Zm23.471 13.601 16.402 9.447 1.629-.945-16.386-9.43-1.645.928Zm-5.473-7.167 1.629-.928-7.102-4.154-1.628.929 7.101 4.153Zm1.157-11.287 17.802 10.245 1.629-.929-17.786-10.212-1.645.896Zm8.779 11.19-14.904-8.649-1.628.928 14.903 8.649 1.629-.928Zm-16.288-9.448-16.19-9.398-1.629.945 16.19 9.382 1.629-.929Zm-4.887-6.841-7.785-4.544-1.629.929 7.786 4.544 1.628-.929Zm54.631 29.466 5.766 3.257 1.628-.928-5.766-3.274-1.628.945Zm-62.758-20.377 1.629-.928-11.679-6.792-1.629.928 11.679 6.792Zm-7.965-8.649 18.829 10.93 1.629-.929-18.829-10.929-1.629.928Zm50.623 33.293 12.118 6.971 1.629-.928-12.118-6.971-1.629.928Zm4.74-9.235 17.738 10.229 1.628-.929-17.737-10.229-1.629.929Zm6.678 7.851 7.607 4.365 1.628-.929-7.606-4.365-1.629.929Zm-14.447-4.366 18.6 10.734 1.629-.945-18.601-10.717-1.628.928ZM281.274 424.743l-1.629.928 3.258 1.874 1.629-.929-3.258-1.873Zm-16.874-3.877 21.549 12.396 1.628-.929-21.549-12.428-1.628.961Zm6.254 5.75-1.629.929 9.154 5.261 1.629-.929-9.154-5.261Zm-10.001.13 16.402 9.431 1.629-.928-16.402-9.464-1.629.961Zm42.349 10.506-17.053-9.773-1.629.929 17.053 9.74 1.629-.896Zm-8.73 2.965-13.031-7.525-1.628.928 13.03 7.525 1.629-.928Zm-46.437-28.961 15.196 8.812 1.629-.928-15.197-8.812-1.628.928Zm11.532 14.66 1.628-.929-7.15-4.153-1.629.928 7.151 4.154Zm1.156-11.288 17.786 10.245 1.629-.928-17.835-10.229-1.58.912Zm8.779 11.19-14.903-8.649-1.629.928 14.887 8.649 1.645-.928Zm-16.288-9.447-16.206-9.398-1.629.928 16.288 9.398 1.547-.928Zm-4.886-6.841-7.786-4.544-1.629.928 7.786 4.544 1.629-.928Zm54.728 29.449 5.766 3.339 1.628-.929-5.766-3.339-1.628.929Zm-70.805-28.944 18.829 10.929 1.629-.945-18.845-10.913-1.613.929Zm55.38 24.057 17.737 10.229 1.629-.945-17.737-10.212-1.629.928Zm6.678 7.851 7.606 4.365 1.629-.928-7.606-4.365-1.629.928Zm-14.464-4.365 18.471 10.718 1.629-.929-18.618-10.717-1.482.928ZM263.911 434.435l-1.628.928 3.257 1.873 1.629-.928-3.258-1.873Zm-16.89-3.877 21.565 12.477 1.629-.929-21.549-12.427-1.645.879Zm6.271 5.75-1.629.928 9.154 5.261 1.628-.928-9.153-5.261Zm-9.936.097 16.402 9.448 1.629-.929-16.402-9.447-1.629.928Zm42.251 10.539-17.054-9.773-1.628.945 17.053 9.773 1.629-.945Zm-8.665 2.948-13.031-7.525-1.628.945 13.03 7.525 1.629-.945Zm-46.437-28.944 15.196 8.812 1.629-.928-15.197-8.812-1.628.928Zm-6.516 8.226 22.005 12.786 1.629-.929-22.086-12.786-1.548.929Zm23.488 13.584 16.385 9.447 1.629-.929-16.385-9.447-1.629.929Zm-5.473-7.151 1.629-.928-7.151-4.153-1.629.928 7.151 4.153Zm1.156-11.287 17.787 10.245 1.629-.928-17.787-10.246-1.629.929Zm8.78 11.19-14.904-8.649-1.629.928 14.904 8.649 1.629-.928Zm-16.288-9.447-16.207-9.399-1.629.929 16.207 9.398 1.629-.928Zm-4.887-6.841-7.802-4.545-1.629.929 7.721 4.625 1.71-1.009Zm54.728 29.448 5.766 3.339 1.629-.928-5.766-3.339-1.629.928Zm-62.921-20.295 1.629-.928-11.678-6.792-1.629.928 11.678 6.792Zm-7.981-8.648 18.845 10.913 1.629-.929-18.845-10.913-1.629.929Zm50.64 33.292 12.118 6.972 1.629-.929-12.119-6.987-1.628.944Zm4.739-9.235 17.738 10.213 1.629-.929-17.738-10.212-1.629.928Zm6.679 7.851 7.606 4.365 1.629-.928-7.607-4.366-1.628.929Zm-14.464-4.365 18.617 10.717 1.629-.928-18.634-10.767-1.612.978Zm-19.318-4.985-1.629.929 9.154 5.261 1.629-.929-9.154-5.261Zm-9.936.098 16.321 9.447 1.629-.928-16.288-9.496-1.662.977Zm33.505 13.487-13.03-7.525-1.629.928 13.03 7.525 1.629-.928Zm-34.905-14.285 1.629-.928-7.151-4.137-1.629.928 7.151 4.137Zm9.935-.114-14.903-8.633-1.629.929 14.904 8.632 1.628-.928Zm-16.288-9.447-16.19-9.382-1.629.929 16.191 9.398 1.628-.945Zm-21.011-6.32 18.829 10.913 1.629-.928-18.829-10.913-1.629.928Zm62.057 31.99 7.59 4.365 1.629-.945-7.59-4.365-1.629.945Zm-14.464-4.365 18.667 10.636 1.628-.929-18.601-10.717-1.694 1.01ZM196.658 435.737l-1.629.929 5.799 3.339 1.628-.929-5.798-3.339Zm-8.893.717 13.03 7.525 1.629-.928-13.031-7.525-1.628.928Zm29.123 10.962-13.031-7.525-1.629.928 13.031 7.525 1.629-.928Zm-15.637 2.981-13.698-7.916-1.629.928 13.698 7.916 1.629-.928Z" fill="#7E96A1"/><path d="M259.269 462.58a.327.327 0 0 0-.134-.207.3256.3256 0 0 0-.241-.053l-2.573.456.261-.456a21.8862 21.8862 0 0 0-14.383-2.15c-4.886.863-8.681 3.257-9.773 6.205l.619.228c1.01-2.736 4.561-4.886 9.268-5.798 4.699-.896 9.562-.19 13.812 2.003l-25.604 4.496a.327.327 0 0 0-.207.134.3247.3247 0 0 0-.054.24.3244.3244 0 0 0 .326.277l28.439-5a.343.343 0 0 0 .192-.142.3468.3468 0 0 0 .052-.233Zm3.258 5.896-10.18 1.808a.3297.3297 0 0 0-.122.043.3247.3247 0 0 0-.155.332c.015.076.055.145.114.196.059.05.134.079.211.081l7.395-1.303c-.912 2.85-4.479 5.147-9.365 6.01-4.655.881-9.471.2-13.699-1.938l12.656-2.166a.327.327 0 0 0 .207-.134c.049-.07.068-.157.054-.241a.336.336 0 0 0-.043-.122.3248.3248 0 0 0-.086-.095.3224.3224 0 0 0-.117-.055.3295.3295 0 0 0-.129-.005l-15.18 2.606c-.087 0-.169.035-.231.096a.3255.3255 0 0 0-.095.23c0 .086.034.169.095.23.062.061.144.096.231.096l2.394-.407-.293.488a20.7148 20.7148 0 0 0 10.098 2.427c1.387-.005 2.771-.124 4.138-.358 5.163-.912 8.942-3.404 9.886-6.515l-.504-.147 2.655-.472a.3249.3249 0 0 0 .206-.134.3282.3282 0 0 0 .054-.241.3499.3499 0 0 0-.034-.186.348.348 0 0 0-.129-.14l-.032.016Zm2.378-3.615c-2.574-4.773-10.066-7.982-18.634-7.982-1.877.001-3.752.159-5.603.473-6.32 1.124-11.157 3.99-12.949 7.704a6.9143 6.9143 0 0 0-.733 3.278c.028 1.136.336 2.248.896 3.237 2.574 4.773 10.05 7.981 18.617 7.981a32.091 32.091 0 0 0 5.62-.488c6.303-1.108 11.157-3.991 12.949-7.688.517-1.016.776-2.143.753-3.282a6.9109 6.9109 0 0 0-.884-3.25l-.032.017Zm-.424 6.238c-1.71 3.518-6.368 6.254-12.476 7.329a30.9 30.9 0 0 1-5.506.489c-8.144 0-15.62-3.143-18.031-7.639a6.2458 6.2458 0 0 1-.831-2.944 6.243 6.243 0 0 1 .668-2.985c1.711-3.518 6.369-6.271 12.477-7.346 1.813-.313 3.649-.471 5.489-.472 8.144 0 15.62 3.144 18.047 7.639.513.895.799 1.901.833 2.932a6.3253 6.3253 0 0 1-.637 2.981l-.033.016Zm-18.194-13.145c-1.719-.001-3.436.146-5.13.44-5.734 1.01-10.148 3.616-11.776 6.988-.46.914-.686 1.929-.658 2.952a6.193 6.193 0 0 0 .82 2.911c2.33 4.333 9.138 7.249 16.956 7.249a29.623 29.623 0 0 0 5.115-.44c5.749-1.026 10.147-3.632 11.776-6.988.458-.914.684-1.927.659-2.95a6.2336 6.2336 0 0 0-.806-2.913c-2.296-4.349-9.105-7.265-16.923-7.265l-.033.016Zm16.81 13.031c-1.629 3.257-5.897 5.815-11.532 6.808-1.674.286-3.368.433-5.066.44-7.574 0-14.431-2.916-16.679-7.085a5.891 5.891 0 0 1-.768-2.759 5.886 5.886 0 0 1 .622-2.795c1.628-3.258 5.896-5.815 11.548-6.809 1.672-.295 3.367-.442 5.065-.44 7.574 0 14.415 2.916 16.663 7.069.471.833.732 1.767.764 2.723.031.956-.17 1.905-.585 2.766l-.032.082Z" fill="#B40439"/><path d="M237.443 471.197a.4035.4035 0 0 1-.252-.095.4083.4083 0 0 1-.139-.231.4127.4127 0 0 1 .072-.293.4095.4095 0 0 1 .254-.163l19.839-3.746c.05-.012.103-.013.154-.004.051.009.099.029.142.058.043.029.079.067.107.111.027.044.045.093.053.144.012.051.013.105.004.157a.3814.3814 0 0 1-.058.145.3877.3877 0 0 1-.11.111.374.374 0 0 1-.145.059l-19.839 3.747h-.082ZM239.218 468.591a.4035.4035 0 0 1-.252-.095.4083.4083 0 0 1-.139-.231.3951.3951 0 0 1-.004-.157c.01-.052.029-.101.058-.145a.3912.3912 0 0 1 .111-.111c.044-.03.093-.05.145-.059l14.447-2.72a.378.378 0 0 1 .157-.004c.052.009.101.029.146.057.044.029.082.067.111.111.029.044.049.093.059.145a.4264.4264 0 0 1-.071.3.4206.4206 0 0 1-.255.172l-14.431 2.72-.082.017Z" fill="#B40439"/><path d="M220.046 473.054h-.293a.8139.8139 0 0 1-.424-.201.8148.8148 0 0 1-.244-.402c-.83-3.421.359-7.183 3.633-11.483a5.611 5.611 0 0 0-1.629-1.841l-.896-.651A6.5958 6.5958 0 0 1 219.02 461c-.077.1-.176.181-.289.237a.8409.8409 0 0 1-.362.089h-.065a.8187.8187 0 0 1-.387-.216.814.814 0 0 1-.216-.387 12.013 12.013 0 0 1-.326-5.863c.248-.873.687-1.68 1.287-2.362l-2.378.358c.522 1.444.732 2.982.614 4.513-.118 1.53-.561 3.018-1.298 4.364a.7304.7304 0 0 1-.342.326c-.755.37-1.587.554-2.427.538-.421.003-.841-.035-1.254-.114a15.4096 15.4096 0 0 1-1.711 6.515.812.812 0 0 1-.3.31.803.803 0 0 1-.416.113 3.6756 3.6756 0 0 1-1.735-.571c-.52-.333-.949-.792-1.246-1.334a5.7832 5.7832 0 0 1-.505-2.704v-6.515a8.6955 8.6955 0 0 1-1.401-3.128 1.1889 1.1889 0 0 1-.179-.342 9.1912 9.1912 0 0 1-.993-4.104 7.762 7.762 0 0 0-.831-3.519l-.212-.439 1.434-.684.211.439a9.307 9.307 0 0 1 .994 4.121v1.075a.7908.7908 0 0 1 .44-.211l1.482-.163c.226-.012.447.064.619.211.083.083.148.182.19.292.042.109.061.226.054.344 0 1.27-.146 2.541-.195 3.827.242.05.487.089.733.114.623.032 1.233.193 1.791.473.318.212.59.485.8.804.209.319.353.677.422 1.052.195.781.325 1.577.391 2.379.42.11.852.164 1.287.162a3.914 3.914 0 0 0 1.498-.26 9.401 9.401 0 0 0 .983-4.059c.02-1.41-.277-2.806-.869-4.085a.8174.8174 0 0 1 0-.701.7892.7892 0 0 1 .245-.272.8022.8022 0 0 1 .341-.135l7.477-1.107c.201-.02.403.035.565.156.163.12.275.297.314.495a.7938.7938 0 0 1-.133.585.7929.7929 0 0 1-.502.327c-.895.151-1.729.548-2.411 1.146a4.8799 4.8799 0 0 0-1.449 2.242.8088.8088 0 0 1 .472-.195c.18-.01.358.044.504.15a.785.785 0 0 1 .294.436c.079.249.134.506.163.766.373.403.794.759 1.254 1.058l.554.408a7.0262 7.0262 0 0 1 1.629 1.775l.521-.619 1.873-2.117c1.287-1.417 2.59-2.883 3.73-4.398.319-.761.79-1.448 1.385-2.02.254.028.498.111.716.244a53.4652 53.4652 0 0 1-4.642 7.249c-.619.684-1.254 1.384-1.857 2.084l-.944 1.141c.38 1.12.508 2.31.374 3.485a19.3505 19.3505 0 0 1-2.443 6.515c-.189.473-.503.886-.907 1.195a2.83 2.83 0 0 1-1.39.565Zm3.258-10.229c-2.248 3.257-3.258 5.961-2.834 8.486.243-.215.442-.475.586-.766 1.11-1.864 1.882-3.91 2.281-6.043.06-.558.054-1.121-.017-1.677h-.016Zm-16.06-2.753v4.642a4.468 4.468 0 0 0 .31 1.987c.25.445.656.781 1.14.945a13.355 13.355 0 0 0 1.286-5.685 9.4531 9.4531 0 0 1-2.72-1.889h-.016Zm0-2.329c.233.321.495.621.782.896a8.9333 8.9333 0 0 0 1.726 1.449c-.065-.423-.146-.847-.244-1.27-.13-.505-.261-.749-.489-.88-.365-.16-.757-.248-1.156-.26l-.619-.082v.147Zm11.402-1.092c-.025.402-.025.804 0 1.206.041-.319.041-.642 0-.961v-.245Zm-12.77-3.648a3.7734 3.7734 0 0 0-.082 1.71l.098-1.71h-.016Z" fill="#263238"/><path d="M367.535 454.436h-46.324v7.134c0 7.46 10.36 13.487 23.162 13.487s23.162-6.027 23.162-13.487v-7.134Z" fill="#B40439"/><path d="M344.373 468.02c12.792 0 23.162-6.038 23.162-13.486 0-7.449-10.37-13.487-23.162-13.487s-23.162 6.038-23.162 13.487c0 7.448 10.37 13.486 23.162 13.486Z" fill="#D06283"/><path d="M344.373 467.972c-12.656 0-22.934-5.913-23.162-13.243v.245c0 7.443 10.36 13.486 23.162 13.486s23.162-6.043 23.162-13.486v-.245c-.228 7.33-10.506 13.243-23.162 13.243Z" fill="#B40439"/><path d="M356.655 433.115h-24.563v20.882c0 3.958 5.49 7.15 12.282 7.15s12.281-3.257 12.281-7.15V433.115Z" fill="#B40439"/><path d="M344.373 444.924c9.814 0 17.77-7.956 17.77-17.77s-7.956-17.77-17.77-17.77-17.77 7.956-17.77 17.77 7.956 17.77 17.77 17.77Z" fill="#C3345F"/><path d="M347.223 409.644c3.55 1.819 6.383 4.78 8.044 8.406a17.7574 17.7574 0 0 1 1.111 11.581 17.7504 17.7504 0 0 1-6.297 9.783 17.748 17.748 0 0 1-11.002 3.783c-.955-.011-1.908-.099-2.85-.26a17.7511 17.7511 0 0 0 7.361 1.973c2.568.117 5.13-.324 7.51-1.295 2.381-.97 4.522-2.445 6.276-4.324a17.7385 17.7385 0 0 0 3.884-6.557c.805-2.441 1.071-5.027.778-7.581a17.755 17.755 0 0 0-2.473-7.209 17.7528 17.7528 0 0 0-5.267-5.508 17.7576 17.7576 0 0 0-7.091-2.792h.016Z" fill="#B40439"/><path d="M338.721 428.457c3.976 0 7.2-3.223 7.2-7.199s-3.224-7.2-7.2-7.2-7.199 3.224-7.199 7.2 3.223 7.199 7.199 7.199Z" fill="#D06283"/><path d="m161.54 425.411-3.176-3.485-46.942-25.149.896-.994-4.382-3.176-1.58 4.626-.439 2.769 55.623 25.409Z" fill="#637B87"/><path d="M161.54 425.411c-.237.441-.559.83-.947 1.146-.388.317-.834.553-1.314.697-.479.144-.982.192-1.48.141a3.8101 3.8101 0 0 1-1.422-.437l-50.46-26.956s3.143-2.688 3.257-2.672l52.366 28.081Z" fill="#BAC5CB"/><path d="m160.856 426.095-52.448-28.08s-1.498 1.221-2.427 2.019c0 0 3.128-2.687 3.16-2.671l52.464 28.081a3.955 3.955 0 0 1-1.043 1.205c.114-.176.212-.361.294-.554Z" fill="#E1E6E8"/><path d="M225.878 450.072c1.45.765 5.945 1.889 6.711.456.765-1.434-2.46-4.887-3.893-5.669a2.9675 2.9675 0 0 0-2.214-.169 2.964 2.964 0 0 0-1.71 1.416 2.9613 2.9613 0 0 0-.248 2.206c.206.74.692 1.371 1.354 1.76Z" fill="#37474F"/><path d="M200.387 444.664c-7.623-4.007 2.557-23.634 10.88-18.813 8.323 4.821 17.542 17.184 17.542 17.184.587.709.921 1.593.95 2.513.03.92-.247 1.823-.787 2.569-1.156 2.15-2.117 2.752-4.333 2.655 0 0-16.597-2.15-24.252-6.108Z" fill="#BAC5CB"/><path opacity=".5" d="M205.486 442.611c-5.31-2.785-1.971-13.144 3.339-17.558-7.656-.375-15.279 15.946-8.405 19.545 7.623 4.007 24.22 6.222 24.22 6.222.816.136 1.654-.001 2.384-.39a3.7636 3.7636 0 0 0 1.656-1.76c-3.633-.521-16.696-2.638-23.194-6.059Z" fill="#7E96A1"/><path d="m181.541 434.712 10.424-19.351 19.546 10.408h.081c3.111 1.629 3.258 7.363.424 12.705-2.834 5.343-7.737 8.323-10.848 6.646l-19.627-10.408Z" fill="#B40439"/><path opacity=".5" d="M227.311 442.937s-5.538-5.522-11.402-10.815a15.9667 15.9667 0 0 1-1.221 4.886c5.766 4.007 11.401 7.639 11.401 7.639 1.629 1.043 2.313 1.205 2.671.733.359-.472-.293-1.336-1.449-2.443Z" fill="#E1E6E8"/><path d="m206.169 443.165-19.546-10.408-5.065 2.004 19.545 10.408c1.873 1.009 4.398.309 6.727-1.629-.575 0-1.142-.128-1.661-.375Z" fill="#B40439"/><path d="M181.574 434.728c3.111 1.629 7.965-1.287 10.848-6.629 2.883-5.343 2.687-11.043-.424-12.721-3.111-1.678-7.965 1.303-10.831 6.645-2.867 5.343-2.704 11.027.407 12.705Z" fill="url(#a)"/><path d="m110.411 396.5 10.425-19.351 71.276 38.408c3.111 1.628 3.258 7.362.424 12.704-2.834 5.343-7.737 8.307-10.848 6.63L110.411 396.5Z" fill="#BAC5CB"/><path opacity=".5" d="m186.819 432.936-71.342-38.44 8.437-15.685-3.078-1.629-10.425 19.35 71.277 38.359c1.889 1.009 4.398.325 6.727-1.548-.555-.02-1.1-.159-1.596-.407Z" fill="#7E96A1"/><path d="M110.444 396.516c3.111 1.629 7.965-1.287 10.848-6.629 2.883-5.343 2.687-11.043-.424-12.721-3.111-1.678-7.965 1.303-10.848 6.646-2.883 5.342-2.687 11.027.424 12.704Z" fill="#E1E6E8"/><path d="M120.836 389.789c2.883-5.342 2.704-11.027-.407-12.704l-.228-.098c.355.078.7.198 1.026.358 3.111 1.629 3.258 7.379.423 12.721-2.834 5.343-7.508 8.144-10.636 6.727 3.046.636 7.249-2.215 9.822-7.004Z" fill="#F0F8FF"/><path d="m99.0266 388.128 8.8444-16.418 11.076 6.173h.081c2.639 1.417 2.786 6.254.359 10.783-2.427 4.528-6.516 7.052-9.203 5.635l-11.1574-6.173Z" fill="#B40439"/><path d="M99.0586 388.144c2.6384 1.434 6.7594-1.091 9.2024-5.619 2.444-4.528 2.281-9.366-.358-10.799-2.639-1.433-6.76 1.107-9.2027 5.636-2.4432 4.528-2.2803 9.365.3583 10.782Z" fill="#D67592"/><path opacity=".5" d="M107.903 382.329c2.231-4.12 2.28-8.486.276-10.31h.18c2.638 1.417 2.801 6.238.358 10.783-2.443 4.544-6.515 7.052-9.2028 5.619a2.5252 2.5252 0 0 1-.6352-.456c2.639 1.319 6.629-1.189 9.024-5.636Z" fill="#B40439"/><path style="mix-blend-mode:multiply" opacity=".2" d="m140.219 500.043 72.4-43.18s.603-.325.863-.439a121.7483 121.7483 0 0 1 16.712-7.086c1.156-.391 1.743 0 1.45 1.32a6.3902 6.3902 0 0 1-2.509 3.681s-10.717 8.86-17.64 13.454c-.364.317-.756.601-1.173.847l-72.774 43.7 2.671-12.297Z" fill="url(#b)"/><path style="mix-blend-mode:multiply" d="m190.19 472.712 32.462-19.367.391-.195a53.7425 53.7425 0 0 1 7.493-3.176c.521-.163.26 1.628-.489 2.247 0 0-4.805 3.991-7.916 6.043-.163.145-.337.275-.521.391l-32.576 19.546 1.156-5.489Z" fill="url(#c)"/><path opacity=".5" d="m123.084 387.867 70.038 37.332c.571-1.63.809-3.358.701-5.081l-69.697-37.153a15.6678 15.6678 0 0 1-1.042 4.902Z" fill="#E1E6E8"/><path d="m109.662 381.434 9.773 5.195c.583-1.427.882-2.954.88-4.495a3.9466 3.9466 0 0 1 0-.407l-9.513-5.066c-.09 1.646-.477 3.263-1.14 4.773ZM194.507 425.981l17.916 9.529c.55-1.503.826-3.092.815-4.691.008-.114.008-.228 0-.342L195.5 421.03a14.9647 14.9647 0 0 1-.993 4.951Z" fill="#B40439"/><path opacity=".2" d="M374.669 483.038c-2.15-1.254-2.15-3.258 0-4.495l17.673-10.197a12.009 12.009 0 0 1 5.424-1.295c1.884 0 3.743.444 5.424 1.295 2.997 1.727 3.013 4.545 0 6.255l-15.783 9.121c-.188.092-.394.14-.603.14-.209 0-.415-.048-.603-.14-.342-.195-.342-.505 0-.7l15.783-9.105c2.313-1.352 2.297-3.535 0-4.887a9.3884 9.3884 0 0 0-4.218-1.002c-1.465 0-2.91.344-4.219 1.002l-17.672 10.213c-1.482.847-1.466 2.231 0 3.095.833.422 1.753.642 2.687.642.934 0 1.855-.22 2.688-.642l16.923-9.773c.668-.391.652-1.01 0-1.401a2.6504 2.6504 0 0 0-1.213-.293c-.422 0-.838.1-1.214.293l-14.089 8.144c-.081 0-.081.114 0 .163.042.024.09.037.138.037.049 0 .097-.013.139-.037l10.359-5.978a1.33 1.33 0 0 1 .603-.145c.209 0 .416.05.602.145.326.179.342.505 0 .684l-10.359 5.994c-.417.21-.877.319-1.344.319-.466 0-.926-.109-1.343-.319-.733-.439-.75-1.124 0-1.547l14.089-8.144a5.3743 5.3743 0 0 1 2.443-.587c.849 0 1.687.201 2.443.587a1.4825 1.4825 0 0 1 0 2.802l-16.923 9.772a8.6243 8.6243 0 0 1-3.919.932 8.6411 8.6411 0 0 1-3.916-.948Z" fill="#DCE4E8"/><path d="M374.669 482.582c-2.15-1.254-2.15-3.258 0-4.496l17.673-10.196a12.009 12.009 0 0 1 5.424-1.295c1.884 0 3.743.444 5.424 1.295 2.997 1.727 3.013 4.545 0 6.255l-15.783 9.121a1.3183 1.3183 0 0 1-1.206 0c-.342-.195-.342-.505 0-.7l15.783-9.105c2.313-1.352 2.297-3.535 0-4.887a9.3359 9.3359 0 0 0-4.218-1.008c-1.466 0-2.911.346-4.219 1.008l-17.705 10.294c-.326.107-.609.315-.811.593-.201.277-.309.612-.309.955 0 .343.108.677.309.955.202.278.485.485.811.592.833.422 1.754.642 2.688.642.934 0 1.854-.22 2.687-.642l16.923-9.773c.668-.391.652-1.01 0-1.401a2.663 2.663 0 0 0-1.213-.293c-.422 0-.838.101-1.213.293l-14.09 8.144c-.081 0-.081.115 0 .163.043.025.09.037.139.037.048 0 .096-.012.138-.037l10.359-5.977a1.3183 1.3183 0 0 1 1.206 0c.326.195.342.505 0 .684l-10.359 5.994a2.999 2.999 0 0 1-2.688 0c-.733-.44-.749-1.124 0-1.548l14.089-8.144c.756-.39 1.593-.593 2.443-.593.851 0 1.688.203 2.444.593.293.097.548.283.729.533.181.25.279.551.279.86 0 .309-.098.61-.279.86-.181.25-.436.436-.729.533l-16.924 9.772c-1.216.597-2.556.9-3.91.886a8.701 8.701 0 0 1-3.892-.967Z" fill="#455964"/><path d="M398.141 470.268a2.6575 2.6575 0 0 0-1.214-.293c-.422 0-.838.1-1.213.293l-14.089 8.144c-.082 0-.082.114 0 .147a.277.277 0 0 0 .138.037.277.277 0 0 0 .138-.037l10.36-5.978c.128-.059.266-.092.407-.097l3.046-1.76a2.663 2.663 0 0 1 1.213-.293c.422 0 .838.101 1.214.293a.998.998 0 0 1 .439.473c.131-.326 0-.668-.439-.929Z" fill="#263238"/><path d="M380.419 479.715a2.998 2.998 0 0 0 2.687 0l10.36-5.994c.276-.146.309-.374.146-.57a.4892.4892 0 0 1-.146.114l-10.36 5.994a2.998 2.998 0 0 1-2.687 0 1.0568 1.0568 0 0 1-.472-.554.812.812 0 0 0 .036.599.819.819 0 0 0 .436.411Z" fill="#263238"/><path d="M401.952 468.151a9.2753 9.2753 0 0 0-4.219-1.014c-1.466 0-2.912.347-4.218 1.014l-17.673 10.196c-.343.144-.63.394-.821.714-.19.319-.274.691-.238 1.061.066-.285.195-.552.378-.781.184-.228.416-.412.681-.538l17.673-10.196a9.323 9.323 0 0 1 4.218-1.008c1.466 0 2.911.345 4.219 1.008.443.209.831.521 1.131.909.3.387.504.841.595 1.322a2.8433 2.8433 0 0 0-.451-1.608 2.8507 2.8507 0 0 0-1.275-1.079ZM403.19 473.721l-15.783 9.105c-.187.096-.393.146-.603.146-.209 0-.416-.05-.602-.146a.5375.5375 0 0 1-.147-.13c-.163.195-.13.423.147.586.186.096.393.146.602.146.21 0 .416-.05.603-.146l15.783-9.121a3.6184 3.6184 0 0 0 2.183-3.339 3.9172 3.9172 0 0 1-.735 1.718c-.38.505-.877.91-1.448 1.181Z" fill="#263238"/><path d="M400.307 471.213c-.065.249-.183.482-.346.681-.163.2-.368.362-.599.476l-16.923 9.772a8.669 8.669 0 0 1-3.893.922 8.669 8.669 0 0 1-3.893-.922 2.86 2.86 0 0 1-1.059-.822c-.283-.354-.478-.77-.57-1.214a2.635 2.635 0 0 0 .43 1.498c.29.445.708.791 1.199.995 1.208.606 2.541.921 3.893.921 1.352 0 2.685-.315 3.893-.921l16.923-9.773c.304-.14.558-.369.727-.658.169-.288.245-.622.218-.955Z" fill="#263238"/><path opacity=".2" d="M445.246 468.884c2.15-1.238 2.166-3.258 0-4.496l-17.672-10.196a12.0152 12.0152 0 0 0-5.424-1.295c-1.885 0-3.743.444-5.424 1.295-2.997 1.743-3.014 4.545 0 6.271l15.783 9.105a1.3152 1.3152 0 0 0 1.205 0c.326-.195.342-.505 0-.7l-15.783-9.105c-2.313-1.336-2.297-3.535 0-4.887a9.2881 9.2881 0 0 1 4.219-1.014c1.466 0 2.912.348 4.218 1.014l17.673 10.197c.326.107.609.314.81.592.202.278.31.612.31.955 0 .343-.108.677-.31.955-.201.278-.484.485-.81.592-.833.422-1.754.642-2.688.642-.934 0-1.854-.22-2.687-.642l-16.924-9.773c-.667-.374-.667-1.009 0-1.4a2.6514 2.6514 0 0 1 2.427 0l14.089 8.144c.082 0 .082.114 0 .146a.267.267 0 0 1-.138.037.267.267 0 0 1-.138-.037l-10.327-5.961a1.3183 1.3183 0 0 0-.603-.146c-.209 0-.416.05-.602.146-.342.195-.342.505 0 .7l10.359 5.978a2.998 2.998 0 0 0 2.687 0 .8196.8196 0 0 0 .406-.296.8173.8173 0 0 0 0-.955.8136.8136 0 0 0-.406-.296l-14.089-8.144a5.3244 5.3244 0 0 0-2.443-.594c-.85 0-1.688.204-2.443.594-.294.096-.549.283-.73.533-.181.25-.278.551-.278.859 0 .309.097.61.278.86.181.25.436.436.73.533l16.923 9.773a8.661 8.661 0 0 0 3.899.938 8.6581 8.6581 0 0 0 3.903-.922Z" fill="#E0E0E0"/><path d="M445.247 468.33c2.15-1.238 2.166-3.258 0-4.495l-17.673-10.197a12.009 12.009 0 0 0-5.424-1.295c-1.884 0-3.742.444-5.424 1.295-2.997 1.727-3.013 4.545 0 6.271l15.784 9.105c.186.096.393.146.602.146.21 0 .416-.05.603-.146.326-.195.342-.505 0-.7l-15.783-9.105c-2.313-1.336-2.297-3.535 0-4.887a9.2861 9.2861 0 0 1 4.218-1.013c1.467 0 2.913.347 4.219 1.013l17.672 10.197c.326.107.61.314.811.592.201.278.31.612.31.955 0 .343-.109.677-.31.955-.201.278-.485.485-.811.592-.832.422-1.753.642-2.687.642-.934 0-1.855-.22-2.688-.642l-16.923-9.772c-.668-.391-.668-1.01 0-1.401a2.6514 2.6514 0 0 1 2.427 0l14.089 8.144c.082 0 .082.13 0 .163a.2797.2797 0 0 1-.138.037.2806.2806 0 0 1-.139-.037l-10.359-5.978a1.3152 1.3152 0 0 0-1.205 0c-.342.195-.342.505 0 .684l10.359 5.994a2.999 2.999 0 0 0 2.688 0c.733-.44.733-1.124 0-1.547l-14.09-8.144a5.3244 5.3244 0 0 0-2.443-.594c-.85 0-1.688.204-2.443.594-.293.096-.549.283-.73.533-.181.25-.278.551-.278.859 0 .309.097.61.278.86.181.25.437.437.73.533l16.923 9.773c1.213.619 2.554.943 3.916.946a8.648 8.648 0 0 0 3.919-.93Z" fill="#B40439"/><path d="m444.074 464.209-17.672-10.196a9.3301 9.3301 0 0 0-4.219-1.008c-1.466 0-2.911.345-4.219 1.008-.516.219-.956.587-1.264 1.057-.307.47-.468 1.02-.462 1.581.088-.483.29-.938.591-1.326.3-.388.69-.699 1.135-.905a9.2912 9.2912 0 0 1 4.219-1.014c1.466 0 2.912.348 4.219 1.014l17.672 10.196c.268.128.504.314.69.545.187.231.318.502.385.791.025-.367-.065-.732-.258-1.044a1.756 1.756 0 0 0-.817-.699Z" fill="#90032E"/><path d="M421.775 456.472c.375-.193.791-.293 1.213-.293.422 0 .838.1 1.214.293l3.257 1.841h.261l10.359 5.977a.2715.2715 0 0 0 .277 0c.081 0 .081-.114 0-.146L424.267 456a2.6514 2.6514 0 0 0-2.427 0 .7327.7327 0 0 0-.44.912.979.979 0 0 1 .375-.44Z" fill="#90032E"/><path d="M439.496 465.056a2.998 2.998 0 0 1-2.687 0l-10.359-5.978a.4763.4763 0 0 1-.163-.146c-.147.179-.098.391.163.537l10.359 5.994c.417.21.877.319 1.344.319.466 0 .926-.109 1.343-.319.457-.277.603-.635.489-.977-.088.243-.262.446-.489.57ZM433.878 468.477c-.043.06-.099.11-.163.146a1.3183 1.3183 0 0 1-1.206 0l-15.783-9.105a3.865 3.865 0 0 1-1.457-1.184c-.38-.509-.63-1.103-.725-1.731.014.694.227 1.371.614 1.948a3.622 3.622 0 0 0 1.568 1.309l15.783 9.105a1.3183 1.3183 0 0 0 1.206 0c.26-.081.309-.309.163-.488Z" fill="#90032E"/><path d="M445.247 467.923a8.5803 8.5803 0 0 1-3.884.929c-1.35 0-2.681-.318-3.885-.929l-16.923-9.773a1.786 1.786 0 0 1-.614-.487 1.7798 1.7798 0 0 1-.347-.702c-.03.338.047.676.219.968.173.292.432.523.742.661l16.923 9.773a8.661 8.661 0 0 0 3.885.921 8.657 8.657 0 0 0 3.884-.921c.487-.2.903-.541 1.193-.979.291-.439.443-.955.436-1.481-.091.442-.286.856-.57 1.207-.283.352-.646.63-1.059.813Z" fill="#90032E"/><path opacity=".2" d="M454.481 473.314c-2.802.424-5.994-.423-7.118-1.905l-9.284-12.282c-1.629-2.068.342-4.251 4.235-4.886 3.893-.635 8.355.603 9.919 2.671l8.307 10.962c.163.228 0 .472-.472.538a1.306 1.306 0 0 1-1.108-.294l-8.291-10.961c-1.221-1.629-4.674-2.541-7.72-2.069-3.046.472-4.512 2.15-3.258 3.763l9.268 12.281c.659.58 1.442 1.001 2.289 1.23.848.228 1.737.259 2.598.089 1.938-.309 2.883-1.384 2.101-2.411l-8.893-11.743a2.5362 2.5362 0 0 0-1.036-.566 2.5447 2.5447 0 0 0-1.18-.037c-.879.13-1.303.619-.944 1.091l7.394 9.773c.042.018.086.027.131.027.045 0 .089-.009.13-.027.098 0 .147 0 .098-.114l-5.31-7.101c-.179-.228 0-.473.472-.538.192-.039.391-.032.58.019.19.051.365.145.512.274l5.456 7.216c.391.505 0 1.042-1.059 1.189-.43.085-.873.071-1.297-.042a2.853 2.853 0 0 1-1.146-.61l-7.411-9.772c-.7-.929.147-1.906 1.889-2.167.78-.161 1.588-.138 2.357.068.769.207 1.48.591 2.074 1.121l8.877 11.744c1.058 1.482-.293 3.03-3.16 3.469Z" fill="#DCE4E8"/><path d="M454.481 472.76c-2.802.424-5.994-.423-7.118-1.905l-9.284-12.282c-1.629-2.068.342-4.251 4.235-4.886 3.893-.635 8.355.603 9.919 2.671l8.307 10.962c.163.228 0 .472-.472.538-.195.038-.396.032-.588-.019-.192-.05-.37-.145-.52-.275l-8.291-10.961c-1.221-1.629-4.674-2.541-7.72-2.085-3.046.456-4.512 2.166-3.258 3.779l9.268 12.281c.659.58 1.442 1.001 2.289 1.23.848.228 1.737.259 2.598.089 1.938-.309 2.883-1.384 2.101-2.411l-8.893-11.743a2.548 2.548 0 0 0-1.036-.566 2.5447 2.5447 0 0 0-1.18-.037c-.879.13-1.303.619-.944 1.091l7.394 9.773c.042.018.086.027.131.027.045 0 .089-.009.13-.027.098 0 .147 0 .098-.13l-5.31-7.085c-.179-.228 0-.473.472-.538a1.2773 1.2773 0 0 1 1.092.293l5.456 7.216c.391.505 0 1.042-1.059 1.189-.43.085-.873.071-1.297-.042a2.853 2.853 0 0 1-1.146-.61l-7.411-9.772c-.7-.913.147-1.89 1.889-2.15.78-.162 1.588-.139 2.357.068.769.206 1.48.59 2.074 1.121l8.877 11.743c1.058 1.417-.293 3.046-3.16 3.453Z" fill="#455964"/><path d="M446.336 460.397c-.13.114-.195.261-.081.391l5.131 6.776a.285.285 0 0 0 .211 0c.098 0 .147 0 .098-.13l-5.359-7.037ZM456.011 469.096l-8.893-11.744a2.5409 2.5409 0 0 0-2.215-.603c-.831.131-1.238.57-.978 1.01.12-.146.269-.267.437-.354.168-.086.352-.138.541-.151a2.5409 2.5409 0 0 1 2.215.603l8.893 11.743c.101.145.178.304.228.473.04-.17.041-.346.001-.516a1.1183 1.1183 0 0 0-.229-.461Z" fill="#263238"/><path d="M460.507 467.239a.9749.9749 0 0 1-.374.146 1.298 1.298 0 0 1-.588-.018 1.306 1.306 0 0 1-.52-.275l-8.291-11.027c-1.221-1.629-4.674-2.541-7.72-2.085-2.476.391-3.877 1.629-3.681 2.883.195-1.091 1.531-2.036 3.681-2.378 3.046-.456 6.515.473 7.72 2.085l8.291 10.962c.15.13.328.224.52.275.192.051.393.057.588.018.423 0 .635-.309.472-.537l-.098-.049Z" fill="#263238"/><path d="m442.379 458.492 7.411 9.773c.33.288.722.497 1.146.61.423.112.867.127 1.297.041.912-.13 1.352-.619 1.092-1.091-.125.175-.289.319-.478.42-.189.102-.399.159-.614.166-.43.086-.874.072-1.297-.041a2.8654 2.8654 0 0 1-1.146-.61l-7.411-9.773c-.084-.12-.15-.251-.195-.391a.9476.9476 0 0 0-.016.473c.034.156.106.302.211.423Z" fill="#263238"/><path d="M454.481 472.255c-2.802.424-5.994-.423-7.118-1.905l-9.284-12.282c-.28-.356-.45-.786-.489-1.237-.042.308-.02.622.064.922.084.299.228.579.425.82l9.284 12.282c1.124 1.482 4.316 2.329 7.118 1.905 2.28-.358 3.583-1.466 3.387-2.671-.13.994-1.368 1.857-3.387 2.166Z" fill="#263238"/><defs><radialGradient id="b" cx="0" cy="0" r="1" gradientUnits="userSpaceOnUse" gradientTransform="rotate(137.42 -8.4607 286.6807) scale(38.8279 14.7623)"><stop stop-color="#DAEBF2"/><stop offset="1" stop-color="#fff"/></radialGradient><radialGradient id="c" cx="0" cy="0" r="1" gradientUnits="userSpaceOnUse" gradientTransform="matrix(1117.05 0 0 755.073 231434 -228539)"><stop stop-color="#DAEBF2"/><stop offset="1" stop-color="#fff"/></radialGradient><linearGradient id="a" x1="185.337" y1="403.585" x2="188.057" y2="443.654" gradientUnits="userSpaceOnUse"><stop stop-color="#D6DAE6"/><stop offset=".01" stop-color="#D4D8E6"/><stop offset=".28" stop-color="#B4B8E3"/><stop offset=".4" stop-color="#9A9FC8"/><stop offset=".53" stop-color="#838AB0"/><stop offset=".65" stop-color="#757DA1"/><stop offset=".76" stop-color="#70789C"/><stop offset=".85" stop-color="#777EA2"/><stop offset=".99" stop-color="#898EB3"/><stop offset="1" stop-color="#8B90B5"/></linearGradient></defs></svg>