<svg width="245" height="61" viewBox="0 0 245 61" fill="none" xmlns="http://www.w3.org/2000/svg"><path d="M84.376 31.3839c-2.2826 0-4.352-.4906-6.208-1.472-1.8346-1.0026-3.2853-2.3786-4.352-4.128-1.0453-1.7706-1.568-3.7653-1.568-5.984 0-2.2186.5227-4.2026 1.568-5.952 1.0667-1.7706 2.5174-3.1466 4.352-4.128 1.856-1.0026 3.936-1.504 6.24-1.504 1.9414 0 3.6907.3414 5.248 1.024 1.5787.6827 2.9014 1.664 3.968 2.944l-3.328 3.072c-1.5146-1.7493-3.392-2.624-5.632-2.624-1.3866 0-2.624.3094-3.712.928-1.088.5974-1.9413 1.44-2.56 2.528-.5973 1.088-.896 2.3254-.896 3.712 0 1.3867.2987 2.624.896 3.712.6187 1.088 1.472 1.9414 2.56 2.56 1.088.5974 2.3254.896 3.712.896 2.24 0 4.1174-.8853 5.632-2.656l3.328 3.072c-1.0666 1.3014-2.3893 2.2934-3.968 2.976-1.5786.6827-3.3386 1.024-5.28 1.024ZM113.904 12.8239h-7.168v18.176h-5.12v-18.176H94.48v-4.224h19.424v4.224ZM127.535 31.3839c-2.326 0-4.427-.5013-6.304-1.504-1.856-1.0026-3.318-2.3786-4.384-4.128-1.046-1.7706-1.568-3.7546-1.568-5.952 0-2.1973.522-4.1706 1.568-5.92 1.066-1.7706 2.528-3.1573 4.384-4.16 1.877-1.0026 3.978-1.504 6.304-1.504 2.325 0 4.416.5014 6.272 1.504 1.856 1.0027 3.317 2.3894 4.384 4.16 1.066 1.7494 1.6 3.7227 1.6 5.92 0 2.1974-.534 4.1814-1.6 5.952-1.067 1.7494-2.528 3.1254-4.384 4.128-1.856 1.0027-3.947 1.504-6.272 1.504Zm0-4.416c1.322 0 2.517-.2986 3.584-.896 1.066-.6186 1.898-1.472 2.496-2.56.618-1.088.928-2.3253.928-3.712 0-1.3866-.31-2.624-.928-3.712-.598-1.088-1.43-1.9306-2.496-2.528-1.067-.6186-2.262-.928-3.584-.928-1.323 0-2.518.3094-3.584.928-1.067.5974-1.91 1.44-2.528 2.528-.598 1.088-.896 2.3254-.896 3.712 0 1.3867.298 2.624.896 3.712.618 1.088 1.461 1.9414 2.528 2.56 1.066.5974 2.261.896 3.584.896ZM163.127 8.6v22.3999h-5.12v-18.176h-7.68l-.16 4.672c-.107 3.1787-.363 5.76-.768 7.744-.405 1.9627-1.088 3.4774-2.048 4.544-.939 1.0454-2.261 1.568-3.968 1.568-.704 0-1.557-.1173-2.56-.352l.32-4.384c.277.0854.587.128.928.128 1.237 0 2.101-.7253 2.592-2.176.491-1.472.8-3.7653.928-6.88l.32-9.088h17.216ZM168.722 8.6h5.152v14.5919l10.688-14.592h4.864V31h-5.12v-14.56l-10.688 14.56h-4.896v-22.4ZM218.491 26.7759v8.96h-4.768v-4.736h-18.72v-22.4h5.152v18.176h9.984V8.5999h5.152v18.176h3.2ZM237.265 26.1999h-10.4l-1.984 4.8h-5.312l9.984-22.4h5.12L244.689 31h-5.44l-1.984-4.8Zm-1.632-3.936-3.552-8.576-3.552 8.576h7.104ZM80.9282 41.704c1.056 0 2.0107.2453 2.864.736.8533.4906 1.52 1.1733 2 2.048.4906.864.736 1.8346.736 2.912 0 1.0773-.2454 2.0533-.736 2.928-.48.864-1.1467 1.5413-2 2.032-.8533.4906-1.808.736-2.864.736-1.0027 0-1.9147-.224-2.736-.672-.8213-.448-1.4827-1.072-1.984-1.872-.5013-.8-.784-1.7014-.848-2.704h-2.304V53h-1.168V41.8h1.168v4.976h2.32c.0853-.9707.3787-1.84.88-2.608.512-.7787 1.1733-1.3814 1.984-1.808.8107-.4374 1.7067-.656 2.688-.656Zm0 10.336c.832 0 1.584-.1974 2.256-.592.672-.4054 1.2-.96 1.584-1.664.384-.704.576-1.4987.576-2.384 0-.8854-.192-1.68-.576-2.384-.384-.704-.912-1.2534-1.584-1.648-.672-.4054-1.424-.608-2.256-.608-.8214 0-1.568.2026-2.24.608-.672.3946-1.2.944-1.584 1.648-.384.704-.576 1.4986-.576 2.384 0 .8853.192 1.68.576 2.384.384.704.912 1.2586 1.584 1.664.672.3946 1.4186.592 2.24.592ZM93.4209 44.52c.7894 0 1.504.1813 2.144.544.64.352 1.1414.8533 1.504 1.504.3627.6506.544 1.392.544 2.224 0 .8426-.1813 1.5893-.544 2.24-.3626.6506-.864 1.1573-1.504 1.52-.6293.352-1.344.528-2.144.528-.6826 0-1.3013-.1387-1.856-.416-.544-.288-.992-.704-1.344-1.248v4.688h-1.136v-11.52h1.088v1.664c.3414-.5547.7894-.9814 1.344-1.28.5654-.2987 1.2-.448 1.904-.448Zm-.08 7.552c.5867 0 1.12-.1334 1.6-.4.48-.2774.8534-.6667 1.12-1.168.2774-.5014.416-1.072.416-1.712 0-.64-.1386-1.2054-.416-1.696-.2666-.5014-.64-.8907-1.12-1.168-.48-.2774-1.0133-.416-1.6-.416-.5973 0-1.136.1386-1.616.416-.4693.2773-.8426.6666-1.12 1.168-.2666.4906-.4 1.056-.4 1.696 0 .64.1334 1.2106.4 1.712.2774.5013.6507.8906 1.12 1.168.48.2666 1.0187.4 1.616.4ZM100.054 44.584h1.136v6.688l5.616-6.688h1.008V53h-1.136v-6.688l-5.6 6.688h-1.024v-8.416ZM119.277 52.008v3.024h-1.072V53h-7.536v2.032h-1.072v-3.024h.48c.566-.032.95-.448 1.152-1.248.203-.8.342-1.92.416-3.36l.112-2.816h6.208v7.424h1.312Zm-6.592-4.544c-.053 1.1946-.154 2.1813-.304 2.96-.149.768-.416 1.296-.8 1.584h5.248v-6.416h-4.048l-.096 1.872ZM121.491 44.584h1.136v6.688l5.616-6.688h1.008V53h-1.136v-6.688l-5.6 6.688h-1.024v-8.416ZM138.859 44.584V53h-1.136v-3.504c-.971.4266-1.926.64-2.864.64-1.014 0-1.803-.2294-2.368-.688-.566-.4694-.848-1.168-.848-2.096v-2.768h1.136v2.704c0 .6293.202 1.1093.608 1.44.405.32.965.48 1.68.48.789 0 1.674-.208 2.656-.624v-4h1.136ZM149.445 49.144h-7.04c.064.8746.4 1.584 1.008 2.128.608.5333 1.376.8 2.304.8.523 0 1.003-.0907 1.44-.272.437-.192.816-.4694 1.136-.832l.64.736c-.373.448-.843.7893-1.408 1.024-.555.2346-1.168.352-1.84.352-.864 0-1.632-.1814-2.304-.544-.661-.3734-1.179-.8854-1.552-1.536-.373-.6507-.56-1.3867-.56-2.208 0-.8214.176-1.5574.528-2.208.363-.6507.853-1.1574 1.472-1.52.629-.3627 1.333-.544 2.112-.544.779 0 1.477.1813 2.096.544.619.3626 1.104.8693 1.456 1.52.352.64.528 1.376.528 2.208l-.016.352Zm-4.064-3.648c-.811 0-1.493.2613-2.048.784-.544.512-.853 1.184-.928 2.016h5.968c-.075-.832-.389-1.504-.944-2.016-.544-.5227-1.227-.784-2.048-.784ZM155.496 53.08c-.832 0-1.579-.1814-2.24-.544-.651-.3627-1.163-.8694-1.536-1.52-.374-.6614-.56-1.4027-.56-2.224 0-.8214.186-1.5574.56-2.208.373-.6507.885-1.1574 1.536-1.52.661-.3627 1.408-.544 2.24-.544.725 0 1.37.144 1.936.432.576.2773 1.029.688 1.36 1.232l-.848.576c-.278-.416-.63-.7254-1.056-.928-.427-.2134-.891-.32-1.392-.32-.608 0-1.158.1386-1.648.416-.48.2666-.859.6506-1.136 1.152-.267.5013-.4 1.072-.4 1.712 0 .6506.133 1.2266.4 1.728.277.4906.656.8746 1.136 1.152.49.2666 1.04.4 1.648.4.501 0 .965-.1014 1.392-.304.426-.2027.778-.512 1.056-.928l.848.576c-.331.544-.784.96-1.36 1.248-.576.2773-1.222.416-1.936.416ZM164.047 49.256h-1.92V53h-1.136v-8.416h1.136v3.696h1.936l2.96-3.696h1.232l-3.312 4.08L168.495 53h-1.344l-3.104-3.744ZM170.288 44.584h1.136v6.688l5.616-6.688h1.008V53h-1.136v-6.688l-5.6 6.688h-1.024v-8.416ZM181.304 44.584h1.136v6.688l5.616-6.688h1.008V53h-1.136v-6.688l-5.6 6.688h-1.024v-8.416Zm3.824-1.216c-.726 0-1.302-.1814-1.728-.544-.427-.3627-.646-.8747-.656-1.536h.816c.01.416.16.752.448 1.008.288.2453.661.368 1.12.368.458 0 .832-.1227 1.12-.368.298-.256.453-.592.464-1.008h.816c-.011.6613-.235 1.1733-.672 1.536-.427.3626-1.003.544-1.728.544ZM205.275 52.008v3.104h-1.072V53h-7.696v-8.416h1.136v7.424h5.136v-7.424h1.136v7.424h1.36ZM214.804 49.144h-7.04c.064.8746.4 1.584 1.008 2.128.608.5333 1.376.8 2.304.8.523 0 1.003-.0907 1.44-.272.438-.192.816-.4694 1.136-.832l.64.736c-.373.448-.842.7893-1.408 1.024-.554.2346-1.168.352-1.84.352-.864 0-1.632-.1814-2.304-.544-.661-.3734-1.178-.8854-1.552-1.536-.373-.6507-.56-1.3867-.56-2.208 0-.8214.176-1.5574.528-2.208.363-.6507.854-1.1574 1.472-1.52.63-.3627 1.334-.544 2.112-.544.779 0 1.478.1813 2.096.544.619.3626 1.104.8693 1.456 1.52.352.64.528 1.376.528 2.208l-.016.352Zm-4.064-3.648c-.81 0-1.493.2613-2.048.784-.544.512-.853 1.184-.928 2.016h5.968c-.074-.832-.389-1.504-.944-2.016-.544-.5227-1.226-.784-2.048-.784ZM217.335 44.584h1.136v3.728h5.296v-3.728h1.136V53h-1.136v-3.712h-5.296V53h-1.136v-8.416ZM234.052 45.592h-3.184V53h-1.136v-7.408h-3.184v-1.008h7.504v1.008ZM240.03 44.52c.79 0 1.504.1813 2.144.544.64.352 1.142.8533 1.504 1.504.363.6506.544 1.392.544 2.224 0 .8426-.181 1.5893-.544 2.24-.362.6506-.864 1.1573-1.504 1.52-.629.352-1.344.528-2.144.528-.682 0-1.301-.1387-1.856-.416-.544-.288-.992-.704-1.344-1.248v4.688h-1.136v-11.52h1.088v1.664c.342-.5547.79-.9814 1.344-1.28.566-.2987 1.2-.448 1.904-.448Zm-.08 7.552c.587 0 1.12-.1334 1.6-.4.48-.2774.854-.6667 1.12-1.168.278-.5014.416-1.072.416-1.712 0-.64-.138-1.2054-.416-1.696-.266-.5014-.64-.8907-1.12-1.168-.48-.2774-1.013-.416-1.6-.416-.597 0-1.136.1386-1.616.416-.469.2773-.842.6666-1.12 1.168-.266.4906-.4 1.056-.4 1.696 0 .64.134 1.2106.4 1.712.278.5013.651.8906 1.12 1.168.48.2666 1.019.4 1.616.4Z" fill="#022050"/><path d="M53.8028 14.8953c.9283-.5986 1.201-1.841.5422-2.7276A30.146 30.146 0 0 0 21.6352 1.2264 30.1466 30.1466 0 0 0 6.002 48.1978a30.1461 30.1461 0 0 0 48.336-.063c.659-.8864.3868-2.1289-.5413-2.7278l-4.4431-2.867c-.9281-.5989-2.1588-.3248-2.8438.5417a20.8589 20.8589 0 0 1-22.2603 7.0724A20.8586 20.8586 0 1 1 46.515 17.2176c.6846.8668 1.9152 1.1414 2.8435.5429l4.4443-2.8652Z" fill="#B40439"/><circle cx="30.1465" cy="30.1464" r="11.5948" fill="#022050"/><circle cx="30.1463" cy="30.1467" r="4.1741" fill="#A40202"/></svg>