<svg width="56" height="61" viewBox="0 0 56 61" fill="none" xmlns="http://www.w3.org/2000/svg"><path d="M53.8028 14.8953c.9283-.5986 1.201-1.841.5422-2.7276A30.146 30.146 0 0 0 21.6352 1.2264 30.1466 30.1466 0 0 0 6.002 48.1978a30.1461 30.1461 0 0 0 48.336-.063c.659-.8864.3868-2.1289-.5413-2.7278l-4.4431-2.867c-.9281-.5989-2.1588-.3248-2.8438.5417a20.8589 20.8589 0 0 1-22.2603 7.0724A20.8586 20.8586 0 1 1 46.515 17.2176c.6846.8668 1.9152 1.1414 2.8435.5429l4.4443-2.8652Z" fill="#B40439"/><circle cx="30.1465" cy="30.1464" r="11.5948" fill="#022050"/><circle cx="30.1463" cy="30.1466" r="4.1741" fill="#A40202"/></svg>