<svg width="326" height="310" viewBox="0 0 326 310" fill="none" xmlns="http://www.w3.org/2000/svg"><path d="M329.475 242.618v77.401H60.79v-61.132l129.166-120.785c12.489-11.832 20.87-21.857 25.143-30.073 4.273-8.5457 6.409-17.091 6.409-25.6364 0-11.1746-3.78-19.8843-11.339-26.129-7.559-6.2446-18.57-9.367-33.031-9.367-12.818 0-24.65 2.958-35.496 8.874-10.517 5.5873-19.227 13.804-26.129 24.65l-72.471-40.426C56.5173 17.6453 75.4157.0616 99.737-12.7564c24.321-12.818 53.08-19.227 86.275-19.227 26.293 0 49.464 4.2727 69.513 12.818 20.377 8.5453 36.153 20.8703 47.328 36.975 11.503 15.776 17.255 34.1814 17.255 55.216 0 18.734-4.108 36.4824-12.325 53.2444-7.888 16.433-23.335 35.167-46.342 56.202l-65.076 60.146h133.11Z" fill="#fff"/></svg>