<svg width="326" height="310" viewBox="0 0 326 310" fill="none" xmlns="http://www.w3.org/2000/svg"><path d="M241.749 130.035c28.594 5.916 50.451 17.748 65.569 35.496 15.448 17.419 23.171 38.618 23.171 63.597 0 20.377-5.587 39.275-16.762 56.695-10.846 17.419-27.608 31.552-50.286 42.398-22.349 10.517-50.121 15.776-83.317 15.776-24.321 0-48.478-2.958-72.471-8.874-23.6637-5.916-44.2053-14.297-61.6247-25.143l35.496-73.457c13.4754 9.202 28.5937 16.269 45.3557 21.199 17.091 4.93 33.853 7.395 50.286 7.395 16.762 0 30.073-3.123 39.933-9.367 9.86-6.245 14.79-15.119 14.79-26.622 0-22.35-17.583-33.524-52.751-33.524h-40.919v-61.625l61.625-66.5554H63.7763v-75.429H313.234v61.132l-71.485 76.9084Z" fill="#fff"/></svg>