<svg width="0" height="0" class="hidden">
  <symbol xmlns="http://www.w3.org/2000/svg" viewBox="0 0 38 37" id="car">
    <path d="m35.2111 13.9468-2.5949-8.6497C32.0245 3.3245 30.2439 2 28.1854 2H10.8146C8.7561 2 6.9754 3.3245 6.3838 5.2971l-2.595 8.6497C2.1503 14.6589 1 16.2895 1 18.1875v9.25C1 28.7146 2.0354 29.75 3.3125 29.75h.0001l-.0001 2.3124c0 1.2772 1.0353 2.3126 2.3125 2.3126h2.3126c1.2771 0 2.3125-1.0354 2.3125-2.3125l-.001-2.3125H28.75l-.0001 2.3124c0 1.2772 1.0353 2.3126 2.3125 2.3126h2.3126c1.2772 0 2.3125-1.0354 2.3125-2.3125v-2.3124l-.0008-.0001h.0008C36.9646 29.75 38 28.7146 38 27.4375v-9.25c0-1.898-1.1503-3.5286-2.7889-4.2407ZM10.8145 6.625h17.3709l2.0813 6.9375H8.7332l2.0813-6.9375Zm-.5646 17.3438c-1.2772 0-2.3125-1.0355-2.3125-2.3126 0-1.2772 1.0353-2.3124 2.3125-2.3124s2.3125 1.0352 2.3125 2.3124c0 1.2771-1.0353 2.3126-2.3125 2.3126Zm18.5 0c-1.2772 0-2.3125-1.0355-2.3125-2.3126 0-1.2772 1.0353-2.3124 2.3125-2.3124s2.3125 1.0352 2.3125 2.3124c0 1.2771-1.0353 2.3126-2.3125 2.3126Z"></path>
  </symbol>
  <symbol xmlns="http://www.w3.org/2000/svg" viewBox="0 0 37 37" id="chat">
    <path d="M8.188 28.3401c-2.9922-2.9389-4.8217-6.7473-5.2465-10.8555C1.3512 19.4949.489 21.9605.493 24.5482c.0027 1.6831.3815 3.3561 1.0993 4.869L.1121 33.7248c-.2545.7405-.0686 1.5445.4851 2.0983.3897.3896.9034.5972 1.4317.5972.2223 0 .4472-.0367.6665-.1121l4.3077-1.4802c1.513.7178 3.1859 1.0966 4.869 1.0993 2.6384.0035 5.1494-.8916 7.1804-2.5415-4.0839-.3695-7.8935-2.1277-10.8645-5.0457Z"></path>
    <path d="m36.8665 28.7496-2.149-6.2541c1.0359-2.1175 1.5833-4.4725 1.587-6.842.0064-4.1201-1.5877-8.0157-4.4886-10.9692C28.9145 1.73 25.0481.0673 20.9289.002c-4.2712-.0675-8.286 1.5571-11.3043 4.5754-3.0184 3.0183-4.6433 7.033-4.5757 11.3045.0653 4.1191 1.7281 7.9855 4.6821 10.887 2.9477 2.8953 6.8335 4.4889 10.9447 4.4887h.0246c2.3696-.0037 4.7246-.5511 6.8421-1.5869l6.2542 2.149c.2606.0895.5278.1332.7919.1332.6279 0 1.2384-.2466 1.7015-.7098.658-.6581.8789-1.6134.5765-2.4935Zm-14.6809-7.6974h-8.0702c-.6082 0-1.1011-.493-1.1011-1.1011 0-.6082.493-1.1012 1.1011-1.1012h8.0701c.6082 0 1.1012.493 1.1012 1.1012 0 .6081-.4929 1.1011-1.1011 1.1011Zm5.0505-4.5288H14.1155c-.6082 0-1.1012-.493-1.1012-1.1012 0-.6081.4931-1.1011 1.1012-1.1011h13.1206c.6082 0 1.1012.493 1.1012 1.1011 0 .6082-.493 1.1012-1.1012 1.1012Zm0-4.5289H14.1155c-.6082 0-1.1012-.4931-1.1012-1.1012 0-.6082.4931-1.1012 1.1012-1.1012h13.1206c.6082 0 1.1012.4931 1.1012 1.1012s-.493 1.1012-1.1012 1.1012Z"></path>
  </symbol>
  <symbol xmlns="http://www.w3.org/2000/svg" viewBox="0 0 37 37" id="contract">
    <path d="M12.9442 7.3226h9.93c.5484 0 .993-.4718.993-1.0538v-4.215c0-.582-.4446-1.0538-.993-1.0538h-9.93c-.5484 0-.993.4718-.993 1.0538v4.215c0 .582.4446 1.0538.993 1.0538ZM14.9297 15.7015v4.9689h1.986v-1.0538c0-.582.4446-1.0538.993-1.0538s.993.4718.993 1.0538v1.0538h1.986v-4.9689l-2.979-1.5807-2.979 1.5807Z"></path>
    <path d="M27.6878 31.6998h-3.2769c-.5483 0-.993-.4718-.993-1.0537v-3.4773c0-.2795.1046-.5476.291-.7452l7.1091-7.5441V5.2151c0-.582-.4446-1.0537-.993-1.0537h-3.972v2.1075c0 1.7431-1.3364 3.1613-2.979 3.1613h-9.93c-1.6426 0-2.979-1.4181-2.979-3.1613V4.1614H5.993c-.5484 0-.993.4718-.993 1.0537V35.915c0 .5819.4446 1.0538.993 1.0538h23.832c.5484 0 .993-.4719.993-1.0538v-7.1004l-2.428 2.5766c-.1863.1977-.4388.3087-.7022.3087Zm-7.1309 0h-5.296c-.5484 0-.993-.4718-.993-1.0537 0-.582.4446-1.0538.993-1.0538h5.296c.5484 0 .993.4718.993 1.0538 0 .5819-.4446 1.0537-.993 1.0537Zm0-4.215h-5.296c-.5484 0-.993-.4719-.993-1.0538 0-.582.4446-1.0538.993-1.0538h5.296c.5484 0 .993.4718.993 1.0538 0 .5819-.4446 1.0538-.993 1.0538Zm2.317-10.7387v4.9781c0 .5819-.4446 1.0537-.993 1.0537h-7.944c-.5484 0-.993-.4718-.993-1.0537v-4.9787c-.4658.1755-.9924-.0403-1.2191-.5214-.2453-.5206-.0465-1.1536.4441-1.4138l5.2959-2.8101a.9422.9422 0 0 1 .8882 0l5.296 2.8101c.4905.2602.6893.8932.444 1.4138-.2248.4772-.7488.6992-1.2191.522Z"></path>
    <path d="M25.4033 29.5924h1.8725l6.6905-7.1-1.8723-1.987-6.6907 7.1v1.987Z"></path>
  </symbol>
  <symbol xmlns="http://www.w3.org/2000/svg" viewBox="0 0 37 37" id="docok">
    <path d="M.6348 8.744h8.0367V.635L.6348 8.744ZM28.2559 19.584c-4.7816 0-8.6719 3.8903-8.6719 8.6719 0 4.7816 3.8903 8.7441 8.6719 8.7441C33.0375 37 37 33.0375 37 28.2559c0-4.7816-3.9625-8.6719-8.7441-8.6719Zm4.0183 8.3543-4.3359 4.3359c-.4235.4234-1.1095.4234-1.5329 0l-2.1679-2.168c-.4234-.4234-.4234-1.1094 0-1.5328s1.1094-.4234 1.5328 0l1.4016 1.4016 3.5695-3.5696c.4234-.4234 1.1095-.4234 1.5329 0s.4234 1.1094-.0001 1.5329Z"></path>
    <path d="M5.42 23.9199h12.9149c1.6774-3.8215 5.4874-6.5039 9.921-6.5039V3.252c0-1.7932-1.4588-3.252-3.252-3.252H10.8398v9.8281c0 .5992-.4848 1.084-1.084 1.084H0v22.7637C0 35.469 1.4587 37 3.252 37h18.567c-2.102-1.5651-3.642-3.9178-4.1839-6.5762H5.4199a1.0833 1.0833 0 0 1-1.084-1.084c0-.5991.4849-1.0839 1.084-1.0839H17.416c0-.7424.0763-1.4672.2191-2.168H5.4199a1.0833 1.0833 0 0 1-1.084-1.084c0-.5991.4849-1.084 1.084-1.084Zm8.6718-17.3437h8.7441c.5992 0 1.084.4848 1.084 1.084 0 .5991-.4848 1.084-1.084 1.084h-8.7441a1.0833 1.0833 0 0 1-1.084-1.084c0-.5992.4848-1.084 1.084-1.084Zm0 4.3359h8.7441c.5992 0 1.084.4848 1.084 1.084 0 .5991-.4848 1.084-1.084 1.084h-8.7441a1.0834 1.0834 0 0 1-1.084-1.084c0-.5992.4848-1.084 1.084-1.084ZM5.4199 15.248h17.416c.5992 0 1.084.4849 1.084 1.084 0 .5992-.4848 1.084-1.084 1.084H5.4199a1.0833 1.0833 0 0 1-1.084-1.084c0-.5991.4849-1.084 1.084-1.084Zm0 4.336h13.4866c.5991 0 1.084.4848 1.084 1.084 0 .5991-.4849 1.084-1.084 1.084H5.4199a1.0834 1.0834 0 0 1-1.084-1.084c0-.5992.4849-1.084 1.084-1.084Z"></path>
  </symbol>
  <symbol xmlns="http://www.w3.org/2000/svg" viewBox="0 0 37 37" id="docsearch">
    <path d="M13.7591 2.7642h6.3359c.0785-1.46-.9749-2.7725-2.4843-2.7642h-4.8636a4.6041 4.6041 0 0 1 .7134 2.4656c0 .1647.1339.2986.2986.2986ZM22.5423 2.765h6.3173c.1328-1.459-.9775-2.7729-2.4656-2.764h-4.8637a4.6041 4.6041 0 0 1 .7134 2.4655.299.299 0 0 0 .2986.2986ZM21.9731 16.0938c-2.6022 0-4.7192 2.117-4.7192 4.7191.2373 6.2522 9.2021 6.2504 9.4385 0-.0001-2.6021-2.1171-4.7191-4.7193-4.7191ZM6.8096 30.2154h8.4438c-1.7091-1.2305-3.0695-2.9162-3.9009-4.8787h-4.543v4.8787Z"></path>
    <path d="M21.9732 32.3828H5.7257c-.5984 0-1.0835-.4851-1.0835-1.0835v-7.0457c0-.5984.4851-1.0835 1.0835-1.0835h4.9529c-.16-.7841-.2433-1.6057-.2322-2.4339H5.7257c-.5984 0-1.0835-.4851-1.0835-1.0835 0-.5984.4851-1.0835 1.0835-1.0835h4.9471c1.5037-8.1177 11.5909-12.0542 18.1867-6.955V4.9316H13.7594c-1.3617 0-2.4656-1.1039-2.4656-2.4655 0-1.3617-1.1038-2.4656-2.4655-2.4656H2.4655C1.104.0005 0 1.1043 0 2.466v32.0521c0 1.3617 1.1039 2.4655 2.4655 2.4655H26.394c1.0465 0 1.9401-.6523 2.298-1.5723l-3.4898-3.4897a11.5338 11.5338 0 0 1-3.2289.4611ZM9.2073 16.094H5.7257c-1.4348-.0527-1.4361-2.1138 0-2.167h3.4816c1.4348.0526 1.4361 2.1137 0 2.167Zm2.3211-4.6422H5.7257c-1.4341-.0524-1.4367-2.1136 0-2.167h5.8027c.5983 0 1.0835.4851 1.0835 1.0835 0 .5984-.4852 1.0835-1.0835 1.0835Z"></path>
    <path d="m35.9856 30.0107-5.427-5.4268c2.7295-6.0267-1.9619-13.1923-8.586-13.0911-5.1617-.0001-9.3612 4.1994-9.3612 9.3613-.102 6.6492 7.1176 11.3427 13.1487 8.5611l5.4106 5.4106c3.3077 3.072 7.8866-1.5083 4.8149-4.8151Zm-14.0128-2.2705c-3.7971 0-6.8862-3.0891-6.8862-6.8861.3462-9.123 13.4276-9.1204 13.7725 0-.0001 3.797-3.0892 6.8861-6.8863 6.8861Z"></path>
  </symbol>
  <symbol xmlns="http://www.w3.org/2000/svg" viewBox="0 0 37 37" id="docsud">
    <path d="M7.2263.6348.6348 7.2263h6.5915V.6348ZM10.8398 18.0664h3.6133v7.9492h-3.6133v-7.9492ZM8.6719 29.2676c0 .5977.4862 1.084 1.084 1.084h5.7812c.5977 0 1.084-.4863 1.084-1.084 0-.5977-.4863-1.084-1.084-1.084H9.7559c-.5978 0-1.084.4863-1.084 1.084ZM15.5371 13.7305H9.7559c-.5978 0-1.084.4862-1.084 1.084 0 .5977.4862 1.0839 1.084 1.0839h5.7812c.5977 0 1.084-.4862 1.084-1.0839 0-.5978-.4863-1.084-1.084-1.084ZM35.374 20.415H16.6211v3.252H35.374c.898 0 1.626-.728 1.626-1.626 0-.898-.728-1.626-1.626-1.626Z"></path>
    <path d="M16.6211 26.2021c1.2617.4474 2.168 1.6523 2.168 3.0655 0 1.7931-1.4589 3.2519-3.252 3.2519H9.7559c-1.7932 0-3.252-1.4588-3.252-3.2519 0-1.4132.9063-2.6181 2.168-3.0655V17.88c-1.2617-.4475-2.168-1.6524-2.168-3.0655 0-1.7932 1.4588-3.252 3.252-3.252h5.7812c1.7931 0 3.252 1.4588 3.252 3.252 0 1.4131-.9063 2.618-2.168 3.0655v.3671h10.1172V3.252c0-1.7932-1.4588-3.252-3.252-3.252H9.3945v8.3105c0 .5987-.4853 1.084-1.084 1.084H0V33.748C0 35.5412 1.4588 37 3.252 37h20.2343c1.7932 0 3.252-1.4588 3.252-3.252v-7.913H16.6211v.3671ZM12.6465 4.3359h8.6719c.5986 0 1.0839.4854 1.0839 1.084 0 .5987-.4853 1.084-1.0839 1.084h-8.6719c-.5987 0-1.084-.4853-1.084-1.084 0-.5986.4853-1.084 1.084-1.084Z"></path>
  </symbol>
  <symbol xmlns="http://www.w3.org/2000/svg" viewBox="0 0 37 37" id="document">
    <path d="M32.2447 4.1885h-1.0818v26.5793c0 1.7658-1.4374 3.2031-3.2031 3.2031H8.2812v.9853c0 1.1282.9158 2.0439 2.044 2.0439h21.9157c1.1282 0 2.0439-.9157 2.0439-2.0439V6.2324c0-1.1282-.9118-2.044-2.0401-2.044Z"></path>
    <path d="M16.9979 32.8116h10.9578c1.1283 0 2.044-.9157 2.044-2.0439V2.044C29.9997.9157 29.084 0 27.9557 0H13.3543v.6762c.0077.0695.0116.143.0116.2163v5.5987c0 1.588-1.2905 2.8786-2.8785 2.8786H4.8887c-.058 0-.1198-.0039-.1778-.0077H4v21.4056c0 1.1282.9157 2.0439 2.044 2.0439H16.9979Zm.4135-6.9471h-7.1443c-.5332 0-.966-.4328-.966-.966 0-.5332.4328-.9659.966-.9659h7.1481c.5332 0 .966.4327.966.9659s-.4366.966-.9698.966Zm7.148-4.9302H10.2671c-.5332 0-.966-.4328-.966-.966 0-.5332.4328-.9659.966-.9659h14.2923c.5332 0 .966.4327.966.9659s-.4328.966-.966.966Zm-14.2923-7.1675h14.2923c.5332 0 .966.4328.966.966 0 .5332-.4328.9659-.966.9659H10.2671c-.5332 0-.966-.4327-.966-.9659s.4328-.966.966-.966Z"></path>
    <path d="M4.8891 8.2107h5.6141c.9351-.0077 1.6924-.765 1.7001-1.7V.8925c0-.5177-.425-.8616-.8654-.8616-.2125 0-.4251.0773-.6028.255L4.2786 6.7425c-.541.541-.1584 1.4682.6105 1.4682Z"></path>
  </symbol>
  <symbol xmlns="http://www.w3.org/2000/svg" viewBox="0 0 38 37" id="family">
    <path d="M19.4974 9.25c2.5539 0 4.6243-2.0707 4.6243-4.625S22.0513 0 19.4974 0c-2.554 0-4.6244 2.0707-4.6244 4.625s2.0704 4.625 4.6244 4.625ZM26.4242 21.8208l-1.0497-8.177a2.3035 2.3035 0 0 0-2.2983-2.0813h-1.2671c-.3075 0-.6012.1226-.8185.3376l-1.4937 1.4939-1.4936-1.4939a1.1646 1.1646 0 0 0-.8185-.3376H15.92c-1.1931 0-2.1827.8949-2.2983 2.0512l-1.052 8.2094a1.153 1.153 0 0 0 .2798.9088 1.153 1.153 0 0 0 .867.3931h1.2486l.9665 11.7938C16.0472 36.1028 17.0391 37 18.2322 37h2.5318c1.1931 0 2.1827-.8972 2.3029-2.102l.9642-11.773h1.2462c.333 0 .6475-.1434.8671-.3931a1.139 1.139 0 0 0 .2798-.9111ZM31.0579 9.25c2.554 0 4.6243-2.0707 4.6243-4.625S33.6119 0 31.0579 0c-2.5539 0-4.6243 2.0707-4.6243 4.625S28.504 9.25 31.0579 9.25ZM7.9359 0C5.3855 0 3.3115 2.0743 3.3115 4.625S5.3855 9.25 7.9358 9.25c2.5481 0 4.6244-2.0743 4.6244-4.625S10.4839 0 7.9359 0ZM37.9855 21.8208l-1.0498-8.1747c-.1179-1.1887-1.1052-2.0836-2.2982-2.0836h-1.2671c-.3075 0-.6012.1226-.8185.3376l-1.4937 1.4939-1.4936-1.4939a1.1633 1.1633 0 0 0-.8162-.3376h-1.2671c-.1433 0-.2728.0509-.4092.0763.2982.5273.5318 1.0985.6011 1.739l1.0474 8.1493c.1295.992-.1803 1.991-.8462 2.7426-.3145.3608-.7168.6151-1.1469.814l.7677 7.5226c.1179 1.1863 1.1075 2.0812 2.3006 2.0812h2.5318c1.1931 0 2.1827-.8972 2.3029-2.102l.9619-9.4605h1.2462c.333 0 .6474-.1434.8671-.3931a1.1392 1.1392 0 0 0 .2798-.9111ZM11.1134 24.2581c-.6567-.7423-.9619-1.739-.837-2.7264l1.052-8.2117c.0601-.6151.2867-1.1701.5757-1.6835-.1294-.0231-.252-.074-.3884-.074h-1.2671c-.3075 0-.6011.1226-.8185.3376L7.9365 13.394l-1.4937-1.4939a1.1632 1.1632 0 0 0-.8162-.3376H4.3595c-1.1931 0-2.1827.8949-2.2983 2.0512l-1.052 8.2094a1.1533 1.1533 0 0 0 .2797.9088c.2197.2497.5364.3931.867.3931h1.2486l.9665 9.4813c.1156 1.184 1.1076 2.0812 2.3006 2.0812h2.5319c1.193 0 2.1826-.8972 2.3029-2.102l.7676-7.5041c-.4323-.2012-.8369-.4579-1.1606-.8233Z"></path>
  </symbol>
  <symbol xmlns="http://www.w3.org/2000/svg" viewBox="0 0 38 37" id="heart">
    <path d="M38 12.0167c0 10.0554-18.5005 23.4106-18.5005 23.4106S1 22.5535 1 12.0167C1 4.4425 5.581 1 11.2302 1c2.6155 0 4.9944 1.0649 6.8006 2.805l-4.7114 7.3655c-.1177.184-.1611.412-.1201.6313.0409.2187.1626.4116.3374.5324l7.0115 4.852-3.2268 4.194c-.1623.2109-.217.4945-.1459.7575l1.8053 6.7054c.0967.36.4026.5961.736.5961a.745.745 0 0 0 .1806-.0232c.399-.1033.6513-.5266.5738-.9603l-1.0966-6.1011 4.6025-4.9809c.1549-.1676.2353-.399.2218-.6341-.0134-.2364-.1203-.4546-.2938-.6l-6.0626-5.0901 6.5893-8.5219c.1338-.1734.1958-.3989.1718-.623a.8672.8672 0 0 0-.1009-.3233C25.5278 1.2072 26.6244 1 27.7679 1 33.419 1 38 5.9332 38 12.0167Z"></path>
  </symbol>
  <symbol xmlns="http://www.w3.org/2000/svg" viewBox="0 0 38 37" id="home">
    <path d="m37.3789 16.5699-5.6075-5.6075V4.4847c0-1.1712-.9491-2.1204-2.1221-2.1204-1.1703 0-2.1194.9492-2.1194 2.1204V6.721l-4.1752-4.1754c-2.0643-2.0631-5.6534-2.0595-7.713.0038L1.6207 16.5699c-.8276.8293-.8276 2.1712 0 2.9993.8281.8291 2.1727.8291 3.0004 0l14.0196-14.021c.4567-.4543 1.2617-.4543 1.716-.0013l14.022 14.0223a2.1163 2.1163 0 0 0 1.4998.6208c.543 0 1.086-.2064 1.5005-.6208.828-.828.828-2.1699-.0001-2.9993Z"></path>
    <path d="M20.237 9.5734c-.4074-.4071-1.0669-.4071-1.4731 0L6.4311 21.9026a1.0439 1.0439 0 0 0-.3051.7377v8.9924c0 2.1102 1.711 3.821 3.821 3.821h6.106v-9.4561h6.8936v9.4561h6.106c2.11 0 3.821-1.7108 3.821-3.8209v-8.9925c0-.2773-.1095-.5431-.3051-.7377L20.237 9.5734Z"></path>
  </symbol>
  <symbol xmlns="http://www.w3.org/2000/svg" viewBox="0 0 37 38" id="oldman">
    <path d="M10.8014 37.9999c-.8525 0-1.5416-.6891-1.5416-1.5416V22.9687c0-.8526.689-1.5417 1.5416-1.5417.8526 0 1.5417.6891 1.5417 1.5417v13.4896c0 .8525-.6891 1.5416-1.5417 1.5416ZM20.0508 10.25c-2.5499 0-4.625-2.075-4.625-4.625S17.5009 1 20.0508 1s4.625 2.075 4.625 4.625-2.0751 4.625-4.625 4.625Z"></path>
    <path d="M25.1692 38.0001h-5.1276c-.851 0-1.5417-.6907-1.5417-1.5417V20.6563l-3.0155 2.2678a4.1035 4.1035 0 0 1-2.1537 1.0021l-2.3834.3453c-.8094.1187-1.6342-.1248-2.254-.6629a2.8476 2.8476 0 0 1-.9804-2.1521c0-1.0808.5982-2.0551 1.5602-2.5392l4.292-2.166a1.8034 1.8034 0 0 0 .6952-.6182l.7801-1.1779a7.064 7.064 0 0 1 5.8892-3.1635h1.7251c1.0715 0 2.0813.3993 2.8382 1.1239 2.4759 2.3603 3.6846 6.3563 3.8018 12.5754.0324 1.7421-.4656 3.4395-1.4415 4.9133l-.4764.7184a6.3282 6.3282 0 0 0-1.0529 3.4934v2.2293c.0015.6367-.5165 1.1547-1.1547 1.1547Z"></path>
  </symbol>
  <symbol xmlns="http://www.w3.org/2000/svg" viewBox="0 0 37 37" id="trust">
    <path d="M35.4033 5.1492a1.2027 1.2027 0 0 0-.8688-.9928L19.7471.044a1.2019 1.2019 0 0 0-.6445 0L4.3152 4.1564a1.2024 1.2024 0 0 0-.8688.9928C3.3606 5.766 1.404 20.338 6.4227 27.5871c5.0127 7.2405 12.4075 9.0959 12.7198 9.1715a1.2026 1.2026 0 0 0 .5647 0c.3124-.0756 7.7073-1.931 12.7198-9.1715 5.0187-7.249 3.0621-21.821 2.9763-22.4379Zm-6.4424 8.5073L18.8743 23.7431a1.1988 1.1988 0 0 1-.8501.3522 1.1984 1.1984 0 0 1-.8502-.3522l-6.2364-6.2365a1.2015 1.2015 0 0 1-.3522-.8501c0-.3189.1268-.6248.3522-.8502l1.2383-1.2382c.4695-.4694 1.2309-.4696 1.7003 0l4.148 4.148 7.9981-7.9983a1.2017 1.2017 0 0 1 1.7003 0l1.2383 1.2383c.4695.4695.4695 1.2309 0 1.7004Z"></path>
  </symbol>
  <symbol xmlns="http://www.w3.org/2000/svg" viewBox="0 0 37 37" id="wheight">
    <path d="M33.5106 11.5404c.8633-.7593 1.4096-1.8709 1.4096-3.1083 0-2.283-1.8574-4.1405-4.1404-4.1405-1.5193 0-2.8494.8232-3.5697 2.0463l-6.327-1.504V3.4236C20.8831 2.0851 19.798 1 18.4595 1s-2.4236 1.0851-2.4236 2.4236v1.4138L9.7866 6.3327C9.0655 5.1125 7.737 4.2917 6.22 4.2917c-2.2831 0-4.1405 1.8574-4.1405 4.1405 0 1.2373.5463 2.3489 1.4096 3.1083C.3661 18.4575-.0002 19.0057 0 19.5733c.0014 3.4153 2.8007 6.1885 6.22 6.1885s6.2023-2.7732 6.2199-6.1885c.0109-.3923-.3539-1.0877-3.489-8.033.8028-.7063 1.3307-1.7173 1.4007-2.8509l5.6843-1.3601v24.7744h-3.1508c-.6693 0-1.2118.5425-1.2118 1.2118 0 .5167.324.9568.7796 1.131h-1.3048c-.6692 0-1.2118.5426-1.2118 1.2118 0 .6693.5426 1.2118 1.2118 1.2118h14.6228c.6692 0 1.2118-.5425 1.2118-1.2118 0-.6692-.5426-1.2118-1.2118-1.2118h-1.3048c.4555-.1742.7796-.6143.7796-1.131 0-.6693-.5425-1.2118-1.2118-1.2118h-3.1508V7.3252l5.7655 1.3705c.0715 1.131.5989 2.1398 1.4003 2.8447-3.0438 6.7433-3.4997 7.6537-3.4891 8.0331.0176 3.4152 2.8006 6.1884 6.22 6.1884 3.4193 0 6.2023-2.7732 6.2199-6.1884.0114-.4117-.322-1.0214-3.4891-8.0331ZM9.3531 18.3292H3.0868l2.611-5.7908c.1712.0217.3452.0341.522.0341.177 0 .351-.0124.5222-.0341l2.6111 5.7908Zm18.2934 0 2.6111-5.7908a4.147 4.147 0 0 0 .5221.0341 4.147 4.147 0 0 0 .5221-.0341l2.611 5.7908h-6.2663Z"></path>
  </symbol>
</svg>