<svg version="1.1" id="Layer_1" xmlns="http://www.w3.org/2000/svg" x="0" y="0" viewBox="0 0 245 61" style="enable-background:new 0 0 245 61" xml:space="preserve"><style>.st0{fill:#fff}</style><path class="st0" d="M84.4 31.4c-2.3 0-4.4-.5-6.2-1.5-1.8-1-3.3-2.4-4.4-4.1-1-1.8-1.6-3.8-1.6-6s.5-4.2 1.6-6c1.1-1.8 2.5-3.1 4.4-4.1 1.9-1 3.9-1.5 6.2-1.5 1.9 0 3.7.3 5.2 1 1.6.7 2.9 1.7 4 2.9l-3.3 3.1c-1.5-1.7-3.4-2.6-5.6-2.6-1.4 0-2.6.3-3.7.9-1.1.6-1.9 1.4-2.6 2.5-.6 1.1-.9 2.3-.9 3.7 0 1.4.3 2.6.9 3.7.6 1.1 1.5 1.9 2.6 2.6 1.1.6 2.3.9 3.7.9 2.2 0 4.1-.9 5.6-2.7l3.3 3.1c-1.1 1.3-2.4 2.3-4 3-1.5.7-3.3 1.1-5.2 1.1zm29.5-18.6h-7.2V31h-5.1V12.8h-7.1V8.6h19.4v4.2zm13.6 18.6c-2.3 0-4.4-.5-6.3-1.5-1.9-1-3.3-2.4-4.4-4.1-1-1.8-1.6-3.8-1.6-6s.5-4.2 1.6-5.9c1.1-1.8 2.5-3.2 4.4-4.2 1.9-1 4-1.5 6.3-1.5s4.4.5 6.3 1.5c1.9 1 3.3 2.4 4.4 4.2 1.1 1.7 1.6 3.7 1.6 5.9s-.5 4.2-1.6 6c-1.1 1.7-2.5 3.1-4.4 4.1-1.8 1-3.9 1.5-6.3 1.5zm0-4.4c1.3 0 2.5-.3 3.6-.9 1.1-.6 1.9-1.5 2.5-2.6.6-1.1.9-2.3.9-3.7 0-1.4-.3-2.6-.9-3.7-.6-1.1-1.4-1.9-2.5-2.5-1.1-.6-2.3-.9-3.6-.9-1.3 0-2.5.3-3.6.9-1.1.6-1.9 1.4-2.5 2.5-.6 1.1-.9 2.3-.9 3.7 0 1.4.3 2.6.9 3.7.6 1.1 1.5 1.9 2.5 2.6 1.1.6 2.3.9 3.6.9zm35.6-18.4V31H158V12.8h-7.7l-.2 4.7c-.1 3.2-.4 5.8-.8 7.7-.4 2-1.1 3.5-2 4.5-.9 1-2.3 1.6-4 1.6-.7 0-1.6-.1-2.6-.4l.3-4.4c.3.1.6.1.9.1 1.2 0 2.1-.7 2.6-2.2.5-1.5.8-3.8.9-6.9l.3-9.1 17.4.2zm5.6 0h5.2v14.6l10.7-14.6h4.9V31h-5.1V16.4L173.6 31h-4.9V8.6zm49.8 18.2v9h-4.8V31H195V8.6h5.2v18.2h10V8.6h5.2v18.2h3.1zm18.8-.6h-10.4l-2 4.8h-5.3l10-22.4h5.1l10 22.4h-5.4l-2-4.8zm-1.7-3.9-3.6-8.6-3.6 8.6h7.2zM80.9 41.7c1.1 0 2 .2 2.9.7.9.5 1.5 1.2 2 2 .5.9.7 1.8.7 2.9 0 1.1-.2 2.1-.7 2.9-.5.9-1.1 1.5-2 2-.9.5-1.8.7-2.9.7-1 0-1.9-.2-2.7-.7s-1.5-1.1-2-1.9c-.5-.8-.8-1.7-.8-2.7h-2.3V53h-1.2V41.8h1.2v5h2.3c.1-1 .4-1.8.9-2.6s1.2-1.4 2-1.8c.8-.5 1.6-.7 2.6-.7zm0 10.3c.8 0 1.6-.2 2.3-.6.7-.4 1.2-1 1.6-1.7.4-.7.6-1.5.6-2.4 0-.9-.2-1.7-.6-2.4-.4-.7-.9-1.3-1.6-1.6-.7-.4-1.4-.6-2.3-.6-.8 0-1.6.2-2.2.6-.7.4-1.2.9-1.6 1.6s-.6 1.5-.6 2.4c0 .9.2 1.7.6 2.4.4.7.9 1.3 1.6 1.7.7.4 1.4.6 2.2.6zm12.5-7.5c.8 0 1.5.2 2.1.5.6.4 1.1.9 1.5 1.5.4.7.5 1.4.5 2.2 0 .8-.2 1.6-.5 2.2-.4.7-.9 1.2-1.5 1.5-.6.4-1.3.5-2.1.5-.7 0-1.3-.1-1.9-.4-.5-.3-1-.7-1.3-1.2V56h-1.1V44.6h1.1v1.7c.3-.6.8-1 1.3-1.3.6-.3 1.2-.5 1.9-.5zm-.1 7.6c.6 0 1.1-.1 1.6-.4.5-.3.9-.7 1.1-1.2.3-.5.4-1.1.4-1.7 0-.6-.1-1.2-.4-1.7-.3-.5-.6-.9-1.1-1.2-.5-.3-1-.4-1.6-.4-.6 0-1.1.1-1.6.4-.5.3-.8.7-1.1 1.2-.3.5-.4 1.1-.4 1.7s.1 1.2.4 1.7c.3.5.7.9 1.1 1.2.5.2 1 .4 1.6.4zm6.8-7.5h1.1v6.7l5.6-6.7h1V53h-1.1v-6.7l-5.6 6.7h-1v-8.4zm19.2 7.4v3h-1.1v-2h-7.5v2h-1.1v-3h.5c.6 0 .9-.4 1.2-1.2.2-.8.3-1.9.4-3.4l.1-2.8h6.2V52h1.3zm-6.6-4.5c-.1 1.2-.2 2.2-.3 3-.1.8-.4 1.3-.8 1.6h5.2v-6.4h-4l-.1 1.8zm8.8-2.9h1.1v6.7l5.6-6.7h1V53h-1.1v-6.7l-5.6 6.7h-1v-8.4zm17.4 0V53h-1.1v-3.5c-1 .4-1.9.6-2.9.6s-1.8-.2-2.4-.7c-.6-.5-.8-1.2-.8-2.1v-2.8h1.1v2.7c0 .6.2 1.1.6 1.4.4.3 1 .5 1.7.5.8 0 1.7-.2 2.7-.6v-4c-.1.1 1.1.1 1.1.1zm10.5 4.5h-7c.1.9.4 1.6 1 2.1s1.4.8 2.3.8c.5 0 1-.1 1.4-.3.4-.2.8-.5 1.1-.8l.6.7c-.4.4-.8.8-1.4 1-.6.2-1.2.4-1.8.4-.9 0-1.6-.2-2.3-.5-.7-.4-1.2-.9-1.6-1.5-.4-.7-.6-1.4-.6-2.2 0-.8.2-1.6.5-2.2.4-.7.9-1.2 1.5-1.5.6-.4 1.3-.5 2.1-.5s1.5.2 2.1.5c.6.4 1.1.9 1.5 1.5.4.6.5 1.4.5 2.2l.1.3zm-4-3.6c-.8 0-1.5.3-2 .8s-.9 1.2-.9 2h6c-.1-.8-.4-1.5-.9-2-.7-.5-1.4-.8-2.2-.8zm10.1 7.6c-.8 0-1.6-.2-2.2-.5-.7-.4-1.2-.9-1.5-1.5-.4-.7-.6-1.4-.6-2.2 0-.8.2-1.6.6-2.2.4-.7.9-1.2 1.5-1.5.7-.4 1.4-.5 2.2-.5.7 0 1.4.1 1.9.4.6.3 1 .7 1.4 1.2l-.8.6c-.3-.4-.6-.7-1.1-.9-.4-.2-.9-.3-1.4-.3-.6 0-1.2.1-1.6.4-.5.3-.9.7-1.1 1.2-.3.5-.4 1.1-.4 1.7 0 .7.1 1.2.4 1.7.3.5.7.9 1.1 1.2.5.3 1 .4 1.6.4.5 0 1-.1 1.4-.3.4-.2.8-.5 1.1-.9l.8.6c-.3.5-.8 1-1.4 1.2-.5 0-1.2.2-1.9.2zm8.5-3.8h-1.9V53H161v-8.4h1.1v3.7h1.9l3-3.7h1.2l-3.3 4.1 3.6 4.3h-1.3l-3.2-3.7zm6.3-4.7h1.1v6.7l5.6-6.7h1V53h-1.1v-6.7l-5.6 6.7h-1v-8.4zm11 0h1.1v6.7l5.6-6.7h1V53h-1.1v-6.7l-5.6 6.7h-1v-8.4zm3.8-1.2c-.7 0-1.3-.2-1.7-.5-.4-.4-.6-.9-.7-1.5h.8c0 .4.2.8.4 1 .3.2.7.4 1.1.4.5 0 .8-.1 1.1-.4.3-.3.5-.6.5-1h.8c0 .7-.2 1.2-.7 1.5-.3.3-.8.5-1.6.5zm20.2 8.6v3.1h-1.1V53h-7.7v-8.4h1.1V52h5.1v-7.4h1.1V52h1.5zm9.5-2.9h-7c.1.9.4 1.6 1 2.1s1.4.8 2.3.8c.5 0 1-.1 1.4-.3.4-.2.8-.5 1.1-.8l.6.7c-.4.4-.8.8-1.4 1-.6.2-1.2.4-1.8.4-.9 0-1.6-.2-2.3-.5-.7-.4-1.2-.9-1.6-1.5-.4-.7-.6-1.4-.6-2.2 0-.8.2-1.6.5-2.2.4-.7.9-1.2 1.5-1.5.6-.4 1.3-.5 2.1-.5s1.5.2 2.1.5c.6.4 1.1.9 1.5 1.5.4.6.5 1.4.5 2.2l.1.3zm-4.1-3.6c-.8 0-1.5.3-2 .8s-.9 1.2-.9 2h6c-.1-.8-.4-1.5-.9-2-.7-.5-1.3-.8-2.2-.8zm6.6-.9h1.1v3.7h5.3v-3.7h1.1V53h-1.1v-3.7h-5.3V53h-1.1v-8.4zm16.8 1h-3.2V53h-1.1v-7.4h-3.2v-1h7.5v1zm5.9-1.1c.8 0 1.5.2 2.1.5.6.4 1.1.9 1.5 1.5.4.7.5 1.4.5 2.2 0 .8-.2 1.6-.5 2.2-.4.7-.9 1.2-1.5 1.5-.6.4-1.3.5-2.1.5-.7 0-1.3-.1-1.9-.4-.5-.3-1-.7-1.3-1.2V56h-1.1V44.6h1.1v1.7c.3-.6.8-1 1.3-1.3.6-.3 1.2-.5 1.9-.5zm-.1 7.6c.6 0 1.1-.1 1.6-.4.5-.3.9-.7 1.1-1.2.3-.5.4-1.1.4-1.7 0-.6-.1-1.2-.4-1.7-.3-.5-.6-.9-1.1-1.2-.5-.3-1-.4-1.6-.4-.6 0-1.1.1-1.6.4-.5.3-.8.7-1.1 1.2-.3.5-.4 1.1-.4 1.7s.1 1.2.4 1.7c.3.5.7.9 1.1 1.2.5.2 1.1.4 1.6.4zM53.8 14.9c.9-.6 1.2-1.8.5-2.7C46.8 2 33.8-2.3 21.6 1.2 5.7 5.9-3.5 22.7 1.2 38.7c1 3.4 2.6 6.7 4.8 9.5 10 13.3 28.9 16.1 42.2 6.1 2.3-1.7 4.4-3.8 6.1-6.2.7-.9.4-2.1-.5-2.7l-4.4-2.9c-.9-.6-2.2-.3-2.8.5-5.3 6.7-14.1 9.5-22.3 7.1-11-3.3-17.4-14.9-14.1-25.9S25 6.9 36 10.1c4.1 1.2 7.8 3.7 10.5 7.1.7.9 1.9 1.1 2.8.5l4.5-2.8z"/><circle cx="30.1" cy="30.1" r="11.6" style="fill:#eee"/><circle class="st0" cx="30.1" cy="30.1" r="4.2"/></svg>