<svg version="1.1" id="Layer_1" xmlns="http://www.w3.org/2000/svg" x="0" y="0" viewBox="0 0 56 61" style="enable-background:new 0 0 56 61" xml:space="preserve"><style>.st0{fill:#fff}</style><path class="st0" d="M53.8 14.9c.9-.6 1.2-1.8.5-2.7C46.8 2 33.8-2.3 21.6 1.2 5.7 5.9-3.5 22.7 1.2 38.7c1 3.4 2.6 6.7 4.8 9.5 10 13.3 28.9 16.1 42.2 6.1 2.3-1.7 4.4-3.8 6.1-6.2.7-.9.4-2.1-.5-2.7l-4.4-2.9c-.9-.6-2.2-.3-2.8.5-5.3 6.7-14.1 9.5-22.3 7.1-11-3.3-17.4-14.9-14.1-25.9S25 6.9 36 10.1c4.1 1.2 7.8 3.7 10.5 7.1.7.9 1.9 1.1 2.8.5l4.5-2.8z"/><circle cx="30.1" cy="30.1" r="11.6" style="fill:#eee"/><circle class="st0" cx="30.1" cy="30.1" r="4.2"/></svg>